<mxfile host="app.diagrams.net" agent="Mozilla/5.0 (Windows NT 10.0; Win64; x64) AppleWebKit/537.36 (KHTML, like Gecko) Chrome/135.0.0.0 Safari/537.36" version="26.0.6">
  <diagram name="Page-1" id="ddG8rSDUUmE46U1d8ILG">
    <mxGraphModel dx="6647" dy="3209" grid="1" gridSize="10" guides="1" tooltips="1" connect="1" arrows="1" fold="1" page="1" pageScale="1" pageWidth="850" pageHeight="1100" math="0" shadow="0">
      <root>
        <mxCell id="0" />
        <mxCell id="1" parent="0" />
        <UserObject label="" plantUmlData="{&#xa;  &quot;data&quot;: &quot;@startuml Hotel Management System ER Diagram\n\n&#39; Define Entities and Attributes\nentity \&quot;Employee\&quot; as employee {\n  *employee_id : number &lt;&lt;PK&gt;&gt;\n  --\n  name : varchar(100)\n  role : enum(ADMIN, MANAGER, RECEPTIONIST, ...)\n  phone : varchar(20)\n  nid : varchar(50) &lt;&lt;nullable&gt;&gt;\n  hire_date : date\n  status : enum(ACTIVE, INACTIVE, ON_LEAVE)\n}\n\nentity \&quot;Management\&quot; as management {\n  *management_id : number &lt;&lt;PK&gt;&gt;\n  --\n  email : varchar(100) &lt;&lt;unique&gt;&gt;\n  password : varchar(255)\n  last_login : timestamp &lt;&lt;nullable&gt;&gt;\n  employee_id : number &lt;&lt;FK&gt;&gt;\n}\n\nentity \&quot;User\&quot; as user {\n  *user_id : number &lt;&lt;PK&gt;&gt;\n  --\n  name : varchar(100)\n  email : varchar(100) &lt;&lt;unique&gt;&gt;\n  password : varchar(255)\n  phone : varchar(20)\n  address : text &lt;&lt;nullable&gt;&gt;\n  nid : varchar(50) &lt;&lt;nullable&gt;&gt;\n}\n\nentity \&quot;Feedback\&quot; as feedback {\n  *feedback_id : number &lt;&lt;PK&gt;&gt;\n  --\n  feedback : text\n  date : timestamp\n  user_id : number &lt;&lt;FK&gt;&gt;\n}\n\nentity \&quot;Reservation\&quot; as reservation {\n  *reservation_id : number &lt;&lt;PK&gt;&gt;\n  --\n  checkin_date : date\n  checkout_date : date\n  number_of_guests : number\n  room_price : decimal(10,2)\n  booking_date : timestamp\n  typeOfBooking : enum(WEBSITE, SELF)\n  user_id : number &lt;&lt;FK&gt;&gt;\n  room_num : number &lt;&lt;FK&gt;&gt;\n}\n\nentity \&quot;Booking\&quot; as booking {\n  *booking_id : number &lt;&lt;PK&gt;&gt;\n  --\n  checkin_date : date\n  checkout_date : date\n  number_of_guests : number\n  room_price : decimal(10,2)\n  coupon_percent : decimal(5,2) &lt;&lt;nullable&gt;&gt;\n  total_price : decimal(10,2)\n  payment_status : enum(PENDING, PARTIAL, PAID)\n  booking_date : timestamp\n  typeOfBooking : enum(WEBSITE, SELF)\n  service_asked : boolean\n  room_num : number &lt;&lt;FK&gt;&gt;\n  user_id : number &lt;&lt;FK&gt;&gt;\n  coupon_id : number &lt;&lt;FK&gt;&gt; &lt;&lt;nullable&gt;&gt;\n  employee_id : number &lt;&lt;FK&gt;&gt; &lt;&lt;nullable&gt;&gt;\n}\n\nentity \&quot;Accounts\&quot; as accounts {\n  *payment_id : number &lt;&lt;PK&gt;&gt;\n  --\n  total_price : decimal(10,2)\n  paid : decimal(10,2)\n  due : decimal(10,2)\n  payment_type : enum(CASH, CARD, ONLINE)\n  transaction_id : varchar(100) &lt;&lt;nullable&gt;&gt;\n  payment_date : timestamp\n  booking_id : number &lt;&lt;FK&gt;&gt;\n}\n\nentity \&quot;Rooms\&quot; as rooms {\n  *room_num : number &lt;&lt;PK&gt;&gt;\n  --\n  floor : number\n  capacity : number\n  type : varchar(50)\n  description : text &lt;&lt;nullable&gt;&gt;\n  room_price : decimal(10,2)\n  discount : decimal(5,2)\n  room_status : enum(AVAILABLE, OCCUPIED, MAINTENANCE)\n  housekeeping_status : enum(CLEAN, WAITING_FOR_CLEAN, NEEDS_SERVICE)\n}\n\nentity \&quot;RoomItem\&quot; as roomitem {\n  *item_id : number &lt;&lt;PK&gt;&gt;\n  --\n  item_name : varchar(100)\n  status : enum(FUNCTIONAL, NEEDS_REPAIR, MISSING)\n  last_checked : timestamp\n  issue_report : text &lt;&lt;nullable&gt;&gt;\n  room_num : number &lt;&lt;FK&gt;&gt;\n  employee_id : number &lt;&lt;FK&gt;&gt;\n}\n\nentity \&quot;HousekeepingHistory\&quot; as housekeepinghistory {\n  *housekeeping_id : number &lt;&lt;PK&gt;&gt;\n  --\n  date : timestamp\n  type_of_service : enum(CLEANING, SERVICE_REQUEST, MAINTENANCE)\n  issue_report : text &lt;&lt;nullable&gt;&gt;\n  cleaner_feedback : text &lt;&lt;nullable&gt;&gt;\n  room_num : number &lt;&lt;FK&gt;&gt;\n  employee_id : number &lt;&lt;FK&gt;&gt;\n  supervisor_employee_id : number &lt;&lt;FK&gt;&gt;\n  booking_id : number &lt;&lt;FK&gt;&gt; &lt;&lt;nullable&gt;&gt;\n}\n\nentity \&quot;Coupon\&quot; as coupon {\n  *coupon_id : number &lt;&lt;PK&gt;&gt;\n  --\n  coupon_code : varchar(50) &lt;&lt;unique&gt;&gt;\n  coupon_percent : decimal(5,2)\n  is_active : boolean\n  created_at : timestamp\n  employee_id : number &lt;&lt;FK&gt;&gt;\n}\n\nentity \&quot;CouponUsage\&quot; as couponusage {\n  *usage_id : number &lt;&lt;PK&gt;&gt;\n  --\n  used_at : timestamp\n  coupon_id : number &lt;&lt;FK&gt;&gt;\n  booking_id : number &lt;&lt;FK&gt;&gt;\n  employee_id : number &lt;&lt;FK&gt;&gt;\n}\n\nentity \&quot;Inventory\&quot; as inventory {\n  *serial_id : number &lt;&lt;PK&gt;&gt;\n  --\n  item_name : varchar(100)\n  quantity : number\n  issued : number\n  returned : number\n  used : number\n  date : date\n  ordered : number\n  order_price : decimal(10,2) &lt;&lt;nullable&gt;&gt;\n  employee_id : number &lt;&lt;FK&gt;&gt;\n}\n\nentity \&quot;Restaurant\&quot; as restaurant {\n  *food_id : number &lt;&lt;PK&gt;&gt;\n  --\n  item_name : varchar(100)\n  item_price : decimal(10,2)\n  food_type : enum(BREAKFAST, LUNCH, DINNER, SNACK, DESSERT, BEVERAGE)\n  description : text &lt;&lt;nullable&gt;&gt;\n  availability : boolean\n}\n\nentity \&quot;RestaurantHistory\&quot; as restauranthistory {\n  *order_id : number &lt;&lt;PK&gt;&gt;\n  --\n  quantity : number\n  food_price : decimal(10,2)\n  order_date : timestamp\n  booking_id : number &lt;&lt;FK&gt;&gt;\n  food_id : number &lt;&lt;FK&gt;&gt;\n  employee_id : number &lt;&lt;FK&gt;&gt;\n}\n\nentity \&quot;Salary\&quot; as salary {\n  *salary_id : number &lt;&lt;PK&gt;&gt;\n  --\n  amount : decimal(10,2)\n  payment_date : date\n  status : enum(PENDING, PAID, DISPUTED)\n  employee_id : number &lt;&lt;FK&gt;&gt;\n  paid_by_employee_id : number &lt;&lt;FK&gt;&gt;\n}\n\nentity \&quot;SalaryHistory\&quot; as salaryhistory {\n  *history_id : number &lt;&lt;PK&gt;&gt;\n  --\n  action_type : enum(PAYMENT, ADJUSTMENT, DISPUTE, APPROVAL)\n  details : text\n  bonus : decimal(10,2)\n  totalSalary : decimal(10,2)\n  timestamp : timestamp\n  employee_id : number &lt;&lt;FK&gt;&gt;\n  recorded_by_employee_id : number &lt;&lt;FK&gt;&gt;\n  salary_id : number &lt;&lt;FK&gt;&gt; &lt;&lt;nullable&gt;&gt;\n}\n\n&#39; Define Relationships\nemployee ||--o{ management : manages\nemployee ||--o{ booking : handles\nemployee ||--o{ coupon : creates\nemployee ||--o{ couponusage : applies\nemployee ||--o{ roomitem : checks\nemployee ||--o{ housekeepinghistory : cleans\nemployee ||--o{ housekeepinghistory : supervises\nemployee ||--o{ inventory : updates\nemployee ||--o{ restauranthistory : bills\nemployee ||--o{ salary : receives\nemployee ||--o{ salary : processes\nemployee ||--o{ salaryhistory : records\nemployee ||--o{ salaryhistory : logs\n\nuser ||--o{ booking : books\nuser ||--o{ feedback : gives\nuser ||--o{ reservation : reserves\n\nreservation }o--|| rooms : assigns\n\nbooking ||--o{ accounts : generates\nbooking ||--o{ restauranthistory : orders\nbooking ||--o{ couponusage : uses\nbooking ||--o{ housekeepinghistory : requests\nbooking }o--|| rooms : occupies\nbooking }o--|| coupon : applies\n\nrooms ||--o{ roomitem : contains\nrooms ||--o{ housekeepinghistory : services\n\ncoupon ||--o{ couponusage : tracks\n\nrestaurant ||--o{ restauranthistory : serves\n\nsalary ||--o{ salaryhistory : logs\n\n&#39; Styling\nhide empty members\nskinparam monochrome true\n\n@enduml&quot;,&#xa;  &quot;format&quot;: &quot;svg&quot;&#xa;}" id="vVkHbL1uIA7JmoqP77EU-2">
          <mxCell style="shape=image;noLabel=1;verticalAlign=top;aspect=fixed;imageAspect=0;image=data:image/svg+xml,PHN2ZyB4bWxucz0iaHR0cDovL3d3dy53My5vcmcvMjAwMC9zdmciIHhtbG5zOnhsaW5rPSJodHRwOi8vd3d3LnczLm9yZy8xOTk5L3hsaW5rIiBjb250ZW50U3R5bGVUeXBlPSJ0ZXh0L2NzcyIgZGF0YS1kaWFncmFtLXR5cGU9IkNMQVNTIiBoZWlnaHQ9IjEwMzBweCIgcHJlc2VydmVBc3BlY3RSYXRpbz0ibm9uZSIgc3R5bGU9IndpZHRoOjMzNzNweDtoZWlnaHQ6MTAzMHB4O2JhY2tncm91bmQ6I0ZGRkZGRjsiIHZlcnNpb249IjEuMSIgdmlld0JveD0iMCAwIDMzNzMgMTAzMCIgd2lkdGg9IjMzNzNweCIgem9vbUFuZFBhbj0ibWFnbmlmeSI+PGRlZnMvPjxnPjwhLS1jbGFzcyBlbXBsb3llZS0tPjxnIGNsYXNzPSJlbnRpdHkiIGRhdGEtZW50aXR5PSJlbXBsb3llZSIgZGF0YS1zb3VyY2UtbGluZT0iMiIgZGF0YS11aWQ9ImVudDAwMDIiIGlkPSJlbnRpdHlfZW1wbG95ZWUiPjxyZWN0IGZpbGw9IiNGMUYxRjEiIGhlaWdodD0iMTUyLjg5MDYiIHJ4PSIyLjUiIHJ5PSIyLjUiIHN0eWxlPSJzdHJva2U6IzE4MTgxODtzdHJva2Utd2lkdGg6MC41OyIgd2lkdGg9IjMzNCIgeD0iMjI2OS41IiB5PSI3Ii8+PGVsbGlwc2UgY3g9IjI0MDQuMjUiIGN5PSIyMyIgZmlsbD0iI0MyQzJDMiIgcng9IjExIiByeT0iMTEiIHN0eWxlPSJzdHJva2U6IzE4MTgxODtzdHJva2Utd2lkdGg6MTsiLz48cGF0aCBkPSJNMjQwNy44NzUsMjkgTDI0MDcuODc1LDI3LjI1IEwyNDAyLjU2MjUsMjcuMjUgUTI0MDIuNTYyNSwyNy4yNSAyNDAyLjU2MjUsMjMuNjg3NSBMMjQwNi44MTI1LDIzLjY4NzUgTDI0MDYuODEyNSwyMS45Mzc1IEwyNDAyLjU2MjUsMjEuOTM3NSBMMjQwMi41NjI1LDE5LjQzNzUgTDI0MDcuODc1LDE5LjQzNzUgTDI0MDcuODc1LDE3LjY4NzUgTDI0MDAuODEyNSwxNy42ODc1IFEyNDAwLjgxMjUsMTcuNjg3NSAyNDAwLjgxMjUsMjkgTDI0MDcuODc1LDI5IFogIiBmaWxsPSIjMDAwMDAwIi8+PHRleHQgZmlsbD0iIzAwMDAwMCIgZm9udC1mYW1pbHk9InNhbnMtc2VyaWYiIGZvbnQtc2l6ZT0iMTQiIGxlbmd0aEFkanVzdD0ic3BhY2luZyIgdGV4dExlbmd0aD0iNTYiIHg9IjI0MjQuNzUiIHk9IjI4Ljc0MjIiPkVtcGxveWVlPC90ZXh0PjxsaW5lIHN0eWxlPSJzdHJva2U6IzE4MTgxODtzdHJva2Utd2lkdGg6MC41OyIgeDE9IjIyNzAuNSIgeDI9IjI2MDIuNSIgeTE9IjM5IiB5Mj0iMzkiLz48ZWxsaXBzZSBjeD0iMjI4MC41IiBjeT0iNTEuOTkyMiIgZmlsbD0iIzAwMDAwMCIgcng9IjMiIHJ5PSIzIiBzdHlsZT0ic3Ryb2tlOiMwMDAwMDA7c3Ryb2tlLXdpZHRoOjE7Ii8+PHRleHQgZmlsbD0iIzAwMDAwMCIgZm9udC1mYW1pbHk9InNhbnMtc2VyaWYiIGZvbnQtc2l6ZT0iMTQiIGxlbmd0aEFkanVzdD0ic3BhY2luZyIgdGV4dExlbmd0aD0iMTc1IiB4PSIyMjg5LjUiIHk9IjU2LjIzNDQiPmVtcGxveWVlX2lkIDogbnVtYmVyICYjMTcxO1BLJiMxODc7PC90ZXh0PjxsaW5lIHN0eWxlPSJzdHJva2U6IzE4MTgxODtzdHJva2Utd2lkdGg6MTsiIHgxPSIyMjcwLjUiIHgyPSIyNjAyLjUiIHkxPSI2MS45ODQ0IiB5Mj0iNjEuOTg0NCIvPjx0ZXh0IGZpbGw9IiMwMDAwMDAiIGZvbnQtZmFtaWx5PSJzYW5zLXNlcmlmIiBmb250LXNpemU9IjE0IiBsZW5ndGhBZGp1c3Q9InNwYWNpbmciIHRleHRMZW5ndGg9IjEzMyIgeD0iMjI3NS41IiB5PSI3OS4yMTg4Ij5uYW1lIDogdmFyY2hhcigxMDApPC90ZXh0Pjx0ZXh0IGZpbGw9IiMwMDAwMDAiIGZvbnQtZmFtaWx5PSJzYW5zLXNlcmlmIiBmb250LXNpemU9IjE0IiBsZW5ndGhBZGp1c3Q9InNwYWNpbmciIHRleHRMZW5ndGg9IjMyMiIgeD0iMjI3NS41IiB5PSI5NC4yMDMxIj5yb2xlIDogZW51bShBRE1JTiwgTUFOQUdFUiwgUkVDRVBUSU9OSVNULCAuLi4pPC90ZXh0Pjx0ZXh0IGZpbGw9IiMwMDAwMDAiIGZvbnQtZmFtaWx5PSJzYW5zLXNlcmlmIiBmb250LXNpemU9IjE0IiBsZW5ndGhBZGp1c3Q9InNwYWNpbmciIHRleHRMZW5ndGg9IjEzMyIgeD0iMjI3NS41IiB5PSIxMDkuMTg3NSI+cGhvbmUgOiB2YXJjaGFyKDIwKTwvdGV4dD48dGV4dCBmaWxsPSIjMDAwMDAwIiBmb250LWZhbWlseT0ic2Fucy1zZXJpZiIgZm9udC1zaXplPSIxNCIgbGVuZ3RoQWRqdXN0PSJzcGFjaW5nIiB0ZXh0TGVuZ3RoPSIxOTYiIHg9IjIyNzUuNSIgeT0iMTI0LjE3MTkiPm5pZCA6IHZhcmNoYXIoNTApICYjMTcxO251bGxhYmxlJiMxODc7PC90ZXh0Pjx0ZXh0IGZpbGw9IiMwMDAwMDAiIGZvbnQtZmFtaWx5PSJzYW5zLXNlcmlmIiBmb250LXNpemU9IjE0IiBsZW5ndGhBZGp1c3Q9InNwYWNpbmciIHRleHRMZW5ndGg9IjExMiIgeD0iMjI3NS41IiB5PSIxMzkuMTU2MyI+aGlyZV9kYXRlIDogZGF0ZTwvdGV4dD48dGV4dCBmaWxsPSIjMDAwMDAwIiBmb250LWZhbWlseT0ic2Fucy1zZXJpZiIgZm9udC1zaXplPSIxNCIgbGVuZ3RoQWRqdXN0PSJzcGFjaW5nIiB0ZXh0TGVuZ3RoPSIyODciIHg9IjIyNzUuNSIgeT0iMTU0LjE0MDYiPnN0YXR1cyA6IGVudW0oQUNUSVZFLCBJTkFDVElWRSwgT05fTEVBVkUpPC90ZXh0PjwvZz48IS0tY2xhc3MgbWFuYWdlbWVudC0tPjxnIGNsYXNzPSJlbnRpdHkiIGRhdGEtZW50aXR5PSJtYW5hZ2VtZW50IiBkYXRhLXNvdXJjZS1saW5lPSIxMyIgZGF0YS11aWQ9ImVudDAwMDMiIGlkPSJlbnRpdHlfbWFuYWdlbWVudCI+PHJlY3QgZmlsbD0iI0YxRjFGMSIgaGVpZ2h0PSIxMjIuOTIxOSIgcng9IjIuNSIgcnk9IjIuNSIgc3R5bGU9InN0cm9rZTojMTgxODE4O3N0cm9rZS13aWR0aDowLjU7IiB3aWR0aD0iMjQzIiB4PSIyNjE3IiB5PSIzMTAiLz48ZWxsaXBzZSBjeD0iMjY5OS4yNSIgY3k9IjMyNiIgZmlsbD0iI0MyQzJDMiIgcng9IjExIiByeT0iMTEiIHN0eWxlPSJzdHJva2U6IzE4MTgxODtzdHJva2Utd2lkdGg6MTsiLz48cGF0aCBkPSJNMjcwMi44NzUsMzMyIEwyNzAyLjg3NSwzMzAuMjUgTDI2OTcuNTYyNSwzMzAuMjUgUTI2OTcuNTYyNSwzMzAuMjUgMjY5Ny41NjI1LDMyNi42ODc1IEwyNzAxLjgxMjUsMzI2LjY4NzUgTDI3MDEuODEyNSwzMjQuOTM3NSBMMjY5Ny41NjI1LDMyNC45Mzc1IEwyNjk3LjU2MjUsMzIyLjQzNzUgTDI3MDIuODc1LDMyMi40Mzc1IEwyNzAyLjg3NSwzMjAuNjg3NSBMMjY5NS44MTI1LDMyMC42ODc1IFEyNjk1LjgxMjUsMzIwLjY4NzUgMjY5NS44MTI1LDMzMiBMMjcwMi44NzUsMzMyIFogIiBmaWxsPSIjMDAwMDAwIi8+PHRleHQgZmlsbD0iIzAwMDAwMCIgZm9udC1mYW1pbHk9InNhbnMtc2VyaWYiIGZvbnQtc2l6ZT0iMTQiIGxlbmd0aEFkanVzdD0ic3BhY2luZyIgdGV4dExlbmd0aD0iNzAiIHg9IjI3MTkuNzUiIHk9IjMzMS43NDIyIj5NYW5hZ2VtZW50PC90ZXh0PjxsaW5lIHN0eWxlPSJzdHJva2U6IzE4MTgxODtzdHJva2Utd2lkdGg6MC41OyIgeDE9IjI2MTgiIHgyPSIyODU5IiB5MT0iMzQyIiB5Mj0iMzQyIi8+PGVsbGlwc2UgY3g9IjI2MjgiIGN5PSIzNTQuOTkyMiIgZmlsbD0iIzAwMDAwMCIgcng9IjMiIHJ5PSIzIiBzdHlsZT0ic3Ryb2tlOiMwMDAwMDA7c3Ryb2tlLXdpZHRoOjE7Ii8+PHRleHQgZmlsbD0iIzAwMDAwMCIgZm9udC1mYW1pbHk9InNhbnMtc2VyaWYiIGZvbnQtc2l6ZT0iMTQiIGxlbmd0aEFkanVzdD0ic3BhY2luZyIgdGV4dExlbmd0aD0iMTg5IiB4PSIyNjM3IiB5PSIzNTkuMjM0NCI+bWFuYWdlbWVudF9pZCA6IG51bWJlciAmIzE3MTtQSyYjMTg3OzwvdGV4dD48bGluZSBzdHlsZT0ic3Ryb2tlOiMxODE4MTg7c3Ryb2tlLXdpZHRoOjE7IiB4MT0iMjYxOCIgeDI9IjI4NTkiIHkxPSIzNjQuOTg0NCIgeTI9IjM2NC45ODQ0Ii8+PHRleHQgZmlsbD0iIzAwMDAwMCIgZm9udC1mYW1pbHk9InNhbnMtc2VyaWYiIGZvbnQtc2l6ZT0iMTQiIGxlbmd0aEFkanVzdD0ic3BhY2luZyIgdGV4dExlbmd0aD0iMjAzIiB4PSIyNjIzIiB5PSIzODIuMjE4OCI+ZW1haWwgOiB2YXJjaGFyKDEwMCkgJiMxNzE7dW5pcXVlJiMxODc7PC90ZXh0Pjx0ZXh0IGZpbGw9IiMwMDAwMDAiIGZvbnQtZmFtaWx5PSJzYW5zLXNlcmlmIiBmb250LXNpemU9IjE0IiBsZW5ndGhBZGp1c3Q9InNwYWNpbmciIHRleHRMZW5ndGg9IjE2MSIgeD0iMjYyMyIgeT0iMzk3LjIwMzEiPnBhc3N3b3JkIDogdmFyY2hhcigyNTUpPC90ZXh0Pjx0ZXh0IGZpbGw9IiMwMDAwMDAiIGZvbnQtZmFtaWx5PSJzYW5zLXNlcmlmIiBmb250LXNpemU9IjE0IiBsZW5ndGhBZGp1c3Q9InNwYWNpbmciIHRleHRMZW5ndGg9IjIzMSIgeD0iMjYyMyIgeT0iNDEyLjE4NzUiPmxhc3RfbG9naW4gOiB0aW1lc3RhbXAgJiMxNzE7bnVsbGFibGUmIzE4Nzs8L3RleHQ+PHRleHQgZmlsbD0iIzAwMDAwMCIgZm9udC1mYW1pbHk9InNhbnMtc2VyaWYiIGZvbnQtc2l6ZT0iMTQiIGxlbmd0aEFkanVzdD0ic3BhY2luZyIgdGV4dExlbmd0aD0iMTc1IiB4PSIyNjIzIiB5PSI0MjcuMTcxOSI+ZW1wbG95ZWVfaWQgOiBudW1iZXIgJiMxNzE7RksmIzE4Nzs8L3RleHQ+PC9nPjwhLS1jbGFzcyB1c2VyLS0+PGcgY2xhc3M9ImVudGl0eSIgZGF0YS1lbnRpdHk9InVzZXIiIGRhdGEtc291cmNlLWxpbmU9IjIyIiBkYXRhLXVpZD0iZW50MDAwNCIgaWQ9ImVudGl0eV91c2VyIj48cmVjdCBmaWxsPSIjRjFGMUYxIiBoZWlnaHQ9IjE1Mi44OTA2IiByeD0iMi41IiByeT0iMi41IiBzdHlsZT0ic3Ryb2tlOiMxODE4MTg7c3Ryb2tlLXdpZHRoOjAuNTsiIHdpZHRoPSIyMTUiIHg9IjQ0OCIgeT0iNyIvPjxlbGxpcHNlIGN4PSI1MzcuMjUiIGN5PSIyMyIgZmlsbD0iI0MyQzJDMiIgcng9IjExIiByeT0iMTEiIHN0eWxlPSJzdHJva2U6IzE4MTgxODtzdHJva2Utd2lkdGg6MTsiLz48cGF0aCBkPSJNNTQwLjg3NSwyOSBMNTQwLjg3NSwyNy4yNSBMNTM1LjU2MjUsMjcuMjUgUTUzNS41NjI1LDI3LjI1IDUzNS41NjI1LDIzLjY4NzUgTDUzOS44MTI1LDIzLjY4NzUgTDUzOS44MTI1LDIxLjkzNzUgTDUzNS41NjI1LDIxLjkzNzUgTDUzNS41NjI1LDE5LjQzNzUgTDU0MC44NzUsMTkuNDM3NSBMNTQwLjg3NSwxNy42ODc1IEw1MzMuODEyNSwxNy42ODc1IFE1MzMuODEyNSwxNy42ODc1IDUzMy44MTI1LDI5IEw1NDAuODc1LDI5IFogIiBmaWxsPSIjMDAwMDAwIi8+PHRleHQgZmlsbD0iIzAwMDAwMCIgZm9udC1mYW1pbHk9InNhbnMtc2VyaWYiIGZvbnQtc2l6ZT0iMTQiIGxlbmd0aEFkanVzdD0ic3BhY2luZyIgdGV4dExlbmd0aD0iMjgiIHg9IjU1Ny43NSIgeT0iMjguNzQyMiI+VXNlcjwvdGV4dD48bGluZSBzdHlsZT0ic3Ryb2tlOiMxODE4MTg7c3Ryb2tlLXdpZHRoOjAuNTsiIHgxPSI0NDkiIHgyPSI2NjIiIHkxPSIzOSIgeTI9IjM5Ii8+PGVsbGlwc2UgY3g9IjQ1OSIgY3k9IjUxLjk5MjIiIGZpbGw9IiMwMDAwMDAiIHJ4PSIzIiByeT0iMyIgc3R5bGU9InN0cm9rZTojMDAwMDAwO3N0cm9rZS13aWR0aDoxOyIvPjx0ZXh0IGZpbGw9IiMwMDAwMDAiIGZvbnQtZmFtaWx5PSJzYW5zLXNlcmlmIiBmb250LXNpemU9IjE0IiBsZW5ndGhBZGp1c3Q9InNwYWNpbmciIHRleHRMZW5ndGg9IjE0NyIgeD0iNDY4IiB5PSI1Ni4yMzQ0Ij51c2VyX2lkIDogbnVtYmVyICYjMTcxO1BLJiMxODc7PC90ZXh0PjxsaW5lIHN0eWxlPSJzdHJva2U6IzE4MTgxODtzdHJva2Utd2lkdGg6MTsiIHgxPSI0NDkiIHgyPSI2NjIiIHkxPSI2MS45ODQ0IiB5Mj0iNjEuOTg0NCIvPjx0ZXh0IGZpbGw9IiMwMDAwMDAiIGZvbnQtZmFtaWx5PSJzYW5zLXNlcmlmIiBmb250LXNpemU9IjE0IiBsZW5ndGhBZGp1c3Q9InNwYWNpbmciIHRleHRMZW5ndGg9IjEzMyIgeD0iNDU0IiB5PSI3OS4yMTg4Ij5uYW1lIDogdmFyY2hhcigxMDApPC90ZXh0Pjx0ZXh0IGZpbGw9IiMwMDAwMDAiIGZvbnQtZmFtaWx5PSJzYW5zLXNlcmlmIiBmb250LXNpemU9IjE0IiBsZW5ndGhBZGp1c3Q9InNwYWNpbmciIHRleHRMZW5ndGg9IjIwMyIgeD0iNDU0IiB5PSI5NC4yMDMxIj5lbWFpbCA6IHZhcmNoYXIoMTAwKSAmIzE3MTt1bmlxdWUmIzE4Nzs8L3RleHQ+PHRleHQgZmlsbD0iIzAwMDAwMCIgZm9udC1mYW1pbHk9InNhbnMtc2VyaWYiIGZvbnQtc2l6ZT0iMTQiIGxlbmd0aEFkanVzdD0ic3BhY2luZyIgdGV4dExlbmd0aD0iMTYxIiB4PSI0NTQiIHk9IjEwOS4xODc1Ij5wYXNzd29yZCA6IHZhcmNoYXIoMjU1KTwvdGV4dD48dGV4dCBmaWxsPSIjMDAwMDAwIiBmb250LWZhbWlseT0ic2Fucy1zZXJpZiIgZm9udC1zaXplPSIxNCIgbGVuZ3RoQWRqdXN0PSJzcGFjaW5nIiB0ZXh0TGVuZ3RoPSIxMzMiIHg9IjQ1NCIgeT0iMTI0LjE3MTkiPnBob25lIDogdmFyY2hhcigyMCk8L3RleHQ+PHRleHQgZmlsbD0iIzAwMDAwMCIgZm9udC1mYW1pbHk9InNhbnMtc2VyaWYiIGZvbnQtc2l6ZT0iMTQiIGxlbmd0aEFkanVzdD0ic3BhY2luZyIgdGV4dExlbmd0aD0iMTc1IiB4PSI0NTQiIHk9IjEzOS4xNTYzIj5hZGRyZXNzIDogdGV4dCAmIzE3MTtudWxsYWJsZSYjMTg3OzwvdGV4dD48dGV4dCBmaWxsPSIjMDAwMDAwIiBmb250LWZhbWlseT0ic2Fucy1zZXJpZiIgZm9udC1zaXplPSIxNCIgbGVuZ3RoQWRqdXN0PSJzcGFjaW5nIiB0ZXh0TGVuZ3RoPSIxOTYiIHg9IjQ1NCIgeT0iMTU0LjE0MDYiPm5pZCA6IHZhcmNoYXIoNTApICYjMTcxO251bGxhYmxlJiMxODc7PC90ZXh0PjwvZz48IS0tY2xhc3MgZmVlZGJhY2stLT48ZyBjbGFzcz0iZW50aXR5IiBkYXRhLWVudGl0eT0iZmVlZGJhY2siIGRhdGEtc291cmNlLWxpbmU9IjMzIiBkYXRhLXVpZD0iZW50MDAwNSIgaWQ9ImVudGl0eV9mZWVkYmFjayI+PHJlY3QgZmlsbD0iI0YxRjFGMSIgaGVpZ2h0PSIxMDcuOTM3NSIgcng9IjIuNSIgcnk9IjIuNSIgc3R5bGU9InN0cm9rZTojMTgxODE4O3N0cm9rZS13aWR0aDowLjU7IiB3aWR0aD0iMjAxIiB4PSI3IiB5PSIzMTcuNSIvPjxlbGxpcHNlIGN4PSI3NS4yNSIgY3k9IjMzMy41IiBmaWxsPSIjQzJDMkMyIiByeD0iMTEiIHJ5PSIxMSIgc3R5bGU9InN0cm9rZTojMTgxODE4O3N0cm9rZS13aWR0aDoxOyIvPjxwYXRoIGQ9Ik03OC44NzUsMzM5LjUgTDc4Ljg3NSwzMzcuNzUgTDczLjU2MjUsMzM3Ljc1IFE3My41NjI1LDMzNy43NSA3My41NjI1LDMzNC4xODc1IEw3Ny44MTI1LDMzNC4xODc1IEw3Ny44MTI1LDMzMi40Mzc1IEw3My41NjI1LDMzMi40Mzc1IEw3My41NjI1LDMyOS45Mzc1IEw3OC44NzUsMzI5LjkzNzUgTDc4Ljg3NSwzMjguMTg3NSBMNzEuODEyNSwzMjguMTg3NSBRNzEuODEyNSwzMjguMTg3NSA3MS44MTI1LDMzOS41IEw3OC44NzUsMzM5LjUgWiAiIGZpbGw9IiMwMDAwMDAiLz48dGV4dCBmaWxsPSIjMDAwMDAwIiBmb250LWZhbWlseT0ic2Fucy1zZXJpZiIgZm9udC1zaXplPSIxNCIgbGVuZ3RoQWRqdXN0PSJzcGFjaW5nIiB0ZXh0TGVuZ3RoPSI1NiIgeD0iOTUuNzUiIHk9IjMzOS4yNDIyIj5GZWVkYmFjazwvdGV4dD48bGluZSBzdHlsZT0ic3Ryb2tlOiMxODE4MTg7c3Ryb2tlLXdpZHRoOjAuNTsiIHgxPSI4IiB4Mj0iMjA3IiB5MT0iMzQ5LjUiIHkyPSIzNDkuNSIvPjxlbGxpcHNlIGN4PSIxOCIgY3k9IjM2Mi40OTIyIiBmaWxsPSIjMDAwMDAwIiByeD0iMyIgcnk9IjMiIHN0eWxlPSJzdHJva2U6IzAwMDAwMDtzdHJva2Utd2lkdGg6MTsiLz48dGV4dCBmaWxsPSIjMDAwMDAwIiBmb250LWZhbWlseT0ic2Fucy1zZXJpZiIgZm9udC1zaXplPSIxNCIgbGVuZ3RoQWRqdXN0PSJzcGFjaW5nIiB0ZXh0TGVuZ3RoPSIxNzUiIHg9IjI3IiB5PSIzNjYuNzM0NCI+ZmVlZGJhY2tfaWQgOiBudW1iZXIgJiMxNzE7UEsmIzE4Nzs8L3RleHQ+PGxpbmUgc3R5bGU9InN0cm9rZTojMTgxODE4O3N0cm9rZS13aWR0aDoxOyIgeDE9IjgiIHgyPSIyMDciIHkxPSIzNzIuNDg0NCIgeTI9IjM3Mi40ODQ0Ii8+PHRleHQgZmlsbD0iIzAwMDAwMCIgZm9udC1mYW1pbHk9InNhbnMtc2VyaWYiIGZvbnQtc2l6ZT0iMTQiIGxlbmd0aEFkanVzdD0ic3BhY2luZyIgdGV4dExlbmd0aD0iMTA1IiB4PSIxMyIgeT0iMzg5LjcxODgiPmZlZWRiYWNrIDogdGV4dDwvdGV4dD48dGV4dCBmaWxsPSIjMDAwMDAwIiBmb250LWZhbWlseT0ic2Fucy1zZXJpZiIgZm9udC1zaXplPSIxNCIgbGVuZ3RoQWRqdXN0PSJzcGFjaW5nIiB0ZXh0TGVuZ3RoPSIxMTIiIHg9IjEzIiB5PSI0MDQuNzAzMSI+ZGF0ZSA6IHRpbWVzdGFtcDwvdGV4dD48dGV4dCBmaWxsPSIjMDAwMDAwIiBmb250LWZhbWlseT0ic2Fucy1zZXJpZiIgZm9udC1zaXplPSIxNCIgbGVuZ3RoQWRqdXN0PSJzcGFjaW5nIiB0ZXh0TGVuZ3RoPSIxNDciIHg9IjEzIiB5PSI0MTkuNjg3NSI+dXNlcl9pZCA6IG51bWJlciAmIzE3MTtGSyYjMTg3OzwvdGV4dD48L2c+PCEtLWNsYXNzIHJlc2VydmF0aW9uLS0+PGcgY2xhc3M9ImVudGl0eSIgZGF0YS1lbnRpdHk9InJlc2VydmF0aW9uIiBkYXRhLXNvdXJjZS1saW5lPSI0MSIgZGF0YS11aWQ9ImVudDAwMDYiIGlkPSJlbnRpdHlfcmVzZXJ2YXRpb24iPjxyZWN0IGZpbGw9IiNGMUYxRjEiIGhlaWdodD0iMTgyLjg1OTQiIHJ4PSIyLjUiIHJ5PSIyLjUiIHN0eWxlPSJzdHJva2U6IzE4MTgxODtzdHJva2Utd2lkdGg6MC41OyIgd2lkdGg9IjI1NyIgeD0iNDI3IiB5PSIyODAiLz48ZWxsaXBzZSBjeD0iNTEyLjc1IiBjeT0iMjk2IiBmaWxsPSIjQzJDMkMyIiByeD0iMTEiIHJ5PSIxMSIgc3R5bGU9InN0cm9rZTojMTgxODE4O3N0cm9rZS13aWR0aDoxOyIvPjxwYXRoIGQ9Ik01MTYuMzc1LDMwMiBMNTE2LjM3NSwzMDAuMjUgTDUxMS4wNjI1LDMwMC4yNSBRNTExLjA2MjUsMzAwLjI1IDUxMS4wNjI1LDI5Ni42ODc1IEw1MTUuMzEyNSwyOTYuNjg3NSBMNTE1LjMxMjUsMjk0LjkzNzUgTDUxMS4wNjI1LDI5NC45Mzc1IEw1MTEuMDYyNSwyOTIuNDM3NSBMNTE2LjM3NSwyOTIuNDM3NSBMNTE2LjM3NSwyOTAuNjg3NSBMNTA5LjMxMjUsMjkwLjY4NzUgUTUwOS4zMTI1LDI5MC42ODc1IDUwOS4zMTI1LDMwMiBMNTE2LjM3NSwzMDIgWiAiIGZpbGw9IiMwMDAwMDAiLz48dGV4dCBmaWxsPSIjMDAwMDAwIiBmb250LWZhbWlseT0ic2Fucy1zZXJpZiIgZm9udC1zaXplPSIxNCIgbGVuZ3RoQWRqdXN0PSJzcGFjaW5nIiB0ZXh0TGVuZ3RoPSI3NyIgeD0iNTMzLjI1IiB5PSIzMDEuNzQyMiI+UmVzZXJ2YXRpb248L3RleHQ+PGxpbmUgc3R5bGU9InN0cm9rZTojMTgxODE4O3N0cm9rZS13aWR0aDowLjU7IiB4MT0iNDI4IiB4Mj0iNjgzIiB5MT0iMzEyIiB5Mj0iMzEyIi8+PGVsbGlwc2UgY3g9IjQzOCIgY3k9IjMyNC45OTIyIiBmaWxsPSIjMDAwMDAwIiByeD0iMyIgcnk9IjMiIHN0eWxlPSJzdHJva2U6IzAwMDAwMDtzdHJva2Utd2lkdGg6MTsiLz48dGV4dCBmaWxsPSIjMDAwMDAwIiBmb250LWZhbWlseT0ic2Fucy1zZXJpZiIgZm9udC1zaXplPSIxNCIgbGVuZ3RoQWRqdXN0PSJzcGFjaW5nIiB0ZXh0TGVuZ3RoPSIxOTYiIHg9IjQ0NyIgeT0iMzI5LjIzNDQiPnJlc2VydmF0aW9uX2lkIDogbnVtYmVyICYjMTcxO1BLJiMxODc7PC90ZXh0PjxsaW5lIHN0eWxlPSJzdHJva2U6IzE4MTgxODtzdHJva2Utd2lkdGg6MTsiIHgxPSI0MjgiIHgyPSI2ODMiIHkxPSIzMzQuOTg0NCIgeTI9IjMzNC45ODQ0Ii8+PHRleHQgZmlsbD0iIzAwMDAwMCIgZm9udC1mYW1pbHk9InNhbnMtc2VyaWYiIGZvbnQtc2l6ZT0iMTQiIGxlbmd0aEFkanVzdD0ic3BhY2luZyIgdGV4dExlbmd0aD0iMTMzIiB4PSI0MzMiIHk9IjM1Mi4yMTg4Ij5jaGVja2luX2RhdGUgOiBkYXRlPC90ZXh0Pjx0ZXh0IGZpbGw9IiMwMDAwMDAiIGZvbnQtZmFtaWx5PSJzYW5zLXNlcmlmIiBmb250LXNpemU9IjE0IiBsZW5ndGhBZGp1c3Q9InNwYWNpbmciIHRleHRMZW5ndGg9IjE0MCIgeD0iNDMzIiB5PSIzNjcuMjAzMSI+Y2hlY2tvdXRfZGF0ZSA6IGRhdGU8L3RleHQ+PHRleHQgZmlsbD0iIzAwMDAwMCIgZm9udC1mYW1pbHk9InNhbnMtc2VyaWYiIGZvbnQtc2l6ZT0iMTQiIGxlbmd0aEFkanVzdD0ic3BhY2luZyIgdGV4dExlbmd0aD0iMTc1IiB4PSI0MzMiIHk9IjM4Mi4xODc1Ij5udW1iZXJfb2ZfZ3Vlc3RzIDogbnVtYmVyPC90ZXh0Pjx0ZXh0IGZpbGw9IiMwMDAwMDAiIGZvbnQtZmFtaWx5PSJzYW5zLXNlcmlmIiBmb250LXNpemU9IjE0IiBsZW5ndGhBZGp1c3Q9InNwYWNpbmciIHRleHRMZW5ndGg9IjE4MiIgeD0iNDMzIiB5PSIzOTcuMTcxOSI+cm9vbV9wcmljZSA6IGRlY2ltYWwoMTAsMik8L3RleHQ+PHRleHQgZmlsbD0iIzAwMDAwMCIgZm9udC1mYW1pbHk9InNhbnMtc2VyaWYiIGZvbnQtc2l6ZT0iMTQiIGxlbmd0aEFkanVzdD0ic3BhY2luZyIgdGV4dExlbmd0aD0iMTY4IiB4PSI0MzMiIHk9IjQxMi4xNTYzIj5ib29raW5nX2RhdGUgOiB0aW1lc3RhbXA8L3RleHQ+PHRleHQgZmlsbD0iIzAwMDAwMCIgZm9udC1mYW1pbHk9InNhbnMtc2VyaWYiIGZvbnQtc2l6ZT0iMTQiIGxlbmd0aEFkanVzdD0ic3BhY2luZyIgdGV4dExlbmd0aD0iMjQ1IiB4PSI0MzMiIHk9IjQyNy4xNDA2Ij50eXBlT2ZCb29raW5nIDogZW51bShXRUJTSVRFLCBTRUxGKTwvdGV4dD48dGV4dCBmaWxsPSIjMDAwMDAwIiBmb250LWZhbWlseT0ic2Fucy1zZXJpZiIgZm9udC1zaXplPSIxNCIgbGVuZ3RoQWRqdXN0PSJzcGFjaW5nIiB0ZXh0TGVuZ3RoPSIxNDciIHg9IjQzMyIgeT0iNDQyLjEyNSI+dXNlcl9pZCA6IG51bWJlciAmIzE3MTtGSyYjMTg3OzwvdGV4dD48dGV4dCBmaWxsPSIjMDAwMDAwIiBmb250LWZhbWlseT0ic2Fucy1zZXJpZiIgZm9udC1zaXplPSIxNCIgbGVuZ3RoQWRqdXN0PSJzcGFjaW5nIiB0ZXh0TGVuZ3RoPSIxNTQiIHg9IjQzMyIgeT0iNDU3LjEwOTQiPnJvb21fbnVtIDogbnVtYmVyICYjMTcxO0ZLJiMxODc7PC90ZXh0PjwvZz48IS0tY2xhc3MgYm9va2luZy0tPjxnIGNsYXNzPSJlbnRpdHkiIGRhdGEtZW50aXR5PSJib29raW5nIiBkYXRhLXNvdXJjZS1saW5lPSI1NCIgZGF0YS11aWQ9ImVudDAwMDciIGlkPSJlbnRpdHlfYm9va2luZyI+PHJlY3QgZmlsbD0iI0YxRjFGMSIgaGVpZ2h0PSIyNzIuNzY1NiIgcng9IjIuNSIgcnk9IjIuNSIgc3R5bGU9InN0cm9rZTojMTgxODE4O3N0cm9rZS13aWR0aDowLjU7IiB3aWR0aD0iMzI3IiB4PSI5ODMiIHk9IjIzNSIvPjxlbGxpcHNlIGN4PSIxMTE3Ljc1IiBjeT0iMjUxIiBmaWxsPSIjQzJDMkMyIiByeD0iMTEiIHJ5PSIxMSIgc3R5bGU9InN0cm9rZTojMTgxODE4O3N0cm9rZS13aWR0aDoxOyIvPjxwYXRoIGQ9Ik0xMTIxLjM3NSwyNTcgTDExMjEuMzc1LDI1NS4yNSBMMTExNi4wNjI1LDI1NS4yNSBRMTExNi4wNjI1LDI1NS4yNSAxMTE2LjA2MjUsMjUxLjY4NzUgTDExMjAuMzEyNSwyNTEuNjg3NSBMMTEyMC4zMTI1LDI0OS45Mzc1IEwxMTE2LjA2MjUsMjQ5LjkzNzUgTDExMTYuMDYyNSwyNDcuNDM3NSBMMTEyMS4zNzUsMjQ3LjQzNzUgTDExMjEuMzc1LDI0NS42ODc1IEwxMTE0LjMxMjUsMjQ1LjY4NzUgUTExMTQuMzEyNSwyNDUuNjg3NSAxMTE0LjMxMjUsMjU3IEwxMTIxLjM3NSwyNTcgWiAiIGZpbGw9IiMwMDAwMDAiLz48dGV4dCBmaWxsPSIjMDAwMDAwIiBmb250LWZhbWlseT0ic2Fucy1zZXJpZiIgZm9udC1zaXplPSIxNCIgbGVuZ3RoQWRqdXN0PSJzcGFjaW5nIiB0ZXh0TGVuZ3RoPSI0OSIgeD0iMTEzOC4yNSIgeT0iMjU2Ljc0MjIiPkJvb2tpbmc8L3RleHQ+PGxpbmUgc3R5bGU9InN0cm9rZTojMTgxODE4O3N0cm9rZS13aWR0aDowLjU7IiB4MT0iOTg0IiB4Mj0iMTMwOSIgeTE9IjI2NyIgeTI9IjI2NyIvPjxlbGxpcHNlIGN4PSI5OTQiIGN5PSIyNzkuOTkyMiIgZmlsbD0iIzAwMDAwMCIgcng9IjMiIHJ5PSIzIiBzdHlsZT0ic3Ryb2tlOiMwMDAwMDA7c3Ryb2tlLXdpZHRoOjE7Ii8+PHRleHQgZmlsbD0iIzAwMDAwMCIgZm9udC1mYW1pbHk9InNhbnMtc2VyaWYiIGZvbnQtc2l6ZT0iMTQiIGxlbmd0aEFkanVzdD0ic3BhY2luZyIgdGV4dExlbmd0aD0iMTY4IiB4PSIxMDAzIiB5PSIyODQuMjM0NCI+Ym9va2luZ19pZCA6IG51bWJlciAmIzE3MTtQSyYjMTg3OzwvdGV4dD48bGluZSBzdHlsZT0ic3Ryb2tlOiMxODE4MTg7c3Ryb2tlLXdpZHRoOjE7IiB4MT0iOTg0IiB4Mj0iMTMwOSIgeTE9IjI4OS45ODQ0IiB5Mj0iMjg5Ljk4NDQiLz48dGV4dCBmaWxsPSIjMDAwMDAwIiBmb250LWZhbWlseT0ic2Fucy1zZXJpZiIgZm9udC1zaXplPSIxNCIgbGVuZ3RoQWRqdXN0PSJzcGFjaW5nIiB0ZXh0TGVuZ3RoPSIxMzMiIHg9Ijk4OSIgeT0iMzA3LjIxODgiPmNoZWNraW5fZGF0ZSA6IGRhdGU8L3RleHQ+PHRleHQgZmlsbD0iIzAwMDAwMCIgZm9udC1mYW1pbHk9InNhbnMtc2VyaWYiIGZvbnQtc2l6ZT0iMTQiIGxlbmd0aEFkanVzdD0ic3BhY2luZyIgdGV4dExlbmd0aD0iMTQwIiB4PSI5ODkiIHk9IjMyMi4yMDMxIj5jaGVja291dF9kYXRlIDogZGF0ZTwvdGV4dD48dGV4dCBmaWxsPSIjMDAwMDAwIiBmb250LWZhbWlseT0ic2Fucy1zZXJpZiIgZm9udC1zaXplPSIxNCIgbGVuZ3RoQWRqdXN0PSJzcGFjaW5nIiB0ZXh0TGVuZ3RoPSIxNzUiIHg9Ijk4OSIgeT0iMzM3LjE4NzUiPm51bWJlcl9vZl9ndWVzdHMgOiBudW1iZXI8L3RleHQ+PHRleHQgZmlsbD0iIzAwMDAwMCIgZm9udC1mYW1pbHk9InNhbnMtc2VyaWYiIGZvbnQtc2l6ZT0iMTQiIGxlbmd0aEFkanVzdD0ic3BhY2luZyIgdGV4dExlbmd0aD0iMTgyIiB4PSI5ODkiIHk9IjM1Mi4xNzE5Ij5yb29tX3ByaWNlIDogZGVjaW1hbCgxMCwyKTwvdGV4dD48dGV4dCBmaWxsPSIjMDAwMDAwIiBmb250LWZhbWlseT0ic2Fucy1zZXJpZiIgZm9udC1zaXplPSIxNCIgbGVuZ3RoQWRqdXN0PSJzcGFjaW5nIiB0ZXh0TGVuZ3RoPSIyODAiIHg9Ijk4OSIgeT0iMzY3LjE1NjMiPmNvdXBvbl9wZXJjZW50IDogZGVjaW1hbCg1LDIpICYjMTcxO251bGxhYmxlJiMxODc7PC90ZXh0Pjx0ZXh0IGZpbGw9IiMwMDAwMDAiIGZvbnQtZmFtaWx5PSJzYW5zLXNlcmlmIiBmb250LXNpemU9IjE0IiBsZW5ndGhBZGp1c3Q9InNwYWNpbmciIHRleHRMZW5ndGg9IjE4OSIgeD0iOTg5IiB5PSIzODIuMTQwNiI+dG90YWxfcHJpY2UgOiBkZWNpbWFsKDEwLDIpPC90ZXh0Pjx0ZXh0IGZpbGw9IiMwMDAwMDAiIGZvbnQtZmFtaWx5PSJzYW5zLXNlcmlmIiBmb250LXNpemU9IjE0IiBsZW5ndGhBZGp1c3Q9InNwYWNpbmciIHRleHRMZW5ndGg9IjMxNSIgeD0iOTg5IiB5PSIzOTcuMTI1Ij5wYXltZW50X3N0YXR1cyA6IGVudW0oUEVORElORywgUEFSVElBTCwgUEFJRCk8L3RleHQ+PHRleHQgZmlsbD0iIzAwMDAwMCIgZm9udC1mYW1pbHk9InNhbnMtc2VyaWYiIGZvbnQtc2l6ZT0iMTQiIGxlbmd0aEFkanVzdD0ic3BhY2luZyIgdGV4dExlbmd0aD0iMTY4IiB4PSI5ODkiIHk9IjQxMi4xMDk0Ij5ib29raW5nX2RhdGUgOiB0aW1lc3RhbXA8L3RleHQ+PHRleHQgZmlsbD0iIzAwMDAwMCIgZm9udC1mYW1pbHk9InNhbnMtc2VyaWYiIGZvbnQtc2l6ZT0iMTQiIGxlbmd0aEFkanVzdD0ic3BhY2luZyIgdGV4dExlbmd0aD0iMjQ1IiB4PSI5ODkiIHk9IjQyNy4wOTM4Ij50eXBlT2ZCb29raW5nIDogZW51bShXRUJTSVRFLCBTRUxGKTwvdGV4dD48dGV4dCBmaWxsPSIjMDAwMDAwIiBmb250LWZhbWlseT0ic2Fucy1zZXJpZiIgZm9udC1zaXplPSIxNCIgbGVuZ3RoQWRqdXN0PSJzcGFjaW5nIiB0ZXh0TGVuZ3RoPSIxNjEiIHg9Ijk4OSIgeT0iNDQyLjA3ODEiPnNlcnZpY2VfYXNrZWQgOiBib29sZWFuPC90ZXh0Pjx0ZXh0IGZpbGw9IiMwMDAwMDAiIGZvbnQtZmFtaWx5PSJzYW5zLXNlcmlmIiBmb250LXNpemU9IjE0IiBsZW5ndGhBZGp1c3Q9InNwYWNpbmciIHRleHRMZW5ndGg9IjE1NCIgeD0iOTg5IiB5PSI0NTcuMDYyNSI+cm9vbV9udW0gOiBudW1iZXIgJiMxNzE7RksmIzE4Nzs8L3RleHQ+PHRleHQgZmlsbD0iIzAwMDAwMCIgZm9udC1mYW1pbHk9InNhbnMtc2VyaWYiIGZvbnQtc2l6ZT0iMTQiIGxlbmd0aEFkanVzdD0ic3BhY2luZyIgdGV4dExlbmd0aD0iMTQ3IiB4PSI5ODkiIHk9IjQ3Mi4wNDY5Ij51c2VyX2lkIDogbnVtYmVyICYjMTcxO0ZLJiMxODc7PC90ZXh0Pjx0ZXh0IGZpbGw9IiMwMDAwMDAiIGZvbnQtZmFtaWx5PSJzYW5zLXNlcmlmIiBmb250LXNpemU9IjE0IiBsZW5ndGhBZGp1c3Q9InNwYWNpbmciIHRleHRMZW5ndGg9IjIzOCIgeD0iOTg5IiB5PSI0ODcuMDMxMyI+Y291cG9uX2lkIDogbnVtYmVyICYjMTcxO0ZLJiMxODc7ICYjMTcxO251bGxhYmxlJiMxODc7PC90ZXh0Pjx0ZXh0IGZpbGw9IiMwMDAwMDAiIGZvbnQtZmFtaWx5PSJzYW5zLXNlcmlmIiBmb250LXNpemU9IjE0IiBsZW5ndGhBZGp1c3Q9InNwYWNpbmciIHRleHRMZW5ndGg9IjI1MiIgeD0iOTg5IiB5PSI1MDIuMDE1NiI+ZW1wbG95ZWVfaWQgOiBudW1iZXIgJiMxNzE7RksmIzE4NzsgJiMxNzE7bnVsbGFibGUmIzE4Nzs8L3RleHQ+PC9nPjwhLS1jbGFzcyBhY2NvdW50cy0tPjxnIGNsYXNzPSJlbnRpdHkiIGRhdGEtZW50aXR5PSJhY2NvdW50cyIgZGF0YS1zb3VyY2UtbGluZT0iNzMiIGRhdGEtdWlkPSJlbnQwMDA4IiBpZD0iZW50aXR5X2FjY291bnRzIj48cmVjdCBmaWxsPSIjRjFGMUYxIiBoZWlnaHQ9IjE2Ny44NzUiIHJ4PSIyLjUiIHJ5PSIyLjUiIHN0eWxlPSJzdHJva2U6IzE4MTgxODtzdHJva2Utd2lkdGg6MC41OyIgd2lkdGg9IjI5MiIgeD0iMTAwMC41IiB5PSI1OTAuNSIvPjxlbGxpcHNlIGN4PSIxMTE0LjI1IiBjeT0iNjA2LjUiIGZpbGw9IiNDMkMyQzIiIHJ4PSIxMSIgcnk9IjExIiBzdHlsZT0ic3Ryb2tlOiMxODE4MTg7c3Ryb2tlLXdpZHRoOjE7Ii8+PHBhdGggZD0iTTExMTcuODc1LDYxMi41IEwxMTE3Ljg3NSw2MTAuNzUgTDExMTIuNTYyNSw2MTAuNzUgUTExMTIuNTYyNSw2MTAuNzUgMTExMi41NjI1LDYwNy4xODc1IEwxMTE2LjgxMjUsNjA3LjE4NzUgTDExMTYuODEyNSw2MDUuNDM3NSBMMTExMi41NjI1LDYwNS40Mzc1IEwxMTEyLjU2MjUsNjAyLjkzNzUgTDExMTcuODc1LDYwMi45Mzc1IEwxMTE3Ljg3NSw2MDEuMTg3NSBMMTExMC44MTI1LDYwMS4xODc1IFExMTEwLjgxMjUsNjAxLjE4NzUgMTExMC44MTI1LDYxMi41IEwxMTE3Ljg3NSw2MTIuNSBaICIgZmlsbD0iIzAwMDAwMCIvPjx0ZXh0IGZpbGw9IiMwMDAwMDAiIGZvbnQtZmFtaWx5PSJzYW5zLXNlcmlmIiBmb250LXNpemU9IjE0IiBsZW5ndGhBZGp1c3Q9InNwYWNpbmciIHRleHRMZW5ndGg9IjU2IiB4PSIxMTM0Ljc1IiB5PSI2MTIuMjQyMiI+QWNjb3VudHM8L3RleHQ+PGxpbmUgc3R5bGU9InN0cm9rZTojMTgxODE4O3N0cm9rZS13aWR0aDowLjU7IiB4MT0iMTAwMS41IiB4Mj0iMTI5MS41IiB5MT0iNjIyLjUiIHkyPSI2MjIuNSIvPjxlbGxpcHNlIGN4PSIxMDExLjUiIGN5PSI2MzUuNDkyMiIgZmlsbD0iIzAwMDAwMCIgcng9IjMiIHJ5PSIzIiBzdHlsZT0ic3Ryb2tlOiMwMDAwMDA7c3Ryb2tlLXdpZHRoOjE7Ii8+PHRleHQgZmlsbD0iIzAwMDAwMCIgZm9udC1mYW1pbHk9InNhbnMtc2VyaWYiIGZvbnQtc2l6ZT0iMTQiIGxlbmd0aEFkanVzdD0ic3BhY2luZyIgdGV4dExlbmd0aD0iMTY4IiB4PSIxMDIwLjUiIHk9IjYzOS43MzQ0Ij5wYXltZW50X2lkIDogbnVtYmVyICYjMTcxO1BLJiMxODc7PC90ZXh0PjxsaW5lIHN0eWxlPSJzdHJva2U6IzE4MTgxODtzdHJva2Utd2lkdGg6MTsiIHgxPSIxMDAxLjUiIHgyPSIxMjkxLjUiIHkxPSI2NDUuNDg0NCIgeTI9IjY0NS40ODQ0Ii8+PHRleHQgZmlsbD0iIzAwMDAwMCIgZm9udC1mYW1pbHk9InNhbnMtc2VyaWYiIGZvbnQtc2l6ZT0iMTQiIGxlbmd0aEFkanVzdD0ic3BhY2luZyIgdGV4dExlbmd0aD0iMTg5IiB4PSIxMDA2LjUiIHk9IjY2Mi43MTg4Ij50b3RhbF9wcmljZSA6IGRlY2ltYWwoMTAsMik8L3RleHQ+PHRleHQgZmlsbD0iIzAwMDAwMCIgZm9udC1mYW1pbHk9InNhbnMtc2VyaWYiIGZvbnQtc2l6ZT0iMTQiIGxlbmd0aEFkanVzdD0ic3BhY2luZyIgdGV4dExlbmd0aD0iMTQwIiB4PSIxMDA2LjUiIHk9IjY3Ny43MDMxIj5wYWlkIDogZGVjaW1hbCgxMCwyKTwvdGV4dD48dGV4dCBmaWxsPSIjMDAwMDAwIiBmb250LWZhbWlseT0ic2Fucy1zZXJpZiIgZm9udC1zaXplPSIxNCIgbGVuZ3RoQWRqdXN0PSJzcGFjaW5nIiB0ZXh0TGVuZ3RoPSIxMzMiIHg9IjEwMDYuNSIgeT0iNjkyLjY4NzUiPmR1ZSA6IGRlY2ltYWwoMTAsMik8L3RleHQ+PHRleHQgZmlsbD0iIzAwMDAwMCIgZm9udC1mYW1pbHk9InNhbnMtc2VyaWYiIGZvbnQtc2l6ZT0iMTQiIGxlbmd0aEFkanVzdD0ic3BhY2luZyIgdGV4dExlbmd0aD0iMjczIiB4PSIxMDA2LjUiIHk9IjcwNy42NzE5Ij5wYXltZW50X3R5cGUgOiBlbnVtKENBU0gsIENBUkQsIE9OTElORSk8L3RleHQ+PHRleHQgZmlsbD0iIzAwMDAwMCIgZm9udC1mYW1pbHk9InNhbnMtc2VyaWYiIGZvbnQtc2l6ZT0iMTQiIGxlbmd0aEFkanVzdD0ic3BhY2luZyIgdGV4dExlbmd0aD0iMjgwIiB4PSIxMDA2LjUiIHk9IjcyMi42NTYzIj50cmFuc2FjdGlvbl9pZCA6IHZhcmNoYXIoMTAwKSAmIzE3MTtudWxsYWJsZSYjMTg3OzwvdGV4dD48dGV4dCBmaWxsPSIjMDAwMDAwIiBmb250LWZhbWlseT0ic2Fucy1zZXJpZiIgZm9udC1zaXplPSIxNCIgbGVuZ3RoQWRqdXN0PSJzcGFjaW5nIiB0ZXh0TGVuZ3RoPSIxNjgiIHg9IjEwMDYuNSIgeT0iNzM3LjY0MDYiPnBheW1lbnRfZGF0ZSA6IHRpbWVzdGFtcDwvdGV4dD48dGV4dCBmaWxsPSIjMDAwMDAwIiBmb250LWZhbWlseT0ic2Fucy1zZXJpZiIgZm9udC1zaXplPSIxNCIgbGVuZ3RoQWRqdXN0PSJzcGFjaW5nIiB0ZXh0TGVuZ3RoPSIxNjgiIHg9IjEwMDYuNSIgeT0iNzUyLjYyNSI+Ym9va2luZ19pZCA6IG51bWJlciAmIzE3MTtGSyYjMTg3OzwvdGV4dD48L2c+PCEtLWNsYXNzIHJvb21zLS0+PGcgY2xhc3M9ImVudGl0eSIgZGF0YS1lbnRpdHk9InJvb21zIiBkYXRhLXNvdXJjZS1saW5lPSI4NSIgZGF0YS11aWQ9ImVudDAwMDkiIGlkPSJlbnRpdHlfcm9vbXMiPjxyZWN0IGZpbGw9IiNGMUYxRjEiIGhlaWdodD0iMTgyLjg1OTQiIHJ4PSIyLjUiIHJ5PSIyLjUiIHN0eWxlPSJzdHJva2U6IzE4MTgxODtzdHJva2Utd2lkdGg6MC41OyIgd2lkdGg9IjQ4MSIgeD0iMzE1IiB5PSI1ODMiLz48ZWxsaXBzZSBjeD0iNTMzLjc1IiBjeT0iNTk5IiBmaWxsPSIjQzJDMkMyIiByeD0iMTEiIHJ5PSIxMSIgc3R5bGU9InN0cm9rZTojMTgxODE4O3N0cm9rZS13aWR0aDoxOyIvPjxwYXRoIGQ9Ik01MzcuMzc1LDYwNSBMNTM3LjM3NSw2MDMuMjUgTDUzMi4wNjI1LDYwMy4yNSBRNTMyLjA2MjUsNjAzLjI1IDUzMi4wNjI1LDU5OS42ODc1IEw1MzYuMzEyNSw1OTkuNjg3NSBMNTM2LjMxMjUsNTk3LjkzNzUgTDUzMi4wNjI1LDU5Ny45Mzc1IEw1MzIuMDYyNSw1OTUuNDM3NSBMNTM3LjM3NSw1OTUuNDM3NSBMNTM3LjM3NSw1OTMuNjg3NSBMNTMwLjMxMjUsNTkzLjY4NzUgUTUzMC4zMTI1LDU5My42ODc1IDUzMC4zMTI1LDYwNSBMNTM3LjM3NSw2MDUgWiAiIGZpbGw9IiMwMDAwMDAiLz48dGV4dCBmaWxsPSIjMDAwMDAwIiBmb250LWZhbWlseT0ic2Fucy1zZXJpZiIgZm9udC1zaXplPSIxNCIgbGVuZ3RoQWRqdXN0PSJzcGFjaW5nIiB0ZXh0TGVuZ3RoPSIzNSIgeD0iNTU0LjI1IiB5PSI2MDQuNzQyMiI+Um9vbXM8L3RleHQ+PGxpbmUgc3R5bGU9InN0cm9rZTojMTgxODE4O3N0cm9rZS13aWR0aDowLjU7IiB4MT0iMzE2IiB4Mj0iNzk1IiB5MT0iNjE1IiB5Mj0iNjE1Ii8+PGVsbGlwc2UgY3g9IjMyNiIgY3k9IjYyNy45OTIyIiBmaWxsPSIjMDAwMDAwIiByeD0iMyIgcnk9IjMiIHN0eWxlPSJzdHJva2U6IzAwMDAwMDtzdHJva2Utd2lkdGg6MTsiLz48dGV4dCBmaWxsPSIjMDAwMDAwIiBmb250LWZhbWlseT0ic2Fucy1zZXJpZiIgZm9udC1zaXplPSIxNCIgbGVuZ3RoQWRqdXN0PSJzcGFjaW5nIiB0ZXh0TGVuZ3RoPSIxNTQiIHg9IjMzNSIgeT0iNjMyLjIzNDQiPnJvb21fbnVtIDogbnVtYmVyICYjMTcxO1BLJiMxODc7PC90ZXh0PjxsaW5lIHN0eWxlPSJzdHJva2U6IzE4MTgxODtzdHJva2Utd2lkdGg6MTsiIHgxPSIzMTYiIHgyPSI3OTUiIHkxPSI2MzcuOTg0NCIgeTI9IjYzNy45ODQ0Ii8+PHRleHQgZmlsbD0iIzAwMDAwMCIgZm9udC1mYW1pbHk9InNhbnMtc2VyaWYiIGZvbnQtc2l6ZT0iMTQiIGxlbmd0aEFkanVzdD0ic3BhY2luZyIgdGV4dExlbmd0aD0iOTgiIHg9IjMyMSIgeT0iNjU1LjIxODgiPmZsb29yIDogbnVtYmVyPC90ZXh0Pjx0ZXh0IGZpbGw9IiMwMDAwMDAiIGZvbnQtZmFtaWx5PSJzYW5zLXNlcmlmIiBmb250LXNpemU9IjE0IiBsZW5ndGhBZGp1c3Q9InNwYWNpbmciIHRleHRMZW5ndGg9IjExOSIgeD0iMzIxIiB5PSI2NzAuMjAzMSI+Y2FwYWNpdHkgOiBudW1iZXI8L3RleHQ+PHRleHQgZmlsbD0iIzAwMDAwMCIgZm9udC1mYW1pbHk9InNhbnMtc2VyaWYiIGZvbnQtc2l6ZT0iMTQiIGxlbmd0aEFkanVzdD0ic3BhY2luZyIgdGV4dExlbmd0aD0iMTI2IiB4PSIzMjEiIHk9IjY4NS4xODc1Ij50eXBlIDogdmFyY2hhcig1MCk8L3RleHQ+PHRleHQgZmlsbD0iIzAwMDAwMCIgZm9udC1mYW1pbHk9InNhbnMtc2VyaWYiIGZvbnQtc2l6ZT0iMTQiIGxlbmd0aEFkanVzdD0ic3BhY2luZyIgdGV4dExlbmd0aD0iMjAzIiB4PSIzMjEiIHk9IjcwMC4xNzE5Ij5kZXNjcmlwdGlvbiA6IHRleHQgJiMxNzE7bnVsbGFibGUmIzE4Nzs8L3RleHQ+PHRleHQgZmlsbD0iIzAwMDAwMCIgZm9udC1mYW1pbHk9InNhbnMtc2VyaWYiIGZvbnQtc2l6ZT0iMTQiIGxlbmd0aEFkanVzdD0ic3BhY2luZyIgdGV4dExlbmd0aD0iMTgyIiB4PSIzMjEiIHk9IjcxNS4xNTYzIj5yb29tX3ByaWNlIDogZGVjaW1hbCgxMCwyKTwvdGV4dD48dGV4dCBmaWxsPSIjMDAwMDAwIiBmb250LWZhbWlseT0ic2Fucy1zZXJpZiIgZm9udC1zaXplPSIxNCIgbGVuZ3RoQWRqdXN0PSJzcGFjaW5nIiB0ZXh0TGVuZ3RoPSIxNjEiIHg9IjMyMSIgeT0iNzMwLjE0MDYiPmRpc2NvdW50IDogZGVjaW1hbCg1LDIpPC90ZXh0Pjx0ZXh0IGZpbGw9IiMwMDAwMDAiIGZvbnQtZmFtaWx5PSJzYW5zLXNlcmlmIiBmb250LXNpemU9IjE0IiBsZW5ndGhBZGp1c3Q9InNwYWNpbmciIHRleHRMZW5ndGg9IjM2NCIgeD0iMzIxIiB5PSI3NDUuMTI1Ij5yb29tX3N0YXR1cyA6IGVudW0oQVZBSUxBQkxFLCBPQ0NVUElFRCwgTUFJTlRFTkFOQ0UpPC90ZXh0Pjx0ZXh0IGZpbGw9IiMwMDAwMDAiIGZvbnQtZmFtaWx5PSJzYW5zLXNlcmlmIiBmb250LXNpemU9IjE0IiBsZW5ndGhBZGp1c3Q9InNwYWNpbmciIHRleHRMZW5ndGg9IjQ2OSIgeD0iMzIxIiB5PSI3NjAuMTA5NCI+aG91c2VrZWVwaW5nX3N0YXR1cyA6IGVudW0oQ0xFQU4sIFdBSVRJTkdfRk9SX0NMRUFOLCBORUVEU19TRVJWSUNFKTwvdGV4dD48L2c+PCEtLWNsYXNzIHJvb21pdGVtLS0+PGcgY2xhc3M9ImVudGl0eSIgZGF0YS1lbnRpdHk9InJvb21pdGVtIiBkYXRhLXNvdXJjZS1saW5lPSI5OCIgZGF0YS11aWQ9ImVudDAwMTAiIGlkPSJlbnRpdHlfcm9vbWl0ZW0iPjxyZWN0IGZpbGw9IiNGMUYxRjEiIGhlaWdodD0iMTUyLjg5MDYiIHJ4PSIyLjUiIHJ5PSIyLjUiIHN0eWxlPSJzdHJva2U6IzE4MTgxODtzdHJva2Utd2lkdGg6MC41OyIgd2lkdGg9IjM0OCIgeD0iMTc1LjUiIHk9Ijg1NiIvPjxlbGxpcHNlIGN4PSIzMTcuMjUiIGN5PSI4NzIiIGZpbGw9IiNDMkMyQzIiIHJ4PSIxMSIgcnk9IjExIiBzdHlsZT0ic3Ryb2tlOiMxODE4MTg7c3Ryb2tlLXdpZHRoOjE7Ii8+PHBhdGggZD0iTTMyMC44NzUsODc4IEwzMjAuODc1LDg3Ni4yNSBMMzE1LjU2MjUsODc2LjI1IFEzMTUuNTYyNSw4NzYuMjUgMzE1LjU2MjUsODcyLjY4NzUgTDMxOS44MTI1LDg3Mi42ODc1IEwzMTkuODEyNSw4NzAuOTM3NSBMMzE1LjU2MjUsODcwLjkzNzUgTDMxNS41NjI1LDg2OC40Mzc1IEwzMjAuODc1LDg2OC40Mzc1IEwzMjAuODc1LDg2Ni42ODc1IEwzMTMuODEyNSw4NjYuNjg3NSBRMzEzLjgxMjUsODY2LjY4NzUgMzEzLjgxMjUsODc4IEwzMjAuODc1LDg3OCBaICIgZmlsbD0iIzAwMDAwMCIvPjx0ZXh0IGZpbGw9IiMwMDAwMDAiIGZvbnQtZmFtaWx5PSJzYW5zLXNlcmlmIiBmb250LXNpemU9IjE0IiBsZW5ndGhBZGp1c3Q9InNwYWNpbmciIHRleHRMZW5ndGg9IjU2IiB4PSIzMzcuNzUiIHk9Ijg3Ny43NDIyIj5Sb29tSXRlbTwvdGV4dD48bGluZSBzdHlsZT0ic3Ryb2tlOiMxODE4MTg7c3Ryb2tlLXdpZHRoOjAuNTsiIHgxPSIxNzYuNSIgeDI9IjUyMi41IiB5MT0iODg4IiB5Mj0iODg4Ii8+PGVsbGlwc2UgY3g9IjE4Ni41IiBjeT0iOTAwLjk5MjIiIGZpbGw9IiMwMDAwMDAiIHJ4PSIzIiByeT0iMyIgc3R5bGU9InN0cm9rZTojMDAwMDAwO3N0cm9rZS13aWR0aDoxOyIvPjx0ZXh0IGZpbGw9IiMwMDAwMDAiIGZvbnQtZmFtaWx5PSJzYW5zLXNlcmlmIiBmb250LXNpemU9IjE0IiBsZW5ndGhBZGp1c3Q9InNwYWNpbmciIHRleHRMZW5ndGg9IjE0NyIgeD0iMTk1LjUiIHk9IjkwNS4yMzQ0Ij5pdGVtX2lkIDogbnVtYmVyICYjMTcxO1BLJiMxODc7PC90ZXh0PjxsaW5lIHN0eWxlPSJzdHJva2U6IzE4MTgxODtzdHJva2Utd2lkdGg6MTsiIHgxPSIxNzYuNSIgeDI9IjUyMi41IiB5MT0iOTEwLjk4NDQiIHkyPSI5MTAuOTg0NCIvPjx0ZXh0IGZpbGw9IiMwMDAwMDAiIGZvbnQtZmFtaWx5PSJzYW5zLXNlcmlmIiBmb250LXNpemU9IjE0IiBsZW5ndGhBZGp1c3Q9InNwYWNpbmciIHRleHRMZW5ndGg9IjE2OCIgeD0iMTgxLjUiIHk9IjkyOC4yMTg4Ij5pdGVtX25hbWUgOiB2YXJjaGFyKDEwMCk8L3RleHQ+PHRleHQgZmlsbD0iIzAwMDAwMCIgZm9udC1mYW1pbHk9InNhbnMtc2VyaWYiIGZvbnQtc2l6ZT0iMTQiIGxlbmd0aEFkanVzdD0ic3BhY2luZyIgdGV4dExlbmd0aD0iMzM2IiB4PSIxODEuNSIgeT0iOTQzLjIwMzEiPnN0YXR1cyA6IGVudW0oRlVOQ1RJT05BTCwgTkVFRFNfUkVQQUlSLCBNSVNTSU5HKTwvdGV4dD48dGV4dCBmaWxsPSIjMDAwMDAwIiBmb250LWZhbWlseT0ic2Fucy1zZXJpZiIgZm9udC1zaXplPSIxNCIgbGVuZ3RoQWRqdXN0PSJzcGFjaW5nIiB0ZXh0TGVuZ3RoPSIxNjgiIHg9IjE4MS41IiB5PSI5NTguMTg3NSI+bGFzdF9jaGVja2VkIDogdGltZXN0YW1wPC90ZXh0Pjx0ZXh0IGZpbGw9IiMwMDAwMDAiIGZvbnQtZmFtaWx5PSJzYW5zLXNlcmlmIiBmb250LXNpemU9IjE0IiBsZW5ndGhBZGp1c3Q9InNwYWNpbmciIHRleHRMZW5ndGg9IjIxMCIgeD0iMTgxLjUiIHk9Ijk3My4xNzE5Ij5pc3N1ZV9yZXBvcnQgOiB0ZXh0ICYjMTcxO251bGxhYmxlJiMxODc7PC90ZXh0Pjx0ZXh0IGZpbGw9IiMwMDAwMDAiIGZvbnQtZmFtaWx5PSJzYW5zLXNlcmlmIiBmb250LXNpemU9IjE0IiBsZW5ndGhBZGp1c3Q9InNwYWNpbmciIHRleHRMZW5ndGg9IjE1NCIgeD0iMTgxLjUiIHk9Ijk4OC4xNTYzIj5yb29tX251bSA6IG51bWJlciAmIzE3MTtGSyYjMTg3OzwvdGV4dD48dGV4dCBmaWxsPSIjMDAwMDAwIiBmb250LWZhbWlseT0ic2Fucy1zZXJpZiIgZm9udC1zaXplPSIxNCIgbGVuZ3RoQWRqdXN0PSJzcGFjaW5nIiB0ZXh0TGVuZ3RoPSIxNzUiIHg9IjE4MS41IiB5PSIxMDAzLjE0MDYiPmVtcGxveWVlX2lkIDogbnVtYmVyICYjMTcxO0ZLJiMxODc7PC90ZXh0PjwvZz48IS0tY2xhc3MgaG91c2VrZWVwaW5naGlzdG9yeS0tPjxnIGNsYXNzPSJlbnRpdHkiIGRhdGEtZW50aXR5PSJob3VzZWtlZXBpbmdoaXN0b3J5IiBkYXRhLXNvdXJjZS1saW5lPSIxMDkiIGRhdGEtdWlkPSJlbnQwMDExIiBpZD0iZW50aXR5X2hvdXNla2VlcGluZ2hpc3RvcnkiPjxyZWN0IGZpbGw9IiNGMUYxRjEiIGhlaWdodD0iMTgyLjg1OTQiIHJ4PSIyLjUiIHJ5PSIyLjUiIHN0eWxlPSJzdHJva2U6IzE4MTgxODtzdHJva2Utd2lkdGg6MC41OyIgd2lkdGg9IjQ0NiIgeD0iMjIxNC41IiB5PSI4NDEiLz48ZWxsaXBzZSBjeD0iMjM2Ni43NSIgY3k9Ijg1NyIgZmlsbD0iI0MyQzJDMiIgcng9IjExIiByeT0iMTEiIHN0eWxlPSJzdHJva2U6IzE4MTgxODtzdHJva2Utd2lkdGg6MTsiLz48cGF0aCBkPSJNMjM3MC4zNzUsODYzIEwyMzcwLjM3NSw4NjEuMjUgTDIzNjUuMDYyNSw4NjEuMjUgUTIzNjUuMDYyNSw4NjEuMjUgMjM2NS4wNjI1LDg1Ny42ODc1IEwyMzY5LjMxMjUsODU3LjY4NzUgTDIzNjkuMzEyNSw4NTUuOTM3NSBMMjM2NS4wNjI1LDg1NS45Mzc1IEwyMzY1LjA2MjUsODUzLjQzNzUgTDIzNzAuMzc1LDg1My40Mzc1IEwyMzcwLjM3NSw4NTEuNjg3NSBMMjM2My4zMTI1LDg1MS42ODc1IFEyMzYzLjMxMjUsODUxLjY4NzUgMjM2My4zMTI1LDg2MyBMMjM3MC4zNzUsODYzIFogIiBmaWxsPSIjMDAwMDAwIi8+PHRleHQgZmlsbD0iIzAwMDAwMCIgZm9udC1mYW1pbHk9InNhbnMtc2VyaWYiIGZvbnQtc2l6ZT0iMTQiIGxlbmd0aEFkanVzdD0ic3BhY2luZyIgdGV4dExlbmd0aD0iMTMzIiB4PSIyMzg3LjI1IiB5PSI4NjIuNzQyMiI+SG91c2VrZWVwaW5nSGlzdG9yeTwvdGV4dD48bGluZSBzdHlsZT0ic3Ryb2tlOiMxODE4MTg7c3Ryb2tlLXdpZHRoOjAuNTsiIHgxPSIyMjE1LjUiIHgyPSIyNjU5LjUiIHkxPSI4NzMiIHkyPSI4NzMiLz48ZWxsaXBzZSBjeD0iMjIyNS41IiBjeT0iODg1Ljk5MjIiIGZpbGw9IiMwMDAwMDAiIHJ4PSIzIiByeT0iMyIgc3R5bGU9InN0cm9rZTojMDAwMDAwO3N0cm9rZS13aWR0aDoxOyIvPjx0ZXh0IGZpbGw9IiMwMDAwMDAiIGZvbnQtZmFtaWx5PSJzYW5zLXNlcmlmIiBmb250LXNpemU9IjE0IiBsZW5ndGhBZGp1c3Q9InNwYWNpbmciIHRleHRMZW5ndGg9IjIwMyIgeD0iMjIzNC41IiB5PSI4OTAuMjM0NCI+aG91c2VrZWVwaW5nX2lkIDogbnVtYmVyICYjMTcxO1BLJiMxODc7PC90ZXh0PjxsaW5lIHN0eWxlPSJzdHJva2U6IzE4MTgxODtzdHJva2Utd2lkdGg6MTsiIHgxPSIyMjE1LjUiIHgyPSIyNjU5LjUiIHkxPSI4OTUuOTg0NCIgeTI9Ijg5NS45ODQ0Ii8+PHRleHQgZmlsbD0iIzAwMDAwMCIgZm9udC1mYW1pbHk9InNhbnMtc2VyaWYiIGZvbnQtc2l6ZT0iMTQiIGxlbmd0aEFkanVzdD0ic3BhY2luZyIgdGV4dExlbmd0aD0iMTEyIiB4PSIyMjIwLjUiIHk9IjkxMy4yMTg4Ij5kYXRlIDogdGltZXN0YW1wPC90ZXh0Pjx0ZXh0IGZpbGw9IiMwMDAwMDAiIGZvbnQtZmFtaWx5PSJzYW5zLXNlcmlmIiBmb250LXNpemU9IjE0IiBsZW5ndGhBZGp1c3Q9InNwYWNpbmciIHRleHRMZW5ndGg9IjQzNCIgeD0iMjIyMC41IiB5PSI5MjguMjAzMSI+dHlwZV9vZl9zZXJ2aWNlIDogZW51bShDTEVBTklORywgU0VSVklDRV9SRVFVRVNULCBNQUlOVEVOQU5DRSk8L3RleHQ+PHRleHQgZmlsbD0iIzAwMDAwMCIgZm9udC1mYW1pbHk9InNhbnMtc2VyaWYiIGZvbnQtc2l6ZT0iMTQiIGxlbmd0aEFkanVzdD0ic3BhY2luZyIgdGV4dExlbmd0aD0iMjEwIiB4PSIyMjIwLjUiIHk9Ijk0My4xODc1Ij5pc3N1ZV9yZXBvcnQgOiB0ZXh0ICYjMTcxO251bGxhYmxlJiMxODc7PC90ZXh0Pjx0ZXh0IGZpbGw9IiMwMDAwMDAiIGZvbnQtZmFtaWx5PSJzYW5zLXNlcmlmIiBmb250LXNpemU9IjE0IiBsZW5ndGhBZGp1c3Q9InNwYWNpbmciIHRleHRMZW5ndGg9IjIzOCIgeD0iMjIyMC41IiB5PSI5NTguMTcxOSI+Y2xlYW5lcl9mZWVkYmFjayA6IHRleHQgJiMxNzE7bnVsbGFibGUmIzE4Nzs8L3RleHQ+PHRleHQgZmlsbD0iIzAwMDAwMCIgZm9udC1mYW1pbHk9InNhbnMtc2VyaWYiIGZvbnQtc2l6ZT0iMTQiIGxlbmd0aEFkanVzdD0ic3BhY2luZyIgdGV4dExlbmd0aD0iMTU0IiB4PSIyMjIwLjUiIHk9Ijk3My4xNTYzIj5yb29tX251bSA6IG51bWJlciAmIzE3MTtGSyYjMTg3OzwvdGV4dD48dGV4dCBmaWxsPSIjMDAwMDAwIiBmb250LWZhbWlseT0ic2Fucy1zZXJpZiIgZm9udC1zaXplPSIxNCIgbGVuZ3RoQWRqdXN0PSJzcGFjaW5nIiB0ZXh0TGVuZ3RoPSIxNzUiIHg9IjIyMjAuNSIgeT0iOTg4LjE0MDYiPmVtcGxveWVlX2lkIDogbnVtYmVyICYjMTcxO0ZLJiMxODc7PC90ZXh0Pjx0ZXh0IGZpbGw9IiMwMDAwMDAiIGZvbnQtZmFtaWx5PSJzYW5zLXNlcmlmIiBmb250LXNpemU9IjE0IiBsZW5ndGhBZGp1c3Q9InNwYWNpbmciIHRleHRMZW5ndGg9IjI1MiIgeD0iMjIyMC41IiB5PSIxMDAzLjEyNSI+c3VwZXJ2aXNvcl9lbXBsb3llZV9pZCA6IG51bWJlciAmIzE3MTtGSyYjMTg3OzwvdGV4dD48dGV4dCBmaWxsPSIjMDAwMDAwIiBmb250LWZhbWlseT0ic2Fucy1zZXJpZiIgZm9udC1zaXplPSIxNCIgbGVuZ3RoQWRqdXN0PSJzcGFjaW5nIiB0ZXh0TGVuZ3RoPSIyNDUiIHg9IjIyMjAuNSIgeT0iMTAxOC4xMDk0Ij5ib29raW5nX2lkIDogbnVtYmVyICYjMTcxO0ZLJiMxODc7ICYjMTcxO251bGxhYmxlJiMxODc7PC90ZXh0PjwvZz48IS0tY2xhc3MgY291cG9uLS0+PGcgY2xhc3M9ImVudGl0eSIgZGF0YS1lbnRpdHk9ImNvdXBvbiIgZGF0YS1zb3VyY2UtbGluZT0iMTIyIiBkYXRhLXVpZD0iZW50MDAxMiIgaWQ9ImVudGl0eV9jb3Vwb24iPjxyZWN0IGZpbGw9IiNGMUYxRjEiIGhlaWdodD0iMTM3LjkwNjMiIHJ4PSIyLjUiIHJ5PSIyLjUiIHN0eWxlPSJzdHJva2U6IzE4MTgxODtzdHJva2Utd2lkdGg6MC41OyIgd2lkdGg9IjI1MCIgeD0iMTMyNy41IiB5PSI2MDUuNSIvPjxlbGxpcHNlIGN4PSIxNDI3LjI1IiBjeT0iNjIxLjUiIGZpbGw9IiNDMkMyQzIiIHJ4PSIxMSIgcnk9IjExIiBzdHlsZT0ic3Ryb2tlOiMxODE4MTg7c3Ryb2tlLXdpZHRoOjE7Ii8+PHBhdGggZD0iTTE0MzAuODc1LDYyNy41IEwxNDMwLjg3NSw2MjUuNzUgTDE0MjUuNTYyNSw2MjUuNzUgUTE0MjUuNTYyNSw2MjUuNzUgMTQyNS41NjI1LDYyMi4xODc1IEwxNDI5LjgxMjUsNjIyLjE4NzUgTDE0MjkuODEyNSw2MjAuNDM3NSBMMTQyNS41NjI1LDYyMC40Mzc1IEwxNDI1LjU2MjUsNjE3LjkzNzUgTDE0MzAuODc1LDYxNy45Mzc1IEwxNDMwLjg3NSw2MTYuMTg3NSBMMTQyMy44MTI1LDYxNi4xODc1IFExNDIzLjgxMjUsNjE2LjE4NzUgMTQyMy44MTI1LDYyNy41IEwxNDMwLjg3NSw2MjcuNSBaICIgZmlsbD0iIzAwMDAwMCIvPjx0ZXh0IGZpbGw9IiMwMDAwMDAiIGZvbnQtZmFtaWx5PSJzYW5zLXNlcmlmIiBmb250LXNpemU9IjE0IiBsZW5ndGhBZGp1c3Q9InNwYWNpbmciIHRleHRMZW5ndGg9IjQyIiB4PSIxNDQ3Ljc1IiB5PSI2MjcuMjQyMiI+Q291cG9uPC90ZXh0PjxsaW5lIHN0eWxlPSJzdHJva2U6IzE4MTgxODtzdHJva2Utd2lkdGg6MC41OyIgeDE9IjEzMjguNSIgeDI9IjE1NzYuNSIgeTE9IjYzNy41IiB5Mj0iNjM3LjUiLz48ZWxsaXBzZSBjeD0iMTMzOC41IiBjeT0iNjUwLjQ5MjIiIGZpbGw9IiMwMDAwMDAiIHJ4PSIzIiByeT0iMyIgc3R5bGU9InN0cm9rZTojMDAwMDAwO3N0cm9rZS13aWR0aDoxOyIvPjx0ZXh0IGZpbGw9IiMwMDAwMDAiIGZvbnQtZmFtaWx5PSJzYW5zLXNlcmlmIiBmb250LXNpemU9IjE0IiBsZW5ndGhBZGp1c3Q9InNwYWNpbmciIHRleHRMZW5ndGg9IjE2MSIgeD0iMTM0Ny41IiB5PSI2NTQuNzM0NCI+Y291cG9uX2lkIDogbnVtYmVyICYjMTcxO1BLJiMxODc7PC90ZXh0PjxsaW5lIHN0eWxlPSJzdHJva2U6IzE4MTgxODtzdHJva2Utd2lkdGg6MTsiIHgxPSIxMzI4LjUiIHgyPSIxNTc2LjUiIHkxPSI2NjAuNDg0NCIgeTI9IjY2MC40ODQ0Ii8+PHRleHQgZmlsbD0iIzAwMDAwMCIgZm9udC1mYW1pbHk9InNhbnMtc2VyaWYiIGZvbnQtc2l6ZT0iMTQiIGxlbmd0aEFkanVzdD0ic3BhY2luZyIgdGV4dExlbmd0aD0iMjM4IiB4PSIxMzMzLjUiIHk9IjY3Ny43MTg4Ij5jb3Vwb25fY29kZSA6IHZhcmNoYXIoNTApICYjMTcxO3VuaXF1ZSYjMTg3OzwvdGV4dD48dGV4dCBmaWxsPSIjMDAwMDAwIiBmb250LWZhbWlseT0ic2Fucy1zZXJpZiIgZm9udC1zaXplPSIxNCIgbGVuZ3RoQWRqdXN0PSJzcGFjaW5nIiB0ZXh0TGVuZ3RoPSIyMDMiIHg9IjEzMzMuNSIgeT0iNjkyLjcwMzEiPmNvdXBvbl9wZXJjZW50IDogZGVjaW1hbCg1LDIpPC90ZXh0Pjx0ZXh0IGZpbGw9IiMwMDAwMDAiIGZvbnQtZmFtaWx5PSJzYW5zLXNlcmlmIiBmb250LXNpemU9IjE0IiBsZW5ndGhBZGp1c3Q9InNwYWNpbmciIHRleHRMZW5ndGg9IjEzMyIgeD0iMTMzMy41IiB5PSI3MDcuNjg3NSI+aXNfYWN0aXZlIDogYm9vbGVhbjwvdGV4dD48dGV4dCBmaWxsPSIjMDAwMDAwIiBmb250LWZhbWlseT0ic2Fucy1zZXJpZiIgZm9udC1zaXplPSIxNCIgbGVuZ3RoQWRqdXN0PSJzcGFjaW5nIiB0ZXh0TGVuZ3RoPSIxNTQiIHg9IjEzMzMuNSIgeT0iNzIyLjY3MTkiPmNyZWF0ZWRfYXQgOiB0aW1lc3RhbXA8L3RleHQ+PHRleHQgZmlsbD0iIzAwMDAwMCIgZm9udC1mYW1pbHk9InNhbnMtc2VyaWYiIGZvbnQtc2l6ZT0iMTQiIGxlbmd0aEFkanVzdD0ic3BhY2luZyIgdGV4dExlbmd0aD0iMTc1IiB4PSIxMzMzLjUiIHk9IjczNy42NTYzIj5lbXBsb3llZV9pZCA6IG51bWJlciAmIzE3MTtGSyYjMTg3OzwvdGV4dD48L2c+PCEtLWNsYXNzIGNvdXBvbnVzYWdlLS0+PGcgY2xhc3M9ImVudGl0eSIgZGF0YS1lbnRpdHk9ImNvdXBvbnVzYWdlIiBkYXRhLXNvdXJjZS1saW5lPSIxMzIiIGRhdGEtdWlkPSJlbnQwMDEzIiBpZD0iZW50aXR5X2NvdXBvbnVzYWdlIj48cmVjdCBmaWxsPSIjRjFGMUYxIiBoZWlnaHQ9IjEyMi45MjE5IiByeD0iMi41IiByeT0iMi41IiBzdHlsZT0ic3Ryb2tlOiMxODE4MTg7c3Ryb2tlLXdpZHRoOjAuNTsiIHdpZHRoPSIxODciIHg9Ijg0NCIgeT0iODcxIi8+PGVsbGlwc2UgY3g9Ijg5NC43NSIgY3k9Ijg4NyIgZmlsbD0iI0MyQzJDMiIgcng9IjExIiByeT0iMTEiIHN0eWxlPSJzdHJva2U6IzE4MTgxODtzdHJva2Utd2lkdGg6MTsiLz48cGF0aCBkPSJNODk4LjM3NSw4OTMgTDg5OC4zNzUsODkxLjI1IEw4OTMuMDYyNSw4OTEuMjUgUTg5My4wNjI1LDg5MS4yNSA4OTMuMDYyNSw4ODcuNjg3NSBMODk3LjMxMjUsODg3LjY4NzUgTDg5Ny4zMTI1LDg4NS45Mzc1IEw4OTMuMDYyNSw4ODUuOTM3NSBMODkzLjA2MjUsODgzLjQzNzUgTDg5OC4zNzUsODgzLjQzNzUgTDg5OC4zNzUsODgxLjY4NzUgTDg5MS4zMTI1LDg4MS42ODc1IFE4OTEuMzEyNSw4ODEuNjg3NSA4OTEuMzEyNSw4OTMgTDg5OC4zNzUsODkzIFogIiBmaWxsPSIjMDAwMDAwIi8+PHRleHQgZmlsbD0iIzAwMDAwMCIgZm9udC1mYW1pbHk9InNhbnMtc2VyaWYiIGZvbnQtc2l6ZT0iMTQiIGxlbmd0aEFkanVzdD0ic3BhY2luZyIgdGV4dExlbmd0aD0iNzciIHg9IjkxNS4yNSIgeT0iODkyLjc0MjIiPkNvdXBvblVzYWdlPC90ZXh0PjxsaW5lIHN0eWxlPSJzdHJva2U6IzE4MTgxODtzdHJva2Utd2lkdGg6MC41OyIgeDE9Ijg0NSIgeDI9IjEwMzAiIHkxPSI5MDMiIHkyPSI5MDMiLz48ZWxsaXBzZSBjeD0iODU1IiBjeT0iOTE1Ljk5MjIiIGZpbGw9IiMwMDAwMDAiIHJ4PSIzIiByeT0iMyIgc3R5bGU9InN0cm9rZTojMDAwMDAwO3N0cm9rZS13aWR0aDoxOyIvPjx0ZXh0IGZpbGw9IiMwMDAwMDAiIGZvbnQtZmFtaWx5PSJzYW5zLXNlcmlmIiBmb250LXNpemU9IjE0IiBsZW5ndGhBZGp1c3Q9InNwYWNpbmciIHRleHRMZW5ndGg9IjE1NCIgeD0iODY0IiB5PSI5MjAuMjM0NCI+dXNhZ2VfaWQgOiBudW1iZXIgJiMxNzE7UEsmIzE4Nzs8L3RleHQ+PGxpbmUgc3R5bGU9InN0cm9rZTojMTgxODE4O3N0cm9rZS13aWR0aDoxOyIgeDE9Ijg0NSIgeDI9IjEwMzAiIHkxPSI5MjUuOTg0NCIgeTI9IjkyNS45ODQ0Ii8+PHRleHQgZmlsbD0iIzAwMDAwMCIgZm9udC1mYW1pbHk9InNhbnMtc2VyaWYiIGZvbnQtc2l6ZT0iMTQiIGxlbmd0aEFkanVzdD0ic3BhY2luZyIgdGV4dExlbmd0aD0iMTMzIiB4PSI4NTAiIHk9Ijk0My4yMTg4Ij51c2VkX2F0IDogdGltZXN0YW1wPC90ZXh0Pjx0ZXh0IGZpbGw9IiMwMDAwMDAiIGZvbnQtZmFtaWx5PSJzYW5zLXNlcmlmIiBmb250LXNpemU9IjE0IiBsZW5ndGhBZGp1c3Q9InNwYWNpbmciIHRleHRMZW5ndGg9IjE2MSIgeD0iODUwIiB5PSI5NTguMjAzMSI+Y291cG9uX2lkIDogbnVtYmVyICYjMTcxO0ZLJiMxODc7PC90ZXh0Pjx0ZXh0IGZpbGw9IiMwMDAwMDAiIGZvbnQtZmFtaWx5PSJzYW5zLXNlcmlmIiBmb250LXNpemU9IjE0IiBsZW5ndGhBZGp1c3Q9InNwYWNpbmciIHRleHRMZW5ndGg9IjE2OCIgeD0iODUwIiB5PSI5NzMuMTg3NSI+Ym9va2luZ19pZCA6IG51bWJlciAmIzE3MTtGSyYjMTg3OzwvdGV4dD48dGV4dCBmaWxsPSIjMDAwMDAwIiBmb250LWZhbWlseT0ic2Fucy1zZXJpZiIgZm9udC1zaXplPSIxNCIgbGVuZ3RoQWRqdXN0PSJzcGFjaW5nIiB0ZXh0TGVuZ3RoPSIxNzUiIHg9Ijg1MCIgeT0iOTg4LjE3MTkiPmVtcGxveWVlX2lkIDogbnVtYmVyICYjMTcxO0ZLJiMxODc7PC90ZXh0PjwvZz48IS0tY2xhc3MgaW52ZW50b3J5LS0+PGcgY2xhc3M9ImVudGl0eSIgZGF0YS1lbnRpdHk9ImludmVudG9yeSIgZGF0YS1zb3VyY2UtbGluZT0iMTQxIiBkYXRhLXVpZD0iZW50MDAxNCIgaWQ9ImVudGl0eV9pbnZlbnRvcnkiPjxyZWN0IGZpbGw9IiNGMUYxRjEiIGhlaWdodD0iMTk3Ljg0MzgiIHJ4PSIyLjUiIHJ5PSIyLjUiIHN0eWxlPSJzdHJva2U6IzE4MTgxODtzdHJva2Utd2lkdGg6MC41OyIgd2lkdGg9IjI3OCIgeD0iMTk4NC41IiB5PSIyNzIuNSIvPjxlbGxpcHNlIGN4PSIyMDg3Ljc1IiBjeT0iMjg4LjUiIGZpbGw9IiNDMkMyQzIiIHJ4PSIxMSIgcnk9IjExIiBzdHlsZT0ic3Ryb2tlOiMxODE4MTg7c3Ryb2tlLXdpZHRoOjE7Ii8+PHBhdGggZD0iTTIwOTEuMzc1LDI5NC41IEwyMDkxLjM3NSwyOTIuNzUgTDIwODYuMDYyNSwyOTIuNzUgUTIwODYuMDYyNSwyOTIuNzUgMjA4Ni4wNjI1LDI4OS4xODc1IEwyMDkwLjMxMjUsMjg5LjE4NzUgTDIwOTAuMzEyNSwyODcuNDM3NSBMMjA4Ni4wNjI1LDI4Ny40Mzc1IEwyMDg2LjA2MjUsMjg0LjkzNzUgTDIwOTEuMzc1LDI4NC45Mzc1IEwyMDkxLjM3NSwyODMuMTg3NSBMMjA4NC4zMTI1LDI4My4xODc1IFEyMDg0LjMxMjUsMjgzLjE4NzUgMjA4NC4zMTI1LDI5NC41IEwyMDkxLjM3NSwyOTQuNSBaICIgZmlsbD0iIzAwMDAwMCIvPjx0ZXh0IGZpbGw9IiMwMDAwMDAiIGZvbnQtZmFtaWx5PSJzYW5zLXNlcmlmIiBmb250LXNpemU9IjE0IiBsZW5ndGhBZGp1c3Q9InNwYWNpbmciIHRleHRMZW5ndGg9IjYzIiB4PSIyMTA4LjI1IiB5PSIyOTQuMjQyMiI+SW52ZW50b3J5PC90ZXh0PjxsaW5lIHN0eWxlPSJzdHJva2U6IzE4MTgxODtzdHJva2Utd2lkdGg6MC41OyIgeDE9IjE5ODUuNSIgeDI9IjIyNjEuNSIgeTE9IjMwNC41IiB5Mj0iMzA0LjUiLz48ZWxsaXBzZSBjeD0iMTk5NS41IiBjeT0iMzE3LjQ5MjIiIGZpbGw9IiMwMDAwMDAiIHJ4PSIzIiByeT0iMyIgc3R5bGU9InN0cm9rZTojMDAwMDAwO3N0cm9rZS13aWR0aDoxOyIvPjx0ZXh0IGZpbGw9IiMwMDAwMDAiIGZvbnQtZmFtaWx5PSJzYW5zLXNlcmlmIiBmb250LXNpemU9IjE0IiBsZW5ndGhBZGp1c3Q9InNwYWNpbmciIHRleHRMZW5ndGg9IjE2MSIgeD0iMjAwNC41IiB5PSIzMjEuNzM0NCI+c2VyaWFsX2lkIDogbnVtYmVyICYjMTcxO1BLJiMxODc7PC90ZXh0PjxsaW5lIHN0eWxlPSJzdHJva2U6IzE4MTgxODtzdHJva2Utd2lkdGg6MTsiIHgxPSIxOTg1LjUiIHgyPSIyMjYxLjUiIHkxPSIzMjcuNDg0NCIgeTI9IjMyNy40ODQ0Ii8+PHRleHQgZmlsbD0iIzAwMDAwMCIgZm9udC1mYW1pbHk9InNhbnMtc2VyaWYiIGZvbnQtc2l6ZT0iMTQiIGxlbmd0aEFkanVzdD0ic3BhY2luZyIgdGV4dExlbmd0aD0iMTY4IiB4PSIxOTkwLjUiIHk9IjM0NC43MTg4Ij5pdGVtX25hbWUgOiB2YXJjaGFyKDEwMCk8L3RleHQ+PHRleHQgZmlsbD0iIzAwMDAwMCIgZm9udC1mYW1pbHk9InNhbnMtc2VyaWYiIGZvbnQtc2l6ZT0iMTQiIGxlbmd0aEFkanVzdD0ic3BhY2luZyIgdGV4dExlbmd0aD0iMTE5IiB4PSIxOTkwLjUiIHk9IjM1OS43MDMxIj5xdWFudGl0eSA6IG51bWJlcjwvdGV4dD48dGV4dCBmaWxsPSIjMDAwMDAwIiBmb250LWZhbWlseT0ic2Fucy1zZXJpZiIgZm9udC1zaXplPSIxNCIgbGVuZ3RoQWRqdXN0PSJzcGFjaW5nIiB0ZXh0TGVuZ3RoPSIxMDUiIHg9IjE5OTAuNSIgeT0iMzc0LjY4NzUiPmlzc3VlZCA6IG51bWJlcjwvdGV4dD48dGV4dCBmaWxsPSIjMDAwMDAwIiBmb250LWZhbWlseT0ic2Fucy1zZXJpZiIgZm9udC1zaXplPSIxNCIgbGVuZ3RoQWRqdXN0PSJzcGFjaW5nIiB0ZXh0TGVuZ3RoPSIxMTkiIHg9IjE5OTAuNSIgeT0iMzg5LjY3MTkiPnJldHVybmVkIDogbnVtYmVyPC90ZXh0Pjx0ZXh0IGZpbGw9IiMwMDAwMDAiIGZvbnQtZmFtaWx5PSJzYW5zLXNlcmlmIiBmb250LXNpemU9IjE0IiBsZW5ndGhBZGp1c3Q9InNwYWNpbmciIHRleHRMZW5ndGg9IjkxIiB4PSIxOTkwLjUiIHk9IjQwNC42NTYzIj51c2VkIDogbnVtYmVyPC90ZXh0Pjx0ZXh0IGZpbGw9IiMwMDAwMDAiIGZvbnQtZmFtaWx5PSJzYW5zLXNlcmlmIiBmb250LXNpemU9IjE0IiBsZW5ndGhBZGp1c3Q9InNwYWNpbmciIHRleHRMZW5ndGg9Ijc3IiB4PSIxOTkwLjUiIHk9IjQxOS42NDA2Ij5kYXRlIDogZGF0ZTwvdGV4dD48dGV4dCBmaWxsPSIjMDAwMDAwIiBmb250LWZhbWlseT0ic2Fucy1zZXJpZiIgZm9udC1zaXplPSIxNCIgbGVuZ3RoQWRqdXN0PSJzcGFjaW5nIiB0ZXh0TGVuZ3RoPSIxMTIiIHg9IjE5OTAuNSIgeT0iNDM0LjYyNSI+b3JkZXJlZCA6IG51bWJlcjwvdGV4dD48dGV4dCBmaWxsPSIjMDAwMDAwIiBmb250LWZhbWlseT0ic2Fucy1zZXJpZiIgZm9udC1zaXplPSIxNCIgbGVuZ3RoQWRqdXN0PSJzcGFjaW5nIiB0ZXh0TGVuZ3RoPSIyNjYiIHg9IjE5OTAuNSIgeT0iNDQ5LjYwOTQiPm9yZGVyX3ByaWNlIDogZGVjaW1hbCgxMCwyKSAmIzE3MTtudWxsYWJsZSYjMTg3OzwvdGV4dD48dGV4dCBmaWxsPSIjMDAwMDAwIiBmb250LWZhbWlseT0ic2Fucy1zZXJpZiIgZm9udC1zaXplPSIxNCIgbGVuZ3RoQWRqdXN0PSJzcGFjaW5nIiB0ZXh0TGVuZ3RoPSIxNzUiIHg9IjE5OTAuNSIgeT0iNDY0LjU5MzgiPmVtcGxveWVlX2lkIDogbnVtYmVyICYjMTcxO0ZLJiMxODc7PC90ZXh0PjwvZz48IS0tY2xhc3MgcmVzdGF1cmFudC0tPjxnIGNsYXNzPSJlbnRpdHkiIGRhdGEtZW50aXR5PSJyZXN0YXVyYW50IiBkYXRhLXNvdXJjZS1saW5lPSIxNTUiIGRhdGEtdWlkPSJlbnQwMDE1IiBpZD0iZW50aXR5X3Jlc3RhdXJhbnQiPjxyZWN0IGZpbGw9IiNGMUYxRjEiIGhlaWdodD0iMTM3LjkwNjMiIHJ4PSIyLjUiIHJ5PSIyLjUiIHN0eWxlPSJzdHJva2U6IzE4MTgxODtzdHJva2Utd2lkdGg6MC41OyIgd2lkdGg9IjQ4OCIgeD0iMTQ2MS41IiB5PSIzMDIuNSIvPjxlbGxpcHNlIGN4PSIxNjY2LjI1IiBjeT0iMzE4LjUiIGZpbGw9IiNDMkMyQzIiIHJ4PSIxMSIgcnk9IjExIiBzdHlsZT0ic3Ryb2tlOiMxODE4MTg7c3Ryb2tlLXdpZHRoOjE7Ii8+PHBhdGggZD0iTTE2NjkuODc1LDMyNC41IEwxNjY5Ljg3NSwzMjIuNzUgTDE2NjQuNTYyNSwzMjIuNzUgUTE2NjQuNTYyNSwzMjIuNzUgMTY2NC41NjI1LDMxOS4xODc1IEwxNjY4LjgxMjUsMzE5LjE4NzUgTDE2NjguODEyNSwzMTcuNDM3NSBMMTY2NC41NjI1LDMxNy40Mzc1IEwxNjY0LjU2MjUsMzE0LjkzNzUgTDE2NjkuODc1LDMxNC45Mzc1IEwxNjY5Ljg3NSwzMTMuMTg3NSBMMTY2Mi44MTI1LDMxMy4xODc1IFExNjYyLjgxMjUsMzEzLjE4NzUgMTY2Mi44MTI1LDMyNC41IEwxNjY5Ljg3NSwzMjQuNSBaICIgZmlsbD0iIzAwMDAwMCIvPjx0ZXh0IGZpbGw9IiMwMDAwMDAiIGZvbnQtZmFtaWx5PSJzYW5zLXNlcmlmIiBmb250LXNpemU9IjE0IiBsZW5ndGhBZGp1c3Q9InNwYWNpbmciIHRleHRMZW5ndGg9IjcwIiB4PSIxNjg2Ljc1IiB5PSIzMjQuMjQyMiI+UmVzdGF1cmFudDwvdGV4dD48bGluZSBzdHlsZT0ic3Ryb2tlOiMxODE4MTg7c3Ryb2tlLXdpZHRoOjAuNTsiIHgxPSIxNDYyLjUiIHgyPSIxOTQ4LjUiIHkxPSIzMzQuNSIgeTI9IjMzNC41Ii8+PGVsbGlwc2UgY3g9IjE0NzIuNSIgY3k9IjM0Ny40OTIyIiBmaWxsPSIjMDAwMDAwIiByeD0iMyIgcnk9IjMiIHN0eWxlPSJzdHJva2U6IzAwMDAwMDtzdHJva2Utd2lkdGg6MTsiLz48dGV4dCBmaWxsPSIjMDAwMDAwIiBmb250LWZhbWlseT0ic2Fucy1zZXJpZiIgZm9udC1zaXplPSIxNCIgbGVuZ3RoQWRqdXN0PSJzcGFjaW5nIiB0ZXh0TGVuZ3RoPSIxNDciIHg9IjE0ODEuNSIgeT0iMzUxLjczNDQiPmZvb2RfaWQgOiBudW1iZXIgJiMxNzE7UEsmIzE4Nzs8L3RleHQ+PGxpbmUgc3R5bGU9InN0cm9rZTojMTgxODE4O3N0cm9rZS13aWR0aDoxOyIgeDE9IjE0NjIuNSIgeDI9IjE5NDguNSIgeTE9IjM1Ny40ODQ0IiB5Mj0iMzU3LjQ4NDQiLz48dGV4dCBmaWxsPSIjMDAwMDAwIiBmb250LWZhbWlseT0ic2Fucy1zZXJpZiIgZm9udC1zaXplPSIxNCIgbGVuZ3RoQWRqdXN0PSJzcGFjaW5nIiB0ZXh0TGVuZ3RoPSIxNjgiIHg9IjE0NjcuNSIgeT0iMzc0LjcxODgiPml0ZW1fbmFtZSA6IHZhcmNoYXIoMTAwKTwvdGV4dD48dGV4dCBmaWxsPSIjMDAwMDAwIiBmb250LWZhbWlseT0ic2Fucy1zZXJpZiIgZm9udC1zaXplPSIxNCIgbGVuZ3RoQWRqdXN0PSJzcGFjaW5nIiB0ZXh0TGVuZ3RoPSIxODIiIHg9IjE0NjcuNSIgeT0iMzg5LjcwMzEiPml0ZW1fcHJpY2UgOiBkZWNpbWFsKDEwLDIpPC90ZXh0Pjx0ZXh0IGZpbGw9IiMwMDAwMDAiIGZvbnQtZmFtaWx5PSJzYW5zLXNlcmlmIiBmb250LXNpemU9IjE0IiBsZW5ndGhBZGp1c3Q9InNwYWNpbmciIHRleHRMZW5ndGg9IjQ3NiIgeD0iMTQ2Ny41IiB5PSI0MDQuNjg3NSI+Zm9vZF90eXBlIDogZW51bShCUkVBS0ZBU1QsIExVTkNILCBESU5ORVIsIFNOQUNLLCBERVNTRVJULCBCRVZFUkFHRSk8L3RleHQ+PHRleHQgZmlsbD0iIzAwMDAwMCIgZm9udC1mYW1pbHk9InNhbnMtc2VyaWYiIGZvbnQtc2l6ZT0iMTQiIGxlbmd0aEFkanVzdD0ic3BhY2luZyIgdGV4dExlbmd0aD0iMjAzIiB4PSIxNDY3LjUiIHk9IjQxOS42NzE5Ij5kZXNjcmlwdGlvbiA6IHRleHQgJiMxNzE7bnVsbGFibGUmIzE4Nzs8L3RleHQ+PHRleHQgZmlsbD0iIzAwMDAwMCIgZm9udC1mYW1pbHk9InNhbnMtc2VyaWYiIGZvbnQtc2l6ZT0iMTQiIGxlbmd0aEFkanVzdD0ic3BhY2luZyIgdGV4dExlbmd0aD0iMTU0IiB4PSIxNDY3LjUiIHk9IjQzNC42NTYzIj5hdmFpbGFiaWxpdHkgOiBib29sZWFuPC90ZXh0PjwvZz48IS0tY2xhc3MgcmVzdGF1cmFudGhpc3RvcnktLT48ZyBjbGFzcz0iZW50aXR5IiBkYXRhLWVudGl0eT0icmVzdGF1cmFudGhpc3RvcnkiIGRhdGEtc291cmNlLWxpbmU9IjE2NSIgZGF0YS11aWQ9ImVudDAwMTYiIGlkPSJlbnRpdHlfcmVzdGF1cmFudGhpc3RvcnkiPjxyZWN0IGZpbGw9IiNGMUYxRjEiIGhlaWdodD0iMTUyLjg5MDYiIHJ4PSIyLjUiIHJ5PSIyLjUiIHN0eWxlPSJzdHJva2U6IzE4MTgxODtzdHJva2Utd2lkdGg6MC41OyIgd2lkdGg9IjE5NCIgeD0iMTczNi41IiB5PSI1OTgiLz48ZWxsaXBzZSBjeD0iMTc3MC44NSIgY3k9IjYxNCIgZmlsbD0iI0MyQzJDMiIgcng9IjExIiByeT0iMTEiIHN0eWxlPSJzdHJva2U6IzE4MTgxODtzdHJva2Utd2lkdGg6MTsiLz48cGF0aCBkPSJNMTc3NC40NzUsNjIwIEwxNzc0LjQ3NSw2MTguMjUgTDE3NjkuMTYyNSw2MTguMjUgUTE3NjkuMTYyNSw2MTguMjUgMTc2OS4xNjI1LDYxNC42ODc1IEwxNzczLjQxMjUsNjE0LjY4NzUgTDE3NzMuNDEyNSw2MTIuOTM3NSBMMTc2OS4xNjI1LDYxMi45Mzc1IEwxNzY5LjE2MjUsNjEwLjQzNzUgTDE3NzQuNDc1LDYxMC40Mzc1IEwxNzc0LjQ3NSw2MDguNjg3NSBMMTc2Ny40MTI1LDYwOC42ODc1IFExNzY3LjQxMjUsNjA4LjY4NzUgMTc2Ny40MTI1LDYyMCBMMTc3NC40NzUsNjIwIFogIiBmaWxsPSIjMDAwMDAwIi8+PHRleHQgZmlsbD0iIzAwMDAwMCIgZm9udC1mYW1pbHk9InNhbnMtc2VyaWYiIGZvbnQtc2l6ZT0iMTQiIGxlbmd0aEFkanVzdD0ic3BhY2luZyIgdGV4dExlbmd0aD0iMTE5IiB4PSIxNzg5LjE1IiB5PSI2MTkuNzQyMiI+UmVzdGF1cmFudEhpc3Rvcnk8L3RleHQ+PGxpbmUgc3R5bGU9InN0cm9rZTojMTgxODE4O3N0cm9rZS13aWR0aDowLjU7IiB4MT0iMTczNy41IiB4Mj0iMTkyOS41IiB5MT0iNjMwIiB5Mj0iNjMwIi8+PGVsbGlwc2UgY3g9IjE3NDcuNSIgY3k9IjY0Mi45OTIyIiBmaWxsPSIjMDAwMDAwIiByeD0iMyIgcnk9IjMiIHN0eWxlPSJzdHJva2U6IzAwMDAwMDtzdHJva2Utd2lkdGg6MTsiLz48dGV4dCBmaWxsPSIjMDAwMDAwIiBmb250LWZhbWlseT0ic2Fucy1zZXJpZiIgZm9udC1zaXplPSIxNCIgbGVuZ3RoQWRqdXN0PSJzcGFjaW5nIiB0ZXh0TGVuZ3RoPSIxNTQiIHg9IjE3NTYuNSIgeT0iNjQ3LjIzNDQiPm9yZGVyX2lkIDogbnVtYmVyICYjMTcxO1BLJiMxODc7PC90ZXh0PjxsaW5lIHN0eWxlPSJzdHJva2U6IzE4MTgxODtzdHJva2Utd2lkdGg6MTsiIHgxPSIxNzM3LjUiIHgyPSIxOTI5LjUiIHkxPSI2NTIuOTg0NCIgeTI9IjY1Mi45ODQ0Ii8+PHRleHQgZmlsbD0iIzAwMDAwMCIgZm9udC1mYW1pbHk9InNhbnMtc2VyaWYiIGZvbnQtc2l6ZT0iMTQiIGxlbmd0aEFkanVzdD0ic3BhY2luZyIgdGV4dExlbmd0aD0iMTE5IiB4PSIxNzQyLjUiIHk9IjY3MC4yMTg4Ij5xdWFudGl0eSA6IG51bWJlcjwvdGV4dD48dGV4dCBmaWxsPSIjMDAwMDAwIiBmb250LWZhbWlseT0ic2Fucy1zZXJpZiIgZm9udC1zaXplPSIxNCIgbGVuZ3RoQWRqdXN0PSJzcGFjaW5nIiB0ZXh0TGVuZ3RoPSIxODIiIHg9IjE3NDIuNSIgeT0iNjg1LjIwMzEiPmZvb2RfcHJpY2UgOiBkZWNpbWFsKDEwLDIpPC90ZXh0Pjx0ZXh0IGZpbGw9IiMwMDAwMDAiIGZvbnQtZmFtaWx5PSJzYW5zLXNlcmlmIiBmb250LXNpemU9IjE0IiBsZW5ndGhBZGp1c3Q9InNwYWNpbmciIHRleHRMZW5ndGg9IjE1NCIgeD0iMTc0Mi41IiB5PSI3MDAuMTg3NSI+b3JkZXJfZGF0ZSA6IHRpbWVzdGFtcDwvdGV4dD48dGV4dCBmaWxsPSIjMDAwMDAwIiBmb250LWZhbWlseT0ic2Fucy1zZXJpZiIgZm9udC1zaXplPSIxNCIgbGVuZ3RoQWRqdXN0PSJzcGFjaW5nIiB0ZXh0TGVuZ3RoPSIxNjgiIHg9IjE3NDIuNSIgeT0iNzE1LjE3MTkiPmJvb2tpbmdfaWQgOiBudW1iZXIgJiMxNzE7RksmIzE4Nzs8L3RleHQ+PHRleHQgZmlsbD0iIzAwMDAwMCIgZm9udC1mYW1pbHk9InNhbnMtc2VyaWYiIGZvbnQtc2l6ZT0iMTQiIGxlbmd0aEFkanVzdD0ic3BhY2luZyIgdGV4dExlbmd0aD0iMTQ3IiB4PSIxNzQyLjUiIHk9IjczMC4xNTYzIj5mb29kX2lkIDogbnVtYmVyICYjMTcxO0ZLJiMxODc7PC90ZXh0Pjx0ZXh0IGZpbGw9IiMwMDAwMDAiIGZvbnQtZmFtaWx5PSJzYW5zLXNlcmlmIiBmb250LXNpemU9IjE0IiBsZW5ndGhBZGp1c3Q9InNwYWNpbmciIHRleHRMZW5ndGg9IjE3NSIgeD0iMTc0Mi41IiB5PSI3NDUuMTQwNiI+ZW1wbG95ZWVfaWQgOiBudW1iZXIgJiMxNzE7RksmIzE4Nzs8L3RleHQ+PC9nPjwhLS1jbGFzcyBzYWxhcnktLT48ZyBjbGFzcz0iZW50aXR5IiBkYXRhLWVudGl0eT0ic2FsYXJ5IiBkYXRhLXNvdXJjZS1saW5lPSIxNzYiIGRhdGEtdWlkPSJlbnQwMDE3IiBpZD0iZW50aXR5X3NhbGFyeSI+PHJlY3QgZmlsbD0iI0YxRjFGMSIgaGVpZ2h0PSIxMzcuOTA2MyIgcng9IjIuNSIgcnk9IjIuNSIgc3R5bGU9InN0cm9rZTojMTgxODE4O3N0cm9rZS13aWR0aDowLjU7IiB3aWR0aD0iMjc4IiB4PSIyODk1LjUiIHk9IjMwMi41Ii8+PGVsbGlwc2UgY3g9IjMwMDkuMjUiIGN5PSIzMTguNSIgZmlsbD0iI0MyQzJDMiIgcng9IjExIiByeT0iMTEiIHN0eWxlPSJzdHJva2U6IzE4MTgxODtzdHJva2Utd2lkdGg6MTsiLz48cGF0aCBkPSJNMzAxMi44NzUsMzI0LjUgTDMwMTIuODc1LDMyMi43NSBMMzAwNy41NjI1LDMyMi43NSBRMzAwNy41NjI1LDMyMi43NSAzMDA3LjU2MjUsMzE5LjE4NzUgTDMwMTEuODEyNSwzMTkuMTg3NSBMMzAxMS44MTI1LDMxNy40Mzc1IEwzMDA3LjU2MjUsMzE3LjQzNzUgTDMwMDcuNTYyNSwzMTQuOTM3NSBMMzAxMi44NzUsMzE0LjkzNzUgTDMwMTIuODc1LDMxMy4xODc1IEwzMDA1LjgxMjUsMzEzLjE4NzUgUTMwMDUuODEyNSwzMTMuMTg3NSAzMDA1LjgxMjUsMzI0LjUgTDMwMTIuODc1LDMyNC41IFogIiBmaWxsPSIjMDAwMDAwIi8+PHRleHQgZmlsbD0iIzAwMDAwMCIgZm9udC1mYW1pbHk9InNhbnMtc2VyaWYiIGZvbnQtc2l6ZT0iMTQiIGxlbmd0aEFkanVzdD0ic3BhY2luZyIgdGV4dExlbmd0aD0iNDIiIHg9IjMwMjkuNzUiIHk9IjMyNC4yNDIyIj5TYWxhcnk8L3RleHQ+PGxpbmUgc3R5bGU9InN0cm9rZTojMTgxODE4O3N0cm9rZS13aWR0aDowLjU7IiB4MT0iMjg5Ni41IiB4Mj0iMzE3Mi41IiB5MT0iMzM0LjUiIHkyPSIzMzQuNSIvPjxlbGxpcHNlIGN4PSIyOTA2LjUiIGN5PSIzNDcuNDkyMiIgZmlsbD0iIzAwMDAwMCIgcng9IjMiIHJ5PSIzIiBzdHlsZT0ic3Ryb2tlOiMwMDAwMDA7c3Ryb2tlLXdpZHRoOjE7Ii8+PHRleHQgZmlsbD0iIzAwMDAwMCIgZm9udC1mYW1pbHk9InNhbnMtc2VyaWYiIGZvbnQtc2l6ZT0iMTQiIGxlbmd0aEFkanVzdD0ic3BhY2luZyIgdGV4dExlbmd0aD0iMTYxIiB4PSIyOTE1LjUiIHk9IjM1MS43MzQ0Ij5zYWxhcnlfaWQgOiBudW1iZXIgJiMxNzE7UEsmIzE4Nzs8L3RleHQ+PGxpbmUgc3R5bGU9InN0cm9rZTojMTgxODE4O3N0cm9rZS13aWR0aDoxOyIgeDE9IjI4OTYuNSIgeDI9IjMxNzIuNSIgeTE9IjM1Ny40ODQ0IiB5Mj0iMzU3LjQ4NDQiLz48dGV4dCBmaWxsPSIjMDAwMDAwIiBmb250LWZhbWlseT0ic2Fucy1zZXJpZiIgZm9udC1zaXplPSIxNCIgbGVuZ3RoQWRqdXN0PSJzcGFjaW5nIiB0ZXh0TGVuZ3RoPSIxNTQiIHg9IjI5MDEuNSIgeT0iMzc0LjcxODgiPmFtb3VudCA6IGRlY2ltYWwoMTAsMik8L3RleHQ+PHRleHQgZmlsbD0iIzAwMDAwMCIgZm9udC1mYW1pbHk9InNhbnMtc2VyaWYiIGZvbnQtc2l6ZT0iMTQiIGxlbmd0aEFkanVzdD0ic3BhY2luZyIgdGV4dExlbmd0aD0iMTMzIiB4PSIyOTAxLjUiIHk9IjM4OS43MDMxIj5wYXltZW50X2RhdGUgOiBkYXRlPC90ZXh0Pjx0ZXh0IGZpbGw9IiMwMDAwMDAiIGZvbnQtZmFtaWx5PSJzYW5zLXNlcmlmIiBmb250LXNpemU9IjE0IiBsZW5ndGhBZGp1c3Q9InNwYWNpbmciIHRleHRMZW5ndGg9IjI2NiIgeD0iMjkwMS41IiB5PSI0MDQuNjg3NSI+c3RhdHVzIDogZW51bShQRU5ESU5HLCBQQUlELCBESVNQVVRFRCk8L3RleHQ+PHRleHQgZmlsbD0iIzAwMDAwMCIgZm9udC1mYW1pbHk9InNhbnMtc2VyaWYiIGZvbnQtc2l6ZT0iMTQiIGxlbmd0aEFkanVzdD0ic3BhY2luZyIgdGV4dExlbmd0aD0iMTc1IiB4PSIyOTAxLjUiIHk9IjQxOS42NzE5Ij5lbXBsb3llZV9pZCA6IG51bWJlciAmIzE3MTtGSyYjMTg3OzwvdGV4dD48dGV4dCBmaWxsPSIjMDAwMDAwIiBmb250LWZhbWlseT0ic2Fucy1zZXJpZiIgZm9udC1zaXplPSIxNCIgbGVuZ3RoQWRqdXN0PSJzcGFjaW5nIiB0ZXh0TGVuZ3RoPSIyMzEiIHg9IjI5MDEuNSIgeT0iNDM0LjY1NjMiPnBhaWRfYnlfZW1wbG95ZWVfaWQgOiBudW1iZXIgJiMxNzE7RksmIzE4Nzs8L3RleHQ+PC9nPjwhLS1jbGFzcyBzYWxhcnloaXN0b3J5LS0+PGcgY2xhc3M9ImVudGl0eSIgZGF0YS1lbnRpdHk9InNhbGFyeWhpc3RvcnkiIGRhdGEtc291cmNlLWxpbmU9IjE4NiIgZGF0YS11aWQ9ImVudDAwMTgiIGlkPSJlbnRpdHlfc2FsYXJ5aGlzdG9yeSI+PHJlY3QgZmlsbD0iI0YxRjFGMSIgaGVpZ2h0PSIxODIuODU5NCIgcng9IjIuNSIgcnk9IjIuNSIgc3R5bGU9InN0cm9rZTojMTgxODE4O3N0cm9rZS13aWR0aDowLjU7IiB3aWR0aD0iNDE4IiB4PSIyMzQ0LjUiIHk9IjU4MyIvPjxlbGxpcHNlIGN4PSIyNTAzLjc1IiBjeT0iNTk5IiBmaWxsPSIjQzJDMkMyIiByeD0iMTEiIHJ5PSIxMSIgc3R5bGU9InN0cm9rZTojMTgxODE4O3N0cm9rZS13aWR0aDoxOyIvPjxwYXRoIGQ9Ik0yNTA3LjM3NSw2MDUgTDI1MDcuMzc1LDYwMy4yNSBMMjUwMi4wNjI1LDYwMy4yNSBRMjUwMi4wNjI1LDYwMy4yNSAyNTAyLjA2MjUsNTk5LjY4NzUgTDI1MDYuMzEyNSw1OTkuNjg3NSBMMjUwNi4zMTI1LDU5Ny45Mzc1IEwyNTAyLjA2MjUsNTk3LjkzNzUgTDI1MDIuMDYyNSw1OTUuNDM3NSBMMjUwNy4zNzUsNTk1LjQzNzUgTDI1MDcuMzc1LDU5My42ODc1IEwyNTAwLjMxMjUsNTkzLjY4NzUgUTI1MDAuMzEyNSw1OTMuNjg3NSAyNTAwLjMxMjUsNjA1IEwyNTA3LjM3NSw2MDUgWiAiIGZpbGw9IiMwMDAwMDAiLz48dGV4dCBmaWxsPSIjMDAwMDAwIiBmb250LWZhbWlseT0ic2Fucy1zZXJpZiIgZm9udC1zaXplPSIxNCIgbGVuZ3RoQWRqdXN0PSJzcGFjaW5nIiB0ZXh0TGVuZ3RoPSI5MSIgeD0iMjUyNC4yNSIgeT0iNjA0Ljc0MjIiPlNhbGFyeUhpc3Rvcnk8L3RleHQ+PGxpbmUgc3R5bGU9InN0cm9rZTojMTgxODE4O3N0cm9rZS13aWR0aDowLjU7IiB4MT0iMjM0NS41IiB4Mj0iMjc2MS41IiB5MT0iNjE1IiB5Mj0iNjE1Ii8+PGVsbGlwc2UgY3g9IjIzNTUuNSIgY3k9IjYyNy45OTIyIiBmaWxsPSIjMDAwMDAwIiByeD0iMyIgcnk9IjMiIHN0eWxlPSJzdHJva2U6IzAwMDAwMDtzdHJva2Utd2lkdGg6MTsiLz48dGV4dCBmaWxsPSIjMDAwMDAwIiBmb250LWZhbWlseT0ic2Fucy1zZXJpZiIgZm9udC1zaXplPSIxNCIgbGVuZ3RoQWRqdXN0PSJzcGFjaW5nIiB0ZXh0TGVuZ3RoPSIxNjgiIHg9IjIzNjQuNSIgeT0iNjMyLjIzNDQiPmhpc3RvcnlfaWQgOiBudW1iZXIgJiMxNzE7UEsmIzE4Nzs8L3RleHQ+PGxpbmUgc3R5bGU9InN0cm9rZTojMTgxODE4O3N0cm9rZS13aWR0aDoxOyIgeDE9IjIzNDUuNSIgeDI9IjI3NjEuNSIgeTE9IjYzNy45ODQ0IiB5Mj0iNjM3Ljk4NDQiLz48dGV4dCBmaWxsPSIjMDAwMDAwIiBmb250LWZhbWlseT0ic2Fucy1zZXJpZiIgZm9udC1zaXplPSIxNCIgbGVuZ3RoQWRqdXN0PSJzcGFjaW5nIiB0ZXh0TGVuZ3RoPSI0MDYiIHg9IjIzNTAuNSIgeT0iNjU1LjIxODgiPmFjdGlvbl90eXBlIDogZW51bShQQVlNRU5ULCBBREpVU1RNRU5ULCBESVNQVVRFLCBBUFBST1ZBTCk8L3RleHQ+PHRleHQgZmlsbD0iIzAwMDAwMCIgZm9udC1mYW1pbHk9InNhbnMtc2VyaWYiIGZvbnQtc2l6ZT0iMTQiIGxlbmd0aEFkanVzdD0ic3BhY2luZyIgdGV4dExlbmd0aD0iOTgiIHg9IjIzNTAuNSIgeT0iNjcwLjIwMzEiPmRldGFpbHMgOiB0ZXh0PC90ZXh0Pjx0ZXh0IGZpbGw9IiMwMDAwMDAiIGZvbnQtZmFtaWx5PSJzYW5zLXNlcmlmIiBmb250LXNpemU9IjE0IiBsZW5ndGhBZGp1c3Q9InNwYWNpbmciIHRleHRMZW5ndGg9IjE0NyIgeD0iMjM1MC41IiB5PSI2ODUuMTg3NSI+Ym9udXMgOiBkZWNpbWFsKDEwLDIpPC90ZXh0Pjx0ZXh0IGZpbGw9IiMwMDAwMDAiIGZvbnQtZmFtaWx5PSJzYW5zLXNlcmlmIiBmb250LXNpemU9IjE0IiBsZW5ndGhBZGp1c3Q9InNwYWNpbmciIHRleHRMZW5ndGg9IjE4OSIgeD0iMjM1MC41IiB5PSI3MDAuMTcxOSI+dG90YWxTYWxhcnkgOiBkZWNpbWFsKDEwLDIpPC90ZXh0Pjx0ZXh0IGZpbGw9IiMwMDAwMDAiIGZvbnQtZmFtaWx5PSJzYW5zLXNlcmlmIiBmb250LXNpemU9IjE0IiBsZW5ndGhBZGp1c3Q9InNwYWNpbmciIHRleHRMZW5ndGg9IjE0NyIgeD0iMjM1MC41IiB5PSI3MTUuMTU2MyI+dGltZXN0YW1wIDogdGltZXN0YW1wPC90ZXh0Pjx0ZXh0IGZpbGw9IiMwMDAwMDAiIGZvbnQtZmFtaWx5PSJzYW5zLXNlcmlmIiBmb250LXNpemU9IjE0IiBsZW5ndGhBZGp1c3Q9InNwYWNpbmciIHRleHRMZW5ndGg9IjE3NSIgeD0iMjM1MC41IiB5PSI3MzAuMTQwNiI+ZW1wbG95ZWVfaWQgOiBudW1iZXIgJiMxNzE7RksmIzE4Nzs8L3RleHQ+PHRleHQgZmlsbD0iIzAwMDAwMCIgZm9udC1mYW1pbHk9InNhbnMtc2VyaWYiIGZvbnQtc2l6ZT0iMTQiIGxlbmd0aEFkanVzdD0ic3BhY2luZyIgdGV4dExlbmd0aD0iMjU5IiB4PSIyMzUwLjUiIHk9Ijc0NS4xMjUiPnJlY29yZGVkX2J5X2VtcGxveWVlX2lkIDogbnVtYmVyICYjMTcxO0ZLJiMxODc7PC90ZXh0Pjx0ZXh0IGZpbGw9IiMwMDAwMDAiIGZvbnQtZmFtaWx5PSJzYW5zLXNlcmlmIiBmb250LXNpemU9IjE0IiBsZW5ndGhBZGp1c3Q9InNwYWNpbmciIHRleHRMZW5ndGg9IjIzOCIgeD0iMjM1MC41IiB5PSI3NjAuMTA5NCI+c2FsYXJ5X2lkIDogbnVtYmVyICYjMTcxO0ZLJiMxODc7ICYjMTcxO251bGxhYmxlJiMxODc7PC90ZXh0PjwvZz48IS0tbGluayBlbXBsb3llZSB0byBtYW5hZ2VtZW50LS0+PGcgY2xhc3M9ImxpbmsiIGRhdGEtZW50aXR5LTE9ImVtcGxveWVlIiBkYXRhLWVudGl0eS0yPSJtYW5hZ2VtZW50IiBkYXRhLXNvdXJjZS1saW5lPSIyMDAiIGRhdGEtdWlkPSJsbmsxOSIgaWQ9ImxpbmtfZW1wbG95ZWVfbWFuYWdlbWVudCI+PHBhdGggY29kZUxpbmU9IjIwMCIgZD0iTTI1NTAuNTczLDE2NS4xMTc1IEMyNTYyLjc1MywxNzQuNzk3NSAyNTY4LjQ3LDE3OS44OSAyNTc5LjUsMTkwIEMyNjE5LjgyLDIyNi45NyAyNjQ5LjA1MzQsMjU5LjQ4NjcgMjY3OS4xNzM0LDI5NS45ODY3IiBmaWxsPSJub25lIiBpZD0iZW1wbG95ZWUtbWFuYWdlbWVudCIgc3R5bGU9InN0cm9rZTojMTgxODE4O3N0cm9rZS13aWR0aDoxOyIvPjxsaW5lIHN0eWxlPSJzdHJva2U6IzE4MTgxODtzdHJva2Utd2lkdGg6MTsiIHgxPSIyNTQ0Ljk1MjgiIHgyPSIyNTQ5LjkzMDIiIHkxPSIxNjUuNzYwMiIgeTI9IjE1OS40OTcyIi8+PGxpbmUgc3R5bGU9InN0cm9rZTojMTgxODE4O3N0cm9rZS13aWR0aDoxOyIgeDE9IjI1NDcuMzAxNCIgeDI9IjI1NTIuMjc4OCIgeTE9IjE2Ny42MjY4IiB5Mj0iMTYxLjM2MzgiLz48bGluZSBzdHlsZT0ic3Ryb2tlOiMxODE4MTg7c3Ryb2tlLXdpZHRoOjE7IiB4MT0iMjU1MC41NzMiIHgyPSIyNTQ0LjMxIiB5MT0iMTY1LjExNzUiIHkyPSIxNjAuMTQiLz48bGluZSBzdHlsZT0ic3Ryb2tlOiMxODE4MTg7c3Ryb2tlLXdpZHRoOjE7IiB4MT0iMjY4NS41MzgyIiB4Mj0iMjY5NS4yNTc4IiB5MT0iMzAzLjY5OTYiIHkyPSIzMDYuMDUxMSIvPjxsaW5lIHN0eWxlPSJzdHJva2U6IzE4MTgxODtzdHJva2Utd2lkdGg6MTsiIHgxPSIyNjg1LjUzODIiIHgyPSIyNjg2LjAwMjIiIHkxPSIzMDMuNjk5NiIgeTI9IjMxMy42ODg5Ii8+PGxpbmUgc3R5bGU9InN0cm9rZTojMTgxODE4O3N0cm9rZS13aWR0aDoxOyIgeDE9IjI2ODUuNTM4MiIgeDI9IjI2OTAuNjMiIHkxPSIzMDMuNjk5NiIgeTI9IjMwOS44NyIvPjxlbGxpcHNlIGN4PSIyNjgxLjcxOTMiIGN5PSIyOTkuMDcxOSIgZmlsbD0ibm9uZSIgcng9IjQiIHJ5PSI0IiBzdHlsZT0ic3Ryb2tlOiMxODE4MTg7c3Ryb2tlLXdpZHRoOjE7Ii8+PHRleHQgZmlsbD0iIzAwMDAwMCIgZm9udC1mYW1pbHk9InNhbnMtc2VyaWYiIGZvbnQtc2l6ZT0iMTMiIGxlbmd0aEFkanVzdD0ic3BhY2luZyIgdGV4dExlbmd0aD0iNDUuNSIgeD0iMjU5NS41IiB5PSIyMDMuMjg5MSI+bWFuYWdlczwvdGV4dD48L2c+PCEtLWxpbmsgZW1wbG95ZWUgdG8gYm9va2luZy0tPjxnIGNsYXNzPSJsaW5rIiBkYXRhLWVudGl0eS0xPSJlbXBsb3llZSIgZGF0YS1lbnRpdHktMj0iYm9va2luZyIgZGF0YS1zb3VyY2UtbGluZT0iMjAxIiBkYXRhLXVpZD0ibG5rMjAiIGlkPSJsaW5rX2VtcGxveWVlX2Jvb2tpbmciPjxwYXRoIGNvZGVMaW5lPSIyMDEiIGQ9Ik0yMjYxLjQ3MDcsODUuMzE2MyBDMTk4OC45NzA3LDg4LjkzNjMgMTQ3MC42NCwxMDYuNzYgMTMwNi41LDE5MCBDMTI4NC4yOCwyMDEuMjcgMTI3Ni43NjEyLDIwNC42MjIzIDEyNTguMzMxMiwyMjIuMjEyMyIgZmlsbD0ibm9uZSIgaWQ9ImVtcGxveWVlLWJvb2tpbmciIHN0eWxlPSJzdHJva2U6IzE4MTgxODtzdHJva2Utd2lkdGg6MTsiLz48bGluZSBzdHlsZT0ic3Ryb2tlOiMxODE4MTg7c3Ryb2tlLXdpZHRoOjE7IiB4MT0iMjI2NS40MTcyIiB4Mj0iMjI2NS41MjM1IiB5MT0iODEuMjYzNSIgeTI9Ijg5LjI2MjgiLz48bGluZSBzdHlsZT0ic3Ryb2tlOiMxODE4MTg7c3Ryb2tlLXdpZHRoOjE7IiB4MT0iMjI2Mi40MTc1IiB4Mj0iMjI2Mi41MjM4IiB5MT0iODEuMzAzMyIgeTI9Ijg5LjMwMjYiLz48bGluZSBzdHlsZT0ic3Ryb2tlOiMxODE4MTg7c3Ryb2tlLXdpZHRoOjE7IiB4MT0iMjI2MS40NzA3IiB4Mj0iMjI2OS40NyIgeTE9Ijg1LjMxNjMiIHkyPSI4NS4yMSIvPjxsaW5lIHN0eWxlPSJzdHJva2U6IzE4MTgxODtzdHJva2Utd2lkdGg6MTsiIHgxPSIxMjUxLjA5NzIiIHgyPSIxMjQ5LjQ1MjYiIHkxPSIyMjkuMTE2NiIgeTI9IjIzOC45ODA0Ii8+PGxpbmUgc3R5bGU9InN0cm9rZTojMTgxODE4O3N0cm9rZS13aWR0aDoxOyIgeDE9IjEyNTEuMDk3MiIgeDI9IjEyNDEuMTY3NCIgeTE9IjIyOS4xMTY2IiB5Mj0iMjMwLjI5OTYiLz48bGluZSBzdHlsZT0ic3Ryb2tlOiMxODE4MTg7c3Ryb2tlLXdpZHRoOjE7IiB4MT0iMTI1MS4wOTcyIiB4Mj0iMTI0NS4zMSIgeTE9IjIyOS4xMTY2IiB5Mj0iMjM0LjY0Ii8+PGVsbGlwc2UgY3g9IjEyNTUuNDM3NiIgY3k9IjIyNC45NzQiIGZpbGw9Im5vbmUiIHJ4PSI0IiByeT0iNCIgc3R5bGU9InN0cm9rZTojMTgxODE4O3N0cm9rZS13aWR0aDoxOyIvPjx0ZXh0IGZpbGw9IiMwMDAwMDAiIGZvbnQtZmFtaWx5PSJzYW5zLXNlcmlmIiBmb250LXNpemU9IjEzIiBsZW5ndGhBZGp1c3Q9InNwYWNpbmciIHRleHRMZW5ndGg9IjQ1LjUiIHg9IjEzMDcuNSIgeT0iMjAzLjI4OTEiPmhhbmRsZXM8L3RleHQ+PC9nPjwhLS1saW5rIGVtcGxveWVlIHRvIGNvdXBvbi0tPjxnIGNsYXNzPSJsaW5rIiBkYXRhLWVudGl0eS0xPSJlbXBsb3llZSIgZGF0YS1lbnRpdHktMj0iY291cG9uIiBkYXRhLXNvdXJjZS1saW5lPSIyMDIiIGRhdGEtdWlkPSJsbmsyMSIgaWQ9ImxpbmtfZW1wbG95ZWVfY291cG9uIj48cGF0aCBjb2RlTGluZT0iMjAyIiBkPSJNMjI2MS40NzU0LDk3LjQ0NjcgQzE5ODIuMDY1NCwxMTkuNzU2NyAxNDUyLjc3LDE3MCAxMzk2LjUsMjM1IEMxMzE3LjA5LDMyNi43MyAxMzUwLjA3LDM5NS45IDEzOTYuNSw1MDggQzE0MDMuNzIsNTI1LjQyIDE0MTcuNjcsNTIxLjM0IDE0MjYuNSw1MzggQzE0MzcuMzgsNTU4LjUzIDE0NDAuODEyNiw1NjUuMTkxMyAxNDQ0LjUyMjYsNTg3LjYyMTMiIGZpbGw9Im5vbmUiIGlkPSJlbXBsb3llZS1jb3Vwb24iIHN0eWxlPSJzdHJva2U6IzE4MTgxODtzdHJva2Utd2lkdGg6MTsiLz48bGluZSBzdHlsZT0ic3Ryb2tlOiMxODE4MTg7c3Ryb2tlLXdpZHRoOjE7IiB4MT0iMjI2NS4xNDQzIiB4Mj0iMjI2NS43ODExIiB5MT0iOTMuMTQxMSIgeTI9IjEwMS4xMTU3Ii8+PGxpbmUgc3R5bGU9InN0cm9rZTojMTgxODE4O3N0cm9rZS13aWR0aDoxOyIgeDE9IjIyNjIuMTUzOCIgeDI9IjIyNjIuNzkwNiIgeTE9IjkzLjM3OTgiIHkyPSIxMDEuMzU0NSIvPjxsaW5lIHN0eWxlPSJzdHJva2U6IzE4MTgxODtzdHJva2Utd2lkdGg6MTsiIHgxPSIyMjYxLjQ3NTQiIHgyPSIyMjY5LjQ1IiB5MT0iOTcuNDQ2NyIgeTI9Ijk2LjgxIi8+PGxpbmUgc3R5bGU9InN0cm9rZTojMTgxODE4O3N0cm9rZS13aWR0aDoxOyIgeDE9IjE0NDYuMTU0NSIgeDI9IjE0NTMuMzc5NiIgeTE9IjU5Ny40ODcyIiB5Mj0iNjA0LjQwMDkiLz48bGluZSBzdHlsZT0ic3Ryb2tlOiMxODE4MTg7c3Ryb2tlLXdpZHRoOjE7IiB4MT0iMTQ0Ni4xNTQ1IiB4Mj0iMTQ0MS41NDA0IiB5MT0iNTk3LjQ4NzIiIHkyPSI2MDYuMzU5MSIvPjxsaW5lIHN0eWxlPSJzdHJva2U6IzE4MTgxODtzdHJva2Utd2lkdGg6MTsiIHgxPSIxNDQ2LjE1NDUiIHgyPSIxNDQ3LjQ2IiB5MT0iNTk3LjQ4NzIiIHkyPSI2MDUuMzgiLz48ZWxsaXBzZSBjeD0iMTQ0NS4xNzU0IiBjeT0iNTkxLjU2NzciIGZpbGw9Im5vbmUiIHJ4PSI0IiByeT0iNCIgc3R5bGU9InN0cm9rZTojMTgxODE4O3N0cm9rZS13aWR0aDoxOyIvPjx0ZXh0IGZpbGw9IiMwMDAwMDAiIGZvbnQtZmFtaWx5PSJzYW5zLXNlcmlmIiBmb250LXNpemU9IjEzIiBsZW5ndGhBZGp1c3Q9InNwYWNpbmciIHRleHRMZW5ndGg9IjQ1LjUiIHg9IjEzOTcuNSIgeT0iMzc3LjI4OTEiPmNyZWF0ZXM8L3RleHQ+PC9nPjwhLS1saW5rIGVtcGxveWVlIHRvIGNvdXBvbnVzYWdlLS0+PGcgY2xhc3M9ImxpbmsiIGRhdGEtZW50aXR5LTE9ImVtcGxveWVlIiBkYXRhLWVudGl0eS0yPSJjb3Vwb251c2FnZSIgZGF0YS1zb3VyY2UtbGluZT0iMjAzIiBkYXRhLXVpZD0ibG5rMjIiIGlkPSJsaW5rX2VtcGxveWVlX2NvdXBvbnVzYWdlIj48cGF0aCBjb2RlTGluZT0iMjAzIiBkPSJNMjI2MS4yNzg3LDkyLjAzMjcgQzE4OTcuNDQ4NywxMDkuMDAyNyAxMDY2LjQyLDE1NS45NSA5NjUuNSwyMzUgQzg0Ni4yLDMyOC40NCA4MjMuOTEsNDAyLjYxIDg0Mi41LDU1MyBDODU2LjYzLDY2Ny4zMSA4ODguNDQ3Miw3NzkuNTQ5NCA5MTEuODg3Miw4NTMuNTg5NCIgZmlsbD0ibm9uZSIgaWQ9ImVtcGxveWVlLWNvdXBvbnVzYWdlIiBzdHlsZT0ic3Ryb2tlOiMxODE4MTg7c3Ryb2tlLXdpZHRoOjE7Ii8+PGxpbmUgc3R5bGU9InN0cm9rZTojMTgxODE4O3N0cm9rZS13aWR0aDoxOyIgeDE9IjIyNjUuMDg4IiB4Mj0iMjI2NS40NjA3IiB5MT0iODcuODUwNyIgeTI9Ijk1Ljg0MiIvPjxsaW5lIHN0eWxlPSJzdHJva2U6IzE4MTgxODtzdHJva2Utd2lkdGg6MTsiIHgxPSIyMjYyLjA5MTIiIHgyPSIyMjYyLjQ2NCIgeTE9Ijg3Ljk5MDUiIHkyPSI5NS45ODE4Ii8+PGxpbmUgc3R5bGU9InN0cm9rZTojMTgxODE4O3N0cm9rZS13aWR0aDoxOyIgeDE9IjIyNjEuMjc4NyIgeDI9IjIyNjkuMjciIHkxPSI5Mi4wMzI3IiB5Mj0iOTEuNjYiLz48bGluZSBzdHlsZT0ic3Ryb2tlOiMxODE4MTg7c3Ryb2tlLXdpZHRoOjE7IiB4MT0iOTE0LjkwNTQiIHgyPSI5MjMuMDQwMiIgeTE9Ijg2My4xMjMxIiB5Mj0iODY4LjkzOTEiLz48bGluZSBzdHlsZT0ic3Ryb2tlOiMxODE4MTg7c3Ryb2tlLXdpZHRoOjE7IiB4MT0iOTE0LjkwNTQiIHgyPSI5MTEuNTk5OCIgeTE9Ijg2My4xMjMxIiB5Mj0iODcyLjU2MDkiLz48bGluZSBzdHlsZT0ic3Ryb2tlOiMxODE4MTg7c3Ryb2tlLXdpZHRoOjE7IiB4MT0iOTE0LjkwNTQiIHgyPSI5MTcuMzIiIHkxPSI4NjMuMTIzMSIgeTI9Ijg3MC43NSIvPjxlbGxpcHNlIGN4PSI5MTMuMDk0NSIgY3k9Ijg1Ny40MDI5IiBmaWxsPSJub25lIiByeD0iNCIgcnk9IjQiIHN0eWxlPSJzdHJva2U6IzE4MTgxODtzdHJva2Utd2lkdGg6MTsiLz48dGV4dCBmaWxsPSIjMDAwMDAwIiBmb250LWZhbWlseT0ic2Fucy1zZXJpZiIgZm9udC1zaXplPSIxMyIgbGVuZ3RoQWRqdXN0PSJzcGFjaW5nIiB0ZXh0TGVuZ3RoPSI0NS41IiB4PSI4NDMuNSIgeT0iNTUxLjI4OTEiPmFwcGxpZXM8L3RleHQ+PC9nPjwhLS1saW5rIGVtcGxveWVlIHRvIHJvb21pdGVtLS0+PGcgY2xhc3M9ImxpbmsiIGRhdGEtZW50aXR5LTE9ImVtcGxveWVlIiBkYXRhLWVudGl0eS0yPSJyb29taXRlbSIgZGF0YS1zb3VyY2UtbGluZT0iMjA0IiBkYXRhLXVpZD0ibG5rMjMiIGlkPSJsaW5rX2VtcGxveWVlX3Jvb21pdGVtIj48cGF0aCBjb2RlTGluZT0iMjA0IiBkPSJNMjI2MS4yNjI1LDg4LjQ4OSBDMTg2Mi45ODI1LDk4LjM5OSA4NzUuMTcsMTI4LjUxIDU0Ny41LDE5MCBDNDg0LjA5LDIwMS45IDQ1NS4wMywxODkuMyA0MDkuNSwyMzUgQzIzOS4yOCw0MDUuODggMjYwLjkzLDUyNy42IDI5Ny41LDc2NiBDMzAyLjA5LDc5NS45MiAzMDUuNDA1Myw4MTAuNzcxMiAzMTQuNjQ1Myw4MzguNTMxMiIgZmlsbD0ibm9uZSIgaWQ9ImVtcGxveWVlLXJvb21pdGVtIiBzdHlsZT0ic3Ryb2tlOiMxODE4MTg7c3Ryb2tlLXdpZHRoOjE7Ii8+PGxpbmUgc3R5bGU9InN0cm9rZTojMTgxODE4O3N0cm9rZS13aWR0aDoxOyIgeDE9IjIyNjUuMTYxNyIgeDI9IjIyNjUuMzYwNyIgeTE9Ijg0LjM5MDciIHkyPSI5Mi4zODgzIi8+PGxpbmUgc3R5bGU9InN0cm9rZTojMTgxODE4O3N0cm9rZS13aWR0aDoxOyIgeDE9IjIyNjIuMTYyNyIgeDI9IjIyNjIuMzYxNyIgeTE9Ijg0LjQ2NTQiIHkyPSI5Mi40NjI5Ii8+PGxpbmUgc3R5bGU9InN0cm9rZTojMTgxODE4O3N0cm9rZS13aWR0aDoxOyIgeDE9IjIyNjEuMjYyNSIgeDI9IjIyNjkuMjYiIHkxPSI4OC40ODkiIHkyPSI4OC4yOSIvPjxsaW5lIHN0eWxlPSJzdHJva2U6IzE4MTgxODtzdHJva2Utd2lkdGg6MTsiIHgxPSIzMTcuODAzNSIgeDI9IjMyNi4wMjI5IiB5MT0iODQ4LjAxOTQiIHkyPSI4NTMuNzE1MSIvPjxsaW5lIHN0eWxlPSJzdHJva2U6IzE4MTgxODtzdHJva2Utd2lkdGg6MTsiIHgxPSIzMTcuODAzNSIgeDI9IjMxNC42MzcxIiB5MT0iODQ4LjAxOTQiIHkyPSI4NTcuNTA0OSIvPjxsaW5lIHN0eWxlPSJzdHJva2U6IzE4MTgxODtzdHJva2Utd2lkdGg6MTsiIHgxPSIzMTcuODAzNSIgeDI9IjMyMC4zMyIgeTE9Ijg0OC4wMTk0IiB5Mj0iODU1LjYxIi8+PGVsbGlwc2UgY3g9IjMxNS45MDg2IiBjeT0iODQyLjMyNjUiIGZpbGw9Im5vbmUiIHJ4PSI0IiByeT0iNCIgc3R5bGU9InN0cm9rZTojMTgxODE4O3N0cm9rZS13aWR0aDoxOyIvPjx0ZXh0IGZpbGw9IiMwMDAwMDAiIGZvbnQtZmFtaWx5PSJzYW5zLXNlcmlmIiBmb250LXNpemU9IjEzIiBsZW5ndGhBZGp1c3Q9InNwYWNpbmciIHRleHRMZW5ndGg9IjM5IiB4PSIyNzMuNSIgeT0iNTUxLjI4OTEiPmNoZWNrczwvdGV4dD48L2c+PCEtLWxpbmsgZW1wbG95ZWUgdG8gaG91c2VrZWVwaW5naGlzdG9yeS0tPjxnIGNsYXNzPSJsaW5rIiBkYXRhLWVudGl0eS0xPSJlbXBsb3llZSIgZGF0YS1lbnRpdHktMj0iaG91c2VrZWVwaW5naGlzdG9yeSIgZGF0YS1zb3VyY2UtbGluZT0iMjA1IiBkYXRhLXVpZD0ibG5rMjQiIGlkPSJsaW5rX2VtcGxveWVlX2hvdXNla2VlcGluZ2hpc3RvcnkiPjxwYXRoIGNvZGVMaW5lPSIyMDUiIGQ9Ik0yNjExLjg4NzUsOTQuNDA5NyBDMjgxMS4yNzc1LDEwOS4zOTk3IDMxMTguNjUsMTQ2LjIgMzE5MS41LDIzNSBDMzI2OC40NSwzMjguODEgMzI1MC4yMSw0MDEuODIgMzE5MS41LDUwOCBDMzA4Mi4yNSw3MDUuNTggMjg1OC4zMDI5LDgxMS42MDk3IDI2NzcuOTgyOSw4NzAuMDU5NyIgZmlsbD0ibm9uZSIgaWQ9ImVtcGxveWVlLWhvdXNla2VlcGluZ2hpc3RvcnkiIHN0eWxlPSJzdHJva2U6IzE4MTgxODtzdHJva2Utd2lkdGg6MTsiLz48bGluZSBzdHlsZT0ic3Ryb2tlOiMxODE4MTg7c3Ryb2tlLXdpZHRoOjE7IiB4MT0iMjYwNy41OTg5IiB4Mj0iMjYwOC4xOTg2IiB5MT0iOTguMDk4NiIgeTI9IjkwLjEyMTEiLz48bGluZSBzdHlsZT0ic3Ryb2tlOiMxODE4MTg7c3Ryb2tlLXdpZHRoOjE7IiB4MT0iMjYxMC41OTA0IiB4Mj0iMjYxMS4xOTAyIiB5MT0iOTguMzIzNSIgeTI9IjkwLjM0NiIvPjxsaW5lIHN0eWxlPSJzdHJva2U6IzE4MTgxODtzdHJva2Utd2lkdGg6MTsiIHgxPSIyNjExLjg4NzUiIHgyPSIyNjAzLjkxIiB5MT0iOTQuNDA5NyIgeTI9IjkzLjgxIi8+PGxpbmUgc3R5bGU9InN0cm9rZTojMTgxODE4O3N0cm9rZS13aWR0aDoxOyIgeDE9IjI2NjguNDcwMiIgeDI9IjI2NjIuNzEwMSIgeTE9Ijg3My4xNDMyIiB5Mj0iODgxLjMxNzYiLz48bGluZSBzdHlsZT0ic3Ryb2tlOiMxODE4MTg7c3Ryb2tlLXdpZHRoOjE7IiB4MT0iMjY2OC40NzAyIiB4Mj0iMjY1OS4wMDk5IiB5MT0iODczLjE0MzIiIHkyPSI4NjkuOTAyNCIvPjxsaW5lIHN0eWxlPSJzdHJva2U6IzE4MTgxODtzdHJva2Utd2lkdGg6MTsiIHgxPSIyNjY4LjQ3MDIiIHgyPSIyNjYwLjg2IiB5MT0iODczLjE0MzIiIHkyPSI4NzUuNjEiLz48ZWxsaXBzZSBjeD0iMjY3NC4xNzc4IiBjeT0iODcxLjI5MzEiIGZpbGw9Im5vbmUiIHJ4PSI0IiByeT0iNCIgc3R5bGU9InN0cm9rZTojMTgxODE4O3N0cm9rZS13aWR0aDoxOyIvPjx0ZXh0IGZpbGw9IiMwMDAwMDAiIGZvbnQtZmFtaWx5PSJzYW5zLXNlcmlmIiBmb250LXNpemU9IjEzIiBsZW5ndGhBZGp1c3Q9InNwYWNpbmciIHRleHRMZW5ndGg9IjM5IiB4PSIzMTczLjUiIHk9IjU1MS4yODkxIj5jbGVhbnM8L3RleHQ+PC9nPjwhLS1saW5rIGVtcGxveWVlIHRvIGhvdXNla2VlcGluZ2hpc3RvcnktLT48ZyBjbGFzcz0ibGluayIgZGF0YS1lbnRpdHktMT0iZW1wbG95ZWUiIGRhdGEtZW50aXR5LTI9ImhvdXNla2VlcGluZ2hpc3RvcnkiIGRhdGEtc291cmNlLWxpbmU9IjIwNiIgZGF0YS11aWQ9ImxuazI1IiBpZD0ibGlua19lbXBsb3llZV9ob3VzZWtlZXBpbmdoaXN0b3J5Ij48cGF0aCBjb2RlTGluZT0iMjA2IiBkPSJNMjYxMS44NzQyLDg3Ljc3MzQgQzI4MjkuMjM0Miw5Ni4wMjM0IDMxODAuMzMsMTI1Ljk0IDMyNDIuNSwyMzUgQzMzNjYuNzEsNDUyLjg5IDMyNjEuMjUsNjI4LjUgMzA1MS41LDc2NiBDMjkzNC44Miw4NDIuNDkgMjgwMS40MjM4LDg4MC41OTI5IDI2NzguMzEzOCw5MDIuODEyOSIgZmlsbD0ibm9uZSIgaWQ9ImVtcGxveWVlLWhvdXNla2VlcGluZ2hpc3RvcnktMSIgc3R5bGU9InN0cm9rZTojMTgxODE4O3N0cm9rZS13aWR0aDoxOyIvPjxsaW5lIHN0eWxlPSJzdHJva2U6IzE4MTgxODtzdHJva2Utd2lkdGg6MTsiIHgxPSIyNjA3LjcyNTQiIHgyPSIyNjA4LjAyODgiIHkxPSI5MS42MTg4IiB5Mj0iODMuNjI0NiIvPjxsaW5lIHN0eWxlPSJzdHJva2U6IzE4MTgxODtzdHJva2Utd2lkdGg6MTsiIHgxPSIyNjEwLjcyMzMiIHgyPSIyNjExLjAyNjciIHkxPSI5MS43MzI2IiB5Mj0iODMuNzM4NCIvPjxsaW5lIHN0eWxlPSJzdHJva2U6IzE4MTgxODtzdHJva2Utd2lkdGg6MTsiIHgxPSIyNjExLjg3NDIiIHgyPSIyNjAzLjg4IiB5MT0iODcuNzczNCIgeTI9Ijg3LjQ3Ii8+PGxpbmUgc3R5bGU9InN0cm9rZTojMTgxODE4O3N0cm9rZS13aWR0aDoxOyIgeDE9IjI2NjguNDcyOCIgeDI9IjI2NjEuNjY1NyIgeTE9IjkwNC41ODkiIHkyPSI5MTEuOTE0NiIvPjxsaW5lIHN0eWxlPSJzdHJva2U6IzE4MTgxODtzdHJva2Utd2lkdGg6MTsiIHgxPSIyNjY4LjQ3MjgiIHgyPSIyNjU5LjUzNDMiIHkxPSI5MDQuNTg5IiB5Mj0iOTAwLjEwNTQiLz48bGluZSBzdHlsZT0ic3Ryb2tlOiMxODE4MTg7c3Ryb2tlLXdpZHRoOjE7IiB4MT0iMjY2OC40NzI4IiB4Mj0iMjY2MC42IiB5MT0iOTA0LjU4OSIgeTI9IjkwNi4wMSIvPjxlbGxpcHNlIGN4PSIyNjc0LjM3NzQiIGN5PSI5MDMuNTIzMyIgZmlsbD0ibm9uZSIgcng9IjQiIHJ5PSI0IiBzdHlsZT0ic3Ryb2tlOiMxODE4MTg7c3Ryb2tlLXdpZHRoOjE7Ii8+PHRleHQgZmlsbD0iIzAwMDAwMCIgZm9udC1mYW1pbHk9InNhbnMtc2VyaWYiIGZvbnQtc2l6ZT0iMTMiIGxlbmd0aEFkanVzdD0ic3BhY2luZyIgdGV4dExlbmd0aD0iNjUiIHg9IjMyNjkuNSIgeT0iNTUxLjI4OTEiPnN1cGVydmlzZXM8L3RleHQ+PC9nPjwhLS1saW5rIGVtcGxveWVlIHRvIGludmVudG9yeS0tPjxnIGNsYXNzPSJsaW5rIiBkYXRhLWVudGl0eS0xPSJlbXBsb3llZSIgZGF0YS1lbnRpdHktMj0iaW52ZW50b3J5IiBkYXRhLXNvdXJjZS1saW5lPSIyMDciIGRhdGEtdWlkPSJsbmsyNiIgaWQ9ImxpbmtfZW1wbG95ZWVfaW52ZW50b3J5Ij48cGF0aCBjb2RlTGluZT0iMjA3IiBkPSJNMjI5MC45NDI2LDE2NC42ODY5IEMyMjc3LjU4MjYsMTc0LjA2NjkgMjI3MS4yMiwxNzkuNDkgMjI1OS41LDE5MCBDMjIzMi43OCwyMTMuOTggMjIxOC40NzksMjI5LjM5NDggMjE5Ny4zOTksMjU3LjkxNDgiIGZpbGw9Im5vbmUiIGlkPSJlbXBsb3llZS1pbnZlbnRvcnkiIHN0eWxlPSJzdHJva2U6IzE4MTgxODtzdHJva2Utd2lkdGg6MTsiLz48bGluZSBzdHlsZT0ic3Ryb2tlOiMxODE4MTg7c3Ryb2tlLXdpZHRoOjE7IiB4MT0iMjI5MS45MTc4IiB4Mj0iMjI5Ni41MTQ4IiB5MT0iMTU5LjExNDgiIHkyPSIxNjUuNjYyMiIvPjxsaW5lIHN0eWxlPSJzdHJva2U6IzE4MTgxODtzdHJva2Utd2lkdGg6MTsiIHgxPSIyMjg5LjQ2MjYiIHgyPSIyMjk0LjA1OTUiIHkxPSIxNjAuODM4NiIgeTI9IjE2Ny4zODYiLz48bGluZSBzdHlsZT0ic3Ryb2tlOiMxODE4MTg7c3Ryb2tlLXdpZHRoOjE7IiB4MT0iMjI5MC45NDI2IiB4Mj0iMjI5Ny40OSIgeTE9IjE2NC42ODY5IiB5Mj0iMTYwLjA5Ii8+PGxpbmUgc3R5bGU9InN0cm9rZTojMTgxODE4O3N0cm9rZS13aWR0aDoxOyIgeDE9IjIxOTEuNDU1MSIgeDI9IjIxOTEuNTI1MSIgeTE9IjI2NS45NTY2IiB5Mj0iMjc1Ljk1NjMiLz48bGluZSBzdHlsZT0ic3Ryb2tlOiMxODE4MTg7c3Ryb2tlLXdpZHRoOjE7IiB4MT0iMjE5MS40NTUxIiB4Mj0iMjE4MS44NzQ5IiB5MT0iMjY1Ljk1NjYiIHkyPSIyNjguODIzNyIvPjxsaW5lIHN0eWxlPSJzdHJva2U6IzE4MTgxODtzdHJva2Utd2lkdGg6MTsiIHgxPSIyMTkxLjQ1NTEiIHgyPSIyMTg2LjciIHkxPSIyNjUuOTU2NiIgeTI9IjI3Mi4zOSIvPjxlbGxpcHNlIGN4PSIyMTk1LjAyMTUiIGN5PSIyNjEuMTMxNSIgZmlsbD0ibm9uZSIgcng9IjQiIHJ5PSI0IiBzdHlsZT0ic3Ryb2tlOiMxODE4MTg7c3Ryb2tlLXdpZHRoOjE7Ii8+PHRleHQgZmlsbD0iIzAwMDAwMCIgZm9udC1mYW1pbHk9InNhbnMtc2VyaWYiIGZvbnQtc2l6ZT0iMTMiIGxlbmd0aEFkanVzdD0ic3BhY2luZyIgdGV4dExlbmd0aD0iNDUuNSIgeD0iMjI2MC41IiB5PSIyMDMuMjg5MSI+dXBkYXRlczwvdGV4dD48L2c+PCEtLWxpbmsgZW1wbG95ZWUgdG8gcmVzdGF1cmFudGhpc3RvcnktLT48ZyBjbGFzcz0ibGluayIgZGF0YS1lbnRpdHktMT0iZW1wbG95ZWUiIGRhdGEtZW50aXR5LTI9InJlc3RhdXJhbnRoaXN0b3J5IiBkYXRhLXNvdXJjZS1saW5lPSIyMDgiIGRhdGEtdWlkPSJsbmsyNyIgaWQ9ImxpbmtfZW1wbG95ZWVfcmVzdGF1cmFudGhpc3RvcnkiPjxwYXRoIGNvZGVMaW5lPSIyMDgiIGQ9Ik0yNDA5LjgwNTUsMTY3LjcwNzcgQzIzNzIuNDc1NSwyODIuNDc3NyAyMzA1LDQ4Mi40OSAyMjc5LjUsNTA4IEMyMTg0LjYyLDYwMi45MSAyMDQ4LjIxNDQsNjQwLjkzOTIgMTk0OC4yODQ0LDY1OC4yOTkyIiBmaWxsPSJub25lIiBpZD0iZW1wbG95ZWUtcmVzdGF1cmFudGhpc3RvcnkiIHN0eWxlPSJzdHJva2U6IzE4MTgxODtzdHJva2Utd2lkdGg6MTsiLz48bGluZSBzdHlsZT0ic3Ryb2tlOiMxODE4MTg7c3Ryb2tlLXdpZHRoOjE7IiB4MT0iMjQwNy4yMzg5IiB4Mj0iMjQxNC44NDY2IiB5MT0iMTYyLjY2NjYiIHkyPSIxNjUuMTQxMSIvPjxsaW5lIHN0eWxlPSJzdHJva2U6IzE4MTgxODtzdHJva2Utd2lkdGg6MTsiIHgxPSIyNDA2LjMxMSIgeDI9IjI0MTMuOTE4NyIgeTE9IjE2NS41MTk1IiB5Mj0iMTY3Ljk5NCIvPjxsaW5lIHN0eWxlPSJzdHJva2U6IzE4MTgxODtzdHJva2Utd2lkdGg6MTsiIHgxPSIyNDA5LjgwNTUiIHgyPSIyNDEyLjI4IiB5MT0iMTY3LjcwNzciIHkyPSIxNjAuMSIvPjxsaW5lIHN0eWxlPSJzdHJva2U6IzE4MTgxODtzdHJva2Utd2lkdGg6MTsiIHgxPSIxOTM4LjQzMTkiIHgyPSIxOTMxLjU3NjkiIHkxPSI2NjAuMDEwNyIgeTI9IjY2Ny4yOTE1Ii8+PGxpbmUgc3R5bGU9InN0cm9rZTojMTgxODE4O3N0cm9rZS13aWR0aDoxOyIgeDE9IjE5MzguNDMxOSIgeDI9IjE5MjkuNTIzMSIgeTE9IjY2MC4wMTA3IiB5Mj0iNjU1LjQ2ODUiLz48bGluZSBzdHlsZT0ic3Ryb2tlOiMxODE4MTg7c3Ryb2tlLXdpZHRoOjE7IiB4MT0iMTkzOC40MzE5IiB4Mj0iMTkzMC41NSIgeTE9IjY2MC4wMTA3IiB5Mj0iNjYxLjM4Ii8+PGVsbGlwc2UgY3g9IjE5NDQuMzQzNCIgY3k9IjY1OC45ODM4IiBmaWxsPSJub25lIiByeD0iNCIgcnk9IjQiIHN0eWxlPSJzdHJva2U6IzE4MTgxODtzdHJva2Utd2lkdGg6MTsiLz48dGV4dCBmaWxsPSIjMDAwMDAwIiBmb250LWZhbWlseT0ic2Fucy1zZXJpZiIgZm9udC1zaXplPSIxMyIgbGVuZ3RoQWRqdXN0PSJzcGFjaW5nIiB0ZXh0TGVuZ3RoPSIzMi41IiB4PSIyMzg4LjUiIHk9IjM3Ny4yODkxIj5iaWxsczwvdGV4dD48L2c+PCEtLWxpbmsgZW1wbG95ZWUgdG8gc2FsYXJ5LS0+PGcgY2xhc3M9ImxpbmsiIGRhdGEtZW50aXR5LTE9ImVtcGxveWVlIiBkYXRhLWVudGl0eS0yPSJzYWxhcnkiIGRhdGEtc291cmNlLWxpbmU9IjIwOSIgZGF0YS11aWQ9ImxuazI4IiBpZD0ibGlua19lbXBsb3llZV9zYWxhcnkiPjxwYXRoIGNvZGVMaW5lPSIyMDkiIGQ9Ik0yNjExLjM3MzMsMTI3LjM3ODcgQzI2OTYuNjYzMywxNTIuMTE4NyAyNzkyLjQsMTg2LjIyIDI4NzcuNSwyMzUgQzI5MDkuMzYsMjUzLjI2IDI5MjcuNDEyMSwyNjYuNDAzOCAyOTUzLjY1MjEsMjkwLjE0MzgiIGZpbGw9Im5vbmUiIGlkPSJlbXBsb3llZS1zYWxhcnkiIHN0eWxlPSJzdHJva2U6IzE4MTgxODtzdHJva2Utd2lkdGg6MTsiLz48bGluZSBzdHlsZT0ic3Ryb2tlOiMxODE4MTg7c3Ryb2tlLXdpZHRoOjE7IiB4MT0iMjYwNi40MTczIiB4Mj0iMjYwOC42NDYiIHkxPSIxMzAuMTA2IiB5Mj0iMTIyLjQyMjciLz48bGluZSBzdHlsZT0ic3Ryb2tlOiMxODE4MTg7c3Ryb2tlLXdpZHRoOjE7IiB4MT0iMjYwOS4yOTg1IiB4Mj0iMjYxMS41MjcyIiB5MT0iMTMwLjk0MTciIHkyPSIxMjMuMjU4NSIvPjxsaW5lIHN0eWxlPSJzdHJva2U6IzE4MTgxODtzdHJva2Utd2lkdGg6MTsiIHgxPSIyNjExLjM3MzMiIHgyPSIyNjAzLjY5IiB5MT0iMTI3LjM3ODciIHkyPSIxMjUuMTUiLz48bGluZSBzdHlsZT0ic3Ryb2tlOiMxODE4MTg7c3Ryb2tlLXdpZHRoOjE7IiB4MT0iMjk2MS4wNjc2IiB4Mj0iMjk3MS4wMjU0IiB5MT0iMjk2Ljg1MjgiIHkyPSIyOTcuNzcwNyIvPjxsaW5lIHN0eWxlPSJzdHJva2U6IzE4MTgxODtzdHJva2Utd2lkdGg6MTsiIHgxPSIyOTYxLjA2NzYiIHgyPSIyOTYyLjk3NDYiIHkxPSIyOTYuODUyOCIgeTI9IjMwNi42NjkzIi8+PGxpbmUgc3R5bGU9InN0cm9rZTojMTgxODE4O3N0cm9rZS13aWR0aDoxOyIgeDE9IjI5NjEuMDY3NiIgeDI9IjI5NjciIHkxPSIyOTYuODUyOCIgeTI9IjMwMi4yMiIvPjxlbGxpcHNlIGN4PSIyOTU2LjYxODMiIGN5PSIyOTIuODI3NCIgZmlsbD0ibm9uZSIgcng9IjQiIHJ5PSI0IiBzdHlsZT0ic3Ryb2tlOiMxODE4MTg7c3Ryb2tlLXdpZHRoOjE7Ii8+PHRleHQgZmlsbD0iIzAwMDAwMCIgZm9udC1mYW1pbHk9InNhbnMtc2VyaWYiIGZvbnQtc2l6ZT0iMTMiIGxlbmd0aEFkanVzdD0ic3BhY2luZyIgdGV4dExlbmd0aD0iNTIiIHg9IjI4MTAuNSIgeT0iMjAzLjI4OTEiPnJlY2VpdmVzPC90ZXh0PjwvZz48IS0tbGluayBlbXBsb3llZSB0byBzYWxhcnktLT48ZyBjbGFzcz0ibGluayIgZGF0YS1lbnRpdHktMT0iZW1wbG95ZWUiIGRhdGEtZW50aXR5LTI9InNhbGFyeSIgZGF0YS1zb3VyY2UtbGluZT0iMjEwIiBkYXRhLXVpZD0ibG5rMjkiIGlkPSJsaW5rX2VtcGxveWVlX3NhbGFyeSI+PHBhdGggY29kZUxpbmU9IjIxMCIgZD0iTTI2MTEuNTI5OCwxMDIuNjIzMyBDMjY5Ni4zNjk4LDExNi44NTMzIDI3OTAuNDYsMTQxLjc0IDI4NzEuNSwxOTAgQzI5MTguNDgsMjE3Ljk4IDI5NDguNzU4NSwyNDkuNTAxNSAyOTc3Ljk2ODUsMjg3Ljk5MTUiIGZpbGw9Im5vbmUiIGlkPSJlbXBsb3llZS1zYWxhcnktMSIgc3R5bGU9InN0cm9rZTojMTgxODE4O3N0cm9rZS13aWR0aDoxOyIvPjxsaW5lIHN0eWxlPSJzdHJva2U6IzE4MTgxODtzdHJva2Utd2lkdGg6MTsiIHgxPSIyNjA2LjkyMzIiIHgyPSIyNjA4LjI0NjYiIHkxPSIxMDUuOTA2NiIgeTI9Ijk4LjAxNjgiLz48bGluZSBzdHlsZT0ic3Ryb2tlOiMxODE4MTg7c3Ryb2tlLXdpZHRoOjE7IiB4MT0iMjYwOS44ODE5IiB4Mj0iMjYxMS4yMDUyIiB5MT0iMTA2LjQwMjgiIHkyPSI5OC41MTMiLz48bGluZSBzdHlsZT0ic3Ryb2tlOiMxODE4MTg7c3Ryb2tlLXdpZHRoOjE7IiB4MT0iMjYxMS41Mjk4IiB4Mj0iMjYwMy42NCIgeTE9IjEwMi42MjMzIiB5Mj0iMTAxLjMiLz48bGluZSBzdHlsZT0ic3Ryb2tlOiMxODE4MTg7c3Ryb2tlLXdpZHRoOjE7IiB4MT0iMjk4NC4wMTM4IiB4Mj0iMjk5My42Mjk1IiB5MT0iMjk1Ljk1NzMiIHkyPSIyOTguNzAyOCIvPjxsaW5lIHN0eWxlPSJzdHJva2U6IzE4MTgxODtzdHJva2Utd2lkdGg6MTsiIHgxPSIyOTg0LjAxMzgiIHgyPSIyOTg0LjA3MDUiIHkxPSIyOTUuOTU3MyIgeTI9IjMwNS45NTcyIi8+PGxpbmUgc3R5bGU9InN0cm9rZTojMTgxODE4O3N0cm9rZS13aWR0aDoxOyIgeDE9IjI5ODQuMDEzOCIgeDI9IjI5ODguODUiIHkxPSIyOTUuOTU3MyIgeTI9IjMwMi4zMyIvPjxlbGxpcHNlIGN4PSIyOTgwLjM4NjYiIGN5PSIyOTEuMTc3OCIgZmlsbD0ibm9uZSIgcng9IjQiIHJ5PSI0IiBzdHlsZT0ic3Ryb2tlOiMxODE4MTg7c3Ryb2tlLXdpZHRoOjE7Ii8+PHRleHQgZmlsbD0iIzAwMDAwMCIgZm9udC1mYW1pbHk9InNhbnMtc2VyaWYiIGZvbnQtc2l6ZT0iMTMiIGxlbmd0aEFkanVzdD0ic3BhY2luZyIgdGV4dExlbmd0aD0iNTguNSIgeD0iMjg5My41IiB5PSIyMDMuMjg5MSI+cHJvY2Vzc2VzPC90ZXh0PjwvZz48IS0tbGluayBlbXBsb3llZSB0byBzYWxhcnloaXN0b3J5LS0+PGcgY2xhc3M9ImxpbmsiIGRhdGEtZW50aXR5LTE9ImVtcGxveWVlIiBkYXRhLWVudGl0eS0yPSJzYWxhcnloaXN0b3J5IiBkYXRhLXNvdXJjZS1saW5lPSIyMTEiIGRhdGEtdWlkPSJsbmszMCIgaWQ9ImxpbmtfZW1wbG95ZWVfc2FsYXJ5aGlzdG9yeSI+PHBhdGggY29kZUxpbmU9IjIxMSIgZD0iTTI0MzEuMzExNiwxNjguMzc0MSBDMjQyNy45OTE2LDI1NC40NDQxIDI0MjkuNSwzOTAuMTQgMjQ2My41LDUwOCBDMjQ3MC44NCw1MzMuNDUgMjQ3NC4wNzE0LDU0My40OTE5IDI0ODYuNjQxNCw1NjcuMDMxOSIgZmlsbD0ibm9uZSIgaWQ9ImVtcGxveWVlLXNhbGFyeWhpc3RvcnkiIHN0eWxlPSJzdHJva2U6IzE4MTgxODtzdHJva2Utd2lkdGg6MTsiLz48bGluZSBzdHlsZT0ic3Ryb2tlOiMxODE4MTg7c3Ryb2tlLXdpZHRoOjE7IiB4MT0iMjQyNy40Njg4IiB4Mj0iMjQzNS40NjI4IiB5MT0iMTY0LjIyMjgiIHkyPSIxNjQuNTMxMiIvPjxsaW5lIHN0eWxlPSJzdHJva2U6IzE4MTgxODtzdHJva2Utd2lkdGg6MTsiIHgxPSIyNDI3LjM1MzIiIHgyPSIyNDM1LjM0NzIiIHkxPSIxNjcuMjIwNiIgeTI9IjE2Ny41MjkiLz48bGluZSBzdHlsZT0ic3Ryb2tlOiMxODE4MTg7c3Ryb2tlLXdpZHRoOjE7IiB4MT0iMjQzMS4zMTE2IiB4Mj0iMjQzMS42MiIgeTE9IjE2OC4zNzQxIiB5Mj0iMTYwLjM4Ii8+PGxpbmUgc3R5bGU9InN0cm9rZTojMTgxODE4O3N0cm9rZS13aWR0aDoxOyIgeDE9IjI0OTEuMzUxNyIgeDI9IjI1MDAuNDEyNyIgeTE9IjU3NS44NTMxIiB5Mj0iNTgwLjA4MzgiLz48bGluZSBzdHlsZT0ic3Ryb2tlOiMxODE4MTg7c3Ryb2tlLXdpZHRoOjE7IiB4MT0iMjQ5MS4zNTE3IiB4Mj0iMjQ4OS44MjczIiB5MT0iNTc1Ljg1MzEiIHkyPSI1ODUuNzM2MiIvPjxsaW5lIHN0eWxlPSJzdHJva2U6IzE4MTgxODtzdHJva2Utd2lkdGg6MTsiIHgxPSIyNDkxLjM1MTciIHgyPSIyNDk1LjEyIiB5MT0iNTc1Ljg1MzEiIHkyPSI1ODIuOTEiLz48ZWxsaXBzZSBjeD0iMjQ4OC41MjU1IiBjeT0iNTcwLjU2MDQiIGZpbGw9Im5vbmUiIHJ4PSI0IiByeT0iNCIgc3R5bGU9InN0cm9rZTojMTgxODE4O3N0cm9rZS13aWR0aDoxOyIvPjx0ZXh0IGZpbGw9IiMwMDAwMDAiIGZvbnQtZmFtaWx5PSJzYW5zLXNlcmlmIiBmb250LXNpemU9IjEzIiBsZW5ndGhBZGp1c3Q9InNwYWNpbmciIHRleHRMZW5ndGg9IjQ1LjUiIHg9IjI0NjQuNSIgeT0iMzc3LjI4OTEiPnJlY29yZHM8L3RleHQ+PC9nPjwhLS1saW5rIGVtcGxveWVlIHRvIHNhbGFyeWhpc3RvcnktLT48ZyBjbGFzcz0ibGluayIgZGF0YS1lbnRpdHktMT0iZW1wbG95ZWUiIGRhdGEtZW50aXR5LTI9InNhbGFyeWhpc3RvcnkiIGRhdGEtc291cmNlLWxpbmU9IjIxMiIgZGF0YS11aWQ9ImxuazMxIiBpZD0ibGlua19lbXBsb3llZV9zYWxhcnloaXN0b3J5Ij48cGF0aCBjb2RlTGluZT0iMjEyIiBkPSJNMjQ4Ni43NDA1LDE2Ny4yNzcgQzI0OTguOTgwNSwxOTAuNDk3IDI1MDcuMDksMjA5LjU3IDI1MTQuNSwyMzUgQzI1NDguNDgsMzUxLjY3IDI1NTUuMjQ0LDQ3NC41NzAxIDI1NTUuNTI0LDU2NC41OTAxIiBmaWxsPSJub25lIiBpZD0iZW1wbG95ZWUtc2FsYXJ5aGlzdG9yeS0xIiBzdHlsZT0ic3Ryb2tlOiMxODE4MTg7c3Ryb2tlLXdpZHRoOjE7Ii8+PGxpbmUgc3R5bGU9InN0cm9rZTojMTgxODE4O3N0cm9rZS13aWR0aDoxOyIgeDE9IjI0ODEuMzM2OCIgeDI9IjI0ODguNDEzNyIgeTE9IjE2NS42MDM3IiB5Mj0iMTYxLjg3MzIiLz48bGluZSBzdHlsZT0ic3Ryb2tlOiMxODE4MTg7c3Ryb2tlLXdpZHRoOjE7IiB4MT0iMjQ4Mi43MzU3IiB4Mj0iMjQ4OS44MTI3IiB5MT0iMTY4LjI1NzYiIHkyPSIxNjQuNTI3MSIvPjxsaW5lIHN0eWxlPSJzdHJva2U6IzE4MTgxODtzdHJva2Utd2lkdGg6MTsiIHgxPSIyNDg2Ljc0MDUiIHgyPSIyNDgzLjAxIiB5MT0iMTY3LjI3NyIgeTI9IjE2MC4yIi8+PGxpbmUgc3R5bGU9InN0cm9rZTojMTgxODE4O3N0cm9rZS13aWR0aDoxOyIgeDE9IjI1NTUuNTU1MSIgeDI9IjI1NjEuNTgiIHkxPSI1NzQuNTkiIHkyPSI1ODIuNTcxMyIvPjxsaW5lIHN0eWxlPSJzdHJva2U6IzE4MTgxODtzdHJva2Utd2lkdGg6MTsiIHgxPSIyNTU1LjU1NTEiIHgyPSIyNTQ5LjU4IiB5MT0iNTc0LjU5IiB5Mj0iNTgyLjYwODciLz48bGluZSBzdHlsZT0ic3Ryb2tlOiMxODE4MTg7c3Ryb2tlLXdpZHRoOjE7IiB4MT0iMjU1NS41NTUxIiB4Mj0iMjU1NS41OCIgeTE9IjU3NC41OSIgeTI9IjU4Mi41OSIvPjxlbGxpcHNlIGN4PSIyNTU1LjUzNjUiIGN5PSI1NjguNTkwMSIgZmlsbD0ibm9uZSIgcng9IjQiIHJ5PSI0IiBzdHlsZT0ic3Ryb2tlOiMxODE4MTg7c3Ryb2tlLXdpZHRoOjE7Ii8+PHRleHQgZmlsbD0iIzAwMDAwMCIgZm9udC1mYW1pbHk9InNhbnMtc2VyaWYiIGZvbnQtc2l6ZT0iMTMiIGxlbmd0aEFkanVzdD0ic3BhY2luZyIgdGV4dExlbmd0aD0iMjYiIHg9IjI1NTUuNSIgeT0iMzc3LjI4OTEiPmxvZ3M8L3RleHQ+PC9nPjwhLS1saW5rIHVzZXIgdG8gYm9va2luZy0tPjxnIGNsYXNzPSJsaW5rIiBkYXRhLWVudGl0eS0xPSJ1c2VyIiBkYXRhLWVudGl0eS0yPSJib29raW5nIiBkYXRhLXNvdXJjZS1saW5lPSIyMTQiIGRhdGEtdWlkPSJsbmszMiIgaWQ9ImxpbmtfdXNlcl9ib29raW5nIj48cGF0aCBjb2RlTGluZT0iMjE0IiBkPSJNNjcwLjQxMTEsMTQwLjEwNDggQzc1OS43MjExLDE4My4zMjQ4IDg2NC43MDgxLDIzNC4xMjggOTY2LjcwODEsMjgzLjQ5OCIgZmlsbD0ibm9uZSIgaWQ9InVzZXItYm9va2luZyIgc3R5bGU9InN0cm9rZTojMTgxODE4O3N0cm9rZS13aWR0aDoxOyIvPjxsaW5lIHN0eWxlPSJzdHJva2U6IzE4MTgxODtzdHJva2Utd2lkdGg6MTsiIHgxPSI2NjUuMDY4MSIgeDI9IjY2OC41NTMiIHkxPSIxNDEuOTYzIiB5Mj0iMTM0Ljc2MTkiLz48bGluZSBzdHlsZT0ic3Ryb2tlOiMxODE4MTg7c3Ryb2tlLXdpZHRoOjE7IiB4MT0iNjY3Ljc2ODUiIHgyPSI2NzEuMjUzNCIgeTE9IjE0My4yNjk4IiB5Mj0iMTM2LjA2ODciLz48bGluZSBzdHlsZT0ic3Ryb2tlOiMxODE4MTg7c3Ryb2tlLXdpZHRoOjE7IiB4MT0iNjcwLjQxMTEiIHgyPSI2NjMuMjEiIHkxPSIxNDAuMTA0OCIgeTI9IjEzNi42MiIvPjxsaW5lIHN0eWxlPSJzdHJva2U6IzE4MTgxODtzdHJva2Utd2lkdGg6MTsiIHgxPSI5NzUuNzA5MSIgeDI9Ijk4NS41MjQiIHkxPSIyODcuODU0NiIgeTI9IjI4NS45Mzk0Ii8+PGxpbmUgc3R5bGU9InN0cm9rZTojMTgxODE4O3N0cm9rZS13aWR0aDoxOyIgeDE9Ijk3NS43MDkxIiB4Mj0iOTgwLjI5NiIgeTE9IjI4Ny44NTQ2IiB5Mj0iMjk2Ljc0MDYiLz48bGluZSBzdHlsZT0ic3Ryb2tlOiMxODE4MTg7c3Ryb2tlLXdpZHRoOjE7IiB4MT0iOTc1LjcwOTEiIHgyPSI5ODIuOTEiIHkxPSIyODcuODU0NiIgeTI9IjI5MS4zNCIvPjxlbGxpcHNlIGN4PSI5NzAuMzA4NSIgY3k9IjI4NS4yNDA2IiBmaWxsPSJub25lIiByeD0iNCIgcnk9IjQiIHN0eWxlPSJzdHJva2U6IzE4MTgxODtzdHJva2Utd2lkdGg6MTsiLz48dGV4dCBmaWxsPSIjMDAwMDAwIiBmb250LWZhbWlseT0ic2Fucy1zZXJpZiIgZm9udC1zaXplPSIxMyIgbGVuZ3RoQWRqdXN0PSJzcGFjaW5nIiB0ZXh0TGVuZ3RoPSIzMi41IiB4PSI3OTkuNSIgeT0iMjAzLjI4OTEiPmJvb2tzPC90ZXh0PjwvZz48IS0tbGluayB1c2VyIHRvIGZlZWRiYWNrLS0+PGcgY2xhc3M9ImxpbmsiIGRhdGEtZW50aXR5LTE9InVzZXIiIGRhdGEtZW50aXR5LTI9ImZlZWRiYWNrIiBkYXRhLXNvdXJjZS1saW5lPSIyMTUiIGRhdGEtdWlkPSJsbmszMyIgaWQ9ImxpbmtfdXNlcl9mZWVkYmFjayI+PHBhdGggY29kZUxpbmU9IjIxNSIgZD0iTTQ0MC4wODUzLDk1LjU2MDkgQzM2My45ODUzLDEwNy40MTA5IDI3MS4zNSwxMzIuMzMgMjAxLjUsMTkwIEMxNjEuNzIsMjIyLjg0IDE0Mi42NzYyLDI1OS45MzcgMTI4LjU1NjIsMzAwLjM1NyIgZmlsbD0ibm9uZSIgaWQ9InVzZXItZmVlZGJhY2siIHN0eWxlPSJzdHJva2U6IzE4MTgxODtzdHJva2Utd2lkdGg6MTsiLz48bGluZSBzdHlsZT0ic3Ryb2tlOiMxODE4MTg7c3Ryb2tlLXdpZHRoOjE7IiB4MT0iNDQzLjQyMjIiIHgyPSI0NDQuNjUzMSIgeTE9IjkwLjk5MzEiIHkyPSI5OC44OTc4Ii8+PGxpbmUgc3R5bGU9InN0cm9rZTojMTgxODE4O3N0cm9rZS13aWR0aDoxOyIgeDE9IjQ0MC40NTc5IiB4Mj0iNDQxLjY4ODgiIHkxPSI5MS40NTQ3IiB5Mj0iOTkuMzU5NCIvPjxsaW5lIHN0eWxlPSJzdHJva2U6IzE4MTgxODtzdHJva2Utd2lkdGg6MTsiIHgxPSI0NDAuMDg1MyIgeDI9IjQ0Ny45OSIgeTE9Ijk1LjU2MDkiIHkyPSI5NC4zMyIvPjxsaW5lIHN0eWxlPSJzdHJva2U6IzE4MTgxODtzdHJva2Utd2lkdGg6MTsiIHgxPSIxMjUuMjU4MyIgeDI9IjEyOC4yODQzIiB5MT0iMzA5Ljc5NzYiIHkyPSIzMTkuMzI4NyIvPjxsaW5lIHN0eWxlPSJzdHJva2U6IzE4MTgxODtzdHJva2Utd2lkdGg6MTsiIHgxPSIxMjUuMjU4MyIgeDI9IjExNi45NTU3IiB5MT0iMzA5Ljc5NzYiIHkyPSIzMTUuMzcxMyIvPjxsaW5lIHN0eWxlPSJzdHJva2U6IzE4MTgxODtzdHJva2Utd2lkdGg6MTsiIHgxPSIxMjUuMjU4MyIgeDI9IjEyMi42MiIgeTE9IjMwOS43OTc2IiB5Mj0iMzE3LjM1Ii8+PGVsbGlwc2UgY3g9IjEyNy4yMzciIGN5PSIzMDQuMTMzMiIgZmlsbD0ibm9uZSIgcng9IjQiIHJ5PSI0IiBzdHlsZT0ic3Ryb2tlOiMxODE4MTg7c3Ryb2tlLXdpZHRoOjE7Ii8+PHRleHQgZmlsbD0iIzAwMDAwMCIgZm9udC1mYW1pbHk9InNhbnMtc2VyaWYiIGZvbnQtc2l6ZT0iMTMiIGxlbmd0aEFkanVzdD0ic3BhY2luZyIgdGV4dExlbmd0aD0iMzIuNSIgeD0iMjAyLjUiIHk9IjIwMy4yODkxIj5naXZlczwvdGV4dD48L2c+PCEtLWxpbmsgdXNlciB0byByZXNlcnZhdGlvbi0tPjxnIGNsYXNzPSJsaW5rIiBkYXRhLWVudGl0eS0xPSJ1c2VyIiBkYXRhLWVudGl0eS0yPSJyZXNlcnZhdGlvbiIgZGF0YS1zb3VyY2UtbGluZT0iMjE2IiBkYXRhLXVpZD0ibG5rMzQiIGlkPSJsaW5rX3VzZXJfcmVzZXJ2YXRpb24iPjxwYXRoIGNvZGVMaW5lPSIyMTYiIGQ9Ik01NTUuNSwxNjguMDIgQzU1NS41LDIwNC43NiA1NTUuNSwyMjMuMjEgNTU1LjUsMjYxLjc4IiBmaWxsPSJub25lIiBpZD0idXNlci1yZXNlcnZhdGlvbiIgc3R5bGU9InN0cm9rZTojMTgxODE4O3N0cm9rZS13aWR0aDoxOyIvPjxsaW5lIHN0eWxlPSJzdHJva2U6IzE4MTgxODtzdHJva2Utd2lkdGg6MTsiIHgxPSI1NTEuNSIgeDI9IjU1OS41IiB5MT0iMTY0LjAyIiB5Mj0iMTY0LjAyIi8+PGxpbmUgc3R5bGU9InN0cm9rZTojMTgxODE4O3N0cm9rZS13aWR0aDoxOyIgeDE9IjU1MS41IiB4Mj0iNTU5LjUiIHkxPSIxNjcuMDIiIHkyPSIxNjcuMDIiLz48bGluZSBzdHlsZT0ic3Ryb2tlOiMxODE4MTg7c3Ryb2tlLXdpZHRoOjE7IiB4MT0iNTU1LjUiIHgyPSI1NTUuNSIgeTE9IjE2OC4wMiIgeTI9IjE2MC4wMiIvPjxsaW5lIHN0eWxlPSJzdHJva2U6IzE4MTgxODtzdHJva2Utd2lkdGg6MTsiIHgxPSI1NTUuNSIgeDI9IjU2MS41IiB5MT0iMjcxLjc4IiB5Mj0iMjc5Ljc4Ii8+PGxpbmUgc3R5bGU9InN0cm9rZTojMTgxODE4O3N0cm9rZS13aWR0aDoxOyIgeDE9IjU1NS41IiB4Mj0iNTQ5LjUiIHkxPSIyNzEuNzgiIHkyPSIyNzkuNzgiLz48bGluZSBzdHlsZT0ic3Ryb2tlOiMxODE4MTg7c3Ryb2tlLXdpZHRoOjE7IiB4MT0iNTU1LjUiIHgyPSI1NTUuNSIgeTE9IjI3MS43OCIgeTI9IjI3OS43OCIvPjxlbGxpcHNlIGN4PSI1NTUuNSIgY3k9IjI2NS43OCIgZmlsbD0ibm9uZSIgcng9IjQiIHJ5PSI0IiBzdHlsZT0ic3Ryb2tlOiMxODE4MTg7c3Ryb2tlLXdpZHRoOjE7Ii8+PHRleHQgZmlsbD0iIzAwMDAwMCIgZm9udC1mYW1pbHk9InNhbnMtc2VyaWYiIGZvbnQtc2l6ZT0iMTMiIGxlbmd0aEFkanVzdD0ic3BhY2luZyIgdGV4dExlbmd0aD0iNTIiIHg9IjU1Ni41IiB5PSIyMDMuMjg5MSI+cmVzZXJ2ZXM8L3RleHQ+PC9nPjwhLS1saW5rIHJlc2VydmF0aW9uIHRvIHJvb21zLS0+PGcgY2xhc3M9ImxpbmsiIGRhdGEtZW50aXR5LTE9InJlc2VydmF0aW9uIiBkYXRhLWVudGl0eS0yPSJyb29tcyIgZGF0YS1zb3VyY2UtbGluZT0iMjE4IiBkYXRhLXVpZD0ibG5rMzUiIGlkPSJsaW5rX3Jlc2VydmF0aW9uX3Jvb21zIj48cGF0aCBjb2RlTGluZT0iMjE4IiBkPSJNNTU1LjUsNDgxLjIyIEM1NTUuNSw1MTkuMTMgNTU1LjUsNTM3LjA4IDU1NS41LDU3NC45NyIgZmlsbD0ibm9uZSIgaWQ9InJlc2VydmF0aW9uLXJvb21zIiBzdHlsZT0ic3Ryb2tlOiMxODE4MTg7c3Ryb2tlLXdpZHRoOjE7Ii8+PGxpbmUgc3R5bGU9InN0cm9rZTojMTgxODE4O3N0cm9rZS13aWR0aDoxOyIgeDE9IjU1NS41IiB4Mj0iNTQ5LjUiIHkxPSI0NzEuMjIiIHkyPSI0NjMuMjIiLz48bGluZSBzdHlsZT0ic3Ryb2tlOiMxODE4MTg7c3Ryb2tlLXdpZHRoOjE7IiB4MT0iNTU1LjUiIHgyPSI1NjEuNSIgeTE9IjQ3MS4yMiIgeTI9IjQ2My4yMiIvPjxsaW5lIHN0eWxlPSJzdHJva2U6IzE4MTgxODtzdHJva2Utd2lkdGg6MTsiIHgxPSI1NTUuNSIgeDI9IjU1NS41IiB5MT0iNDcxLjIyIiB5Mj0iNDYzLjIyIi8+PGVsbGlwc2UgY3g9IjU1NS41IiBjeT0iNDc3LjIyIiBmaWxsPSJub25lIiByeD0iNCIgcnk9IjQiIHN0eWxlPSJzdHJva2U6IzE4MTgxODtzdHJva2Utd2lkdGg6MTsiLz48bGluZSBzdHlsZT0ic3Ryb2tlOiMxODE4MTg7c3Ryb2tlLXdpZHRoOjE7IiB4MT0iNTU5LjUiIHgyPSI1NTEuNSIgeTE9IjU3OC45NyIgeTI9IjU3OC45NyIvPjxsaW5lIHN0eWxlPSJzdHJva2U6IzE4MTgxODtzdHJva2Utd2lkdGg6MTsiIHgxPSI1NTkuNSIgeDI9IjU1MS41IiB5MT0iNTc1Ljk3IiB5Mj0iNTc1Ljk3Ii8+PGxpbmUgc3R5bGU9InN0cm9rZTojMTgxODE4O3N0cm9rZS13aWR0aDoxOyIgeDE9IjU1NS41IiB4Mj0iNTU1LjUiIHkxPSI1NzQuOTciIHkyPSI1ODIuOTciLz48dGV4dCBmaWxsPSIjMDAwMDAwIiBmb250LWZhbWlseT0ic2Fucy1zZXJpZiIgZm9udC1zaXplPSIxMyIgbGVuZ3RoQWRqdXN0PSJzcGFjaW5nIiB0ZXh0TGVuZ3RoPSI0NS41IiB4PSI1NTYuNSIgeT0iNTUxLjI4OTEiPmFzc2lnbnM8L3RleHQ+PC9nPjwhLS1saW5rIGJvb2tpbmcgdG8gYWNjb3VudHMtLT48ZyBjbGFzcz0ibGluayIgZGF0YS1lbnRpdHktMT0iYm9va2luZyIgZGF0YS1lbnRpdHktMj0iYWNjb3VudHMiIGRhdGEtc291cmNlLWxpbmU9IjIyMCIgZGF0YS11aWQ9ImxuazM2IiBpZD0ibGlua19ib29raW5nX2FjY291bnRzIj48cGF0aCBjb2RlTGluZT0iMjIwIiBkPSJNMTE0Ni41LDUxNi4wMyBDMTE0Ni41LDU0NC4xMiAxMTQ2LjUsNTQ2LjkxIDExNDYuNSw1NzIuNDMiIGZpbGw9Im5vbmUiIGlkPSJib29raW5nLWFjY291bnRzIiBzdHlsZT0ic3Ryb2tlOiMxODE4MTg7c3Ryb2tlLXdpZHRoOjE7Ii8+PGxpbmUgc3R5bGU9InN0cm9rZTojMTgxODE4O3N0cm9rZS13aWR0aDoxOyIgeDE9IjExNDIuNSIgeDI9IjExNTAuNSIgeTE9IjUxMi4wMyIgeTI9IjUxMi4wMyIvPjxsaW5lIHN0eWxlPSJzdHJva2U6IzE4MTgxODtzdHJva2Utd2lkdGg6MTsiIHgxPSIxMTQyLjUiIHgyPSIxMTUwLjUiIHkxPSI1MTUuMDMiIHkyPSI1MTUuMDMiLz48bGluZSBzdHlsZT0ic3Ryb2tlOiMxODE4MTg7c3Ryb2tlLXdpZHRoOjE7IiB4MT0iMTE0Ni41IiB4Mj0iMTE0Ni41IiB5MT0iNTE2LjAzIiB5Mj0iNTA4LjAzIi8+PGxpbmUgc3R5bGU9InN0cm9rZTojMTgxODE4O3N0cm9rZS13aWR0aDoxOyIgeDE9IjExNDYuNSIgeDI9IjExNTIuNSIgeTE9IjU4Mi40MyIgeTI9IjU5MC40MyIvPjxsaW5lIHN0eWxlPSJzdHJva2U6IzE4MTgxODtzdHJva2Utd2lkdGg6MTsiIHgxPSIxMTQ2LjUiIHgyPSIxMTQwLjUiIHkxPSI1ODIuNDMiIHkyPSI1OTAuNDMiLz48bGluZSBzdHlsZT0ic3Ryb2tlOiMxODE4MTg7c3Ryb2tlLXdpZHRoOjE7IiB4MT0iMTE0Ni41IiB4Mj0iMTE0Ni41IiB5MT0iNTgyLjQzIiB5Mj0iNTkwLjQzIi8+PGVsbGlwc2UgY3g9IjExNDYuNSIgY3k9IjU3Ni40MyIgZmlsbD0ibm9uZSIgcng9IjQiIHJ5PSI0IiBzdHlsZT0ic3Ryb2tlOiMxODE4MTg7c3Ryb2tlLXdpZHRoOjE7Ii8+PHRleHQgZmlsbD0iIzAwMDAwMCIgZm9udC1mYW1pbHk9InNhbnMtc2VyaWYiIGZvbnQtc2l6ZT0iMTMiIGxlbmd0aEFkanVzdD0ic3BhY2luZyIgdGV4dExlbmd0aD0iNTguNSIgeD0iMTE0Ny41IiB5PSI1NTEuMjg5MSI+Z2VuZXJhdGVzPC90ZXh0PjwvZz48IS0tbGluayBib29raW5nIHRvIHJlc3RhdXJhbnRoaXN0b3J5LS0+PGcgY2xhc3M9ImxpbmsiIGRhdGEtZW50aXR5LTE9ImJvb2tpbmciIGRhdGEtZW50aXR5LTI9InJlc3RhdXJhbnRoaXN0b3J5IiBkYXRhLXNvdXJjZS1saW5lPSIyMjEiIGRhdGEtdWlkPSJsbmszNyIgaWQ9ImxpbmtfYm9va2luZ19yZXN0YXVyYW50aGlzdG9yeSI+PHBhdGggY29kZUxpbmU9IjIyMSIgZD0iTTEzMTcuMTc0NCw0OTkuMDA1MyBDMTMyNS45MjQ0LDUwMy42MjUzIDEzMjcuNjcsNTA0LjE3IDEzMzYuNSw1MDggQzE0OTEuNjUsNTc1LjI0IDE1NTQuNzIsNTE0LjkxIDE3MDkuNSw1ODMgQzE3MTkuMTQsNTg3LjI0IDE3MTMuMjc3NCw1ODMuMTIyMyAxNzIyLjY0NzQsNTg4LjY5MjMiIGZpbGw9Im5vbmUiIGlkPSJib29raW5nLXJlc3RhdXJhbnRoaXN0b3J5IiBzdHlsZT0ic3Ryb2tlOiMxODE4MTg7c3Ryb2tlLXdpZHRoOjE7Ii8+PGxpbmUgc3R5bGU9InN0cm9rZTojMTgxODE4O3N0cm9rZS13aWR0aDoxOyIgeDE9IjEzMTEuNzY5NiIgeDI9IjEzMTUuNTA0OSIgeTE9IjUwMC42NzQ5IiB5Mj0iNDkzLjYwMDQiLz48bGluZSBzdHlsZT0ic3Ryb2tlOiMxODE4MTg7c3Ryb2tlLXdpZHRoOjE7IiB4MT0iMTMxNC40MjI1IiB4Mj0iMTMxOC4xNTc4IiB5MT0iNTAyLjA3NTYiIHkyPSI0OTUuMDAxMiIvPjxsaW5lIHN0eWxlPSJzdHJva2U6IzE4MTgxODtzdHJva2Utd2lkdGg6MTsiIHgxPSIxMzE3LjE3NDQiIHgyPSIxMzEwLjEiIHkxPSI0OTkuMDA1MyIgeTI9IjQ5NS4yNyIvPjxsaW5lIHN0eWxlPSJzdHJva2U6IzE4MTgxODtzdHJva2Utd2lkdGg6MTsiIHgxPSIxNzMxLjI0MzMiIHgyPSIxNzQxLjE4NTkiIHkxPSI1OTMuODAyMSIgeTI9IjU5Mi43MzI1Ii8+PGxpbmUgc3R5bGU9InN0cm9rZTojMTgxODE4O3N0cm9rZS13aWR0aDoxOyIgeDE9IjE3MzEuMjQzMyIgeDI9IjE3MzUuMDU0MSIgeTE9IjU5My44MDIxIiB5Mj0iNjAzLjA0NzUiLz48bGluZSBzdHlsZT0ic3Ryb2tlOiMxODE4MTg7c3Ryb2tlLXdpZHRoOjE7IiB4MT0iMTczMS4yNDMzIiB4Mj0iMTczOC4xMiIgeTE9IjU5My44MDIxIiB5Mj0iNTk3Ljg5Ii8+PGVsbGlwc2UgY3g9IjE3MjYuMDg1NyIgY3k9IjU5MC43MzYyIiBmaWxsPSJub25lIiByeD0iNCIgcnk9IjQiIHN0eWxlPSJzdHJva2U6IzE4MTgxODtzdHJva2Utd2lkdGg6MTsiLz48dGV4dCBmaWxsPSIjMDAwMDAwIiBmb250LWZhbWlseT0ic2Fucy1zZXJpZiIgZm9udC1zaXplPSIxMyIgbGVuZ3RoQWRqdXN0PSJzcGFjaW5nIiB0ZXh0TGVuZ3RoPSIzOSIgeD0iMTYxMi41IiB5PSI1NTEuMjg5MSI+b3JkZXJzPC90ZXh0PjwvZz48IS0tbGluayBib29raW5nIHRvIGNvdXBvbnVzYWdlLS0+PGcgY2xhc3M9ImxpbmsiIGRhdGEtZW50aXR5LTE9ImJvb2tpbmciIGRhdGEtZW50aXR5LTI9ImNvdXBvbnVzYWdlIiBkYXRhLXNvdXJjZS1saW5lPSIyMjIiIGRhdGEtdWlkPSJsbmszOCIgaWQ9ImxpbmtfYm9va2luZ19jb3Vwb251c2FnZSI+PHBhdGggY29kZUxpbmU9IjIyMiIgZD0iTTEwMTYuODU1LDUxNC4xOTcyIEM5ODAuMDk1LDU1NC40NDcyIDk1NC44LDU4Mi4yNyA5NTQuNSw1ODMgQzkxNS4xOSw2NzcuNTIgOTE4LjM1NzYsNzgxLjI0MjggOTI2LjQyNzYsODUyLjk3MjgiIGZpbGw9Im5vbmUiIGlkPSJib29raW5nLWNvdXBvbnVzYWdlIiBzdHlsZT0ic3Ryb2tlOiMxODE4MTg7c3Ryb2tlLXdpZHRoOjE7Ii8+PGxpbmUgc3R5bGU9InN0cm9rZTojMTgxODE4O3N0cm9rZS13aWR0aDoxOyIgeDE9IjEwMTYuNTk4OSIgeDI9IjEwMjIuNTA2MSIgeTE9IjUwOC41NDYxIiB5Mj0iNTEzLjk0MTEiLz48bGluZSBzdHlsZT0ic3Ryb2tlOiMxODE4MTg7c3Ryb2tlLXdpZHRoOjE7IiB4MT0iMTAxNC41NzU4IiB4Mj0iMTAyMC40ODMiIHkxPSI1MTAuNzYxMyIgeTI9IjUxNi4xNTYyIi8+PGxpbmUgc3R5bGU9InN0cm9rZTojMTgxODE4O3N0cm9rZS13aWR0aDoxOyIgeDE9IjEwMTYuODU1IiB4Mj0iMTAyMi4yNSIgeTE9IjUxNC4xOTcyIiB5Mj0iNTA4LjI5Ii8+PGxpbmUgc3R5bGU9InN0cm9rZTojMTgxODE4O3N0cm9rZS13aWR0aDoxOyIgeDE9IjkyNy41NDU2IiB4Mj0iOTM0LjQwMjQiIHkxPSI4NjIuOTEwMiIgeTI9Ijg3MC4xODkyIi8+PGxpbmUgc3R5bGU9InN0cm9rZTojMTgxODE4O3N0cm9rZS13aWR0aDoxOyIgeDE9IjkyNy41NDU2IiB4Mj0iOTIyLjQ3NzYiIHkxPSI4NjIuOTEwMiIgeTI9Ijg3MS41MzA4Ii8+PGxpbmUgc3R5bGU9InN0cm9rZTojMTgxODE4O3N0cm9rZS13aWR0aDoxOyIgeDE9IjkyNy41NDU2IiB4Mj0iOTI4LjQ0IiB5MT0iODYyLjkxMDIiIHkyPSI4NzAuODYiLz48ZWxsaXBzZSBjeD0iOTI2Ljg3NDgiIGN5PSI4NTYuOTQ3OCIgZmlsbD0ibm9uZSIgcng9IjQiIHJ5PSI0IiBzdHlsZT0ic3Ryb2tlOiMxODE4MTg7c3Ryb2tlLXdpZHRoOjE7Ii8+PHRleHQgZmlsbD0iIzAwMDAwMCIgZm9udC1mYW1pbHk9InNhbnMtc2VyaWYiIGZvbnQtc2l6ZT0iMTMiIGxlbmd0aEFkanVzdD0ic3BhY2luZyIgdGV4dExlbmd0aD0iMjYiIHg9Ijk1NS41IiB5PSI2ODAuMjg5MSI+dXNlczwvdGV4dD48L2c+PCEtLWxpbmsgYm9va2luZyB0byBob3VzZWtlZXBpbmdoaXN0b3J5LS0+PGcgY2xhc3M9ImxpbmsiIGRhdGEtZW50aXR5LTE9ImJvb2tpbmciIGRhdGEtZW50aXR5LTI9ImhvdXNla2VlcGluZ2hpc3RvcnkiIGRhdGEtc291cmNlLWxpbmU9IjIyMyIgZGF0YS11aWQ9ImxuazM5IiBpZD0ibGlua19ib29raW5nX2hvdXNla2VlcGluZ2hpc3RvcnkiPjxwYXRoIGNvZGVMaW5lPSIyMjMiIGQ9Ik0xMzE3LjA5NDcsNDk4LjA0NDggQzEzNTYuMDY0Nyw1MjEuNDk0OCAxMzkxLjksNTM4Ljk4IDE0MzQuNSw1NTMgQzE1MDMuMjIsNTc1LjYyIDE1MzguOTUsNTM2LjY1IDE1OTQuNSw1ODMgQzE2NjEuMzYsNjM4Ljc5IDE1OTguMzYsNzA5LjM2IDE2NjQuNSw3NjYgQzE3NDYsODM1LjggMTk5OC41MDY4LDg3OS43ODYyIDIxOTYuNTg2OCw5MDUuMjM2MiIgZmlsbD0ibm9uZSIgaWQ9ImJvb2tpbmctaG91c2VrZWVwaW5naGlzdG9yeSIgc3R5bGU9InN0cm9rZTojMTgxODE4O3N0cm9rZS13aWR0aDoxOyIvPjxsaW5lIHN0eWxlPSJzdHJva2U6IzE4MTgxODtzdHJva2Utd2lkdGg6MTsiIHgxPSIxMzExLjYwNSIgeDI9IjEzMTUuNzI5NyIgeTE9IjQ5OS40MDk3IiB5Mj0iNDkyLjU1NSIvPjxsaW5lIHN0eWxlPSJzdHJva2U6IzE4MTgxODtzdHJva2Utd2lkdGg6MTsiIHgxPSIxMzE0LjE3NTQiIHgyPSIxMzE4LjMwMDIiIHkxPSI1MDAuOTU2NSIgeTI9IjQ5NC4xMDE4Ii8+PGxpbmUgc3R5bGU9InN0cm9rZTojMTgxODE4O3N0cm9rZS13aWR0aDoxOyIgeDE9IjEzMTcuMDk0NyIgeDI9IjEzMTAuMjQiIHkxPSI0OTguMDQ0OCIgeTI9IjQ5My45MiIvPjxsaW5lIHN0eWxlPSJzdHJva2U6IzE4MTgxODtzdHJva2Utd2lkdGg6MTsiIHgxPSIyMjA2LjUwNTIiIHgyPSIyMjE1LjIwNDYiIHkxPSI5MDYuNTEwNSIgeTI9IjkwMS41Nzg5Ii8+PGxpbmUgc3R5bGU9InN0cm9rZTojMTgxODE4O3N0cm9rZS13aWR0aDoxOyIgeDE9IjIyMDYuNTA1MiIgeDI9IjIyMTMuNjc1NCIgeTE9IjkwNi41MTA1IiB5Mj0iOTEzLjQ4MTEiLz48bGluZSBzdHlsZT0ic3Ryb2tlOiMxODE4MTg7c3Ryb2tlLXdpZHRoOjE7IiB4MT0iMjIwNi41MDUyIiB4Mj0iMjIxNC40NCIgeTE9IjkwNi41MTA1IiB5Mj0iOTA3LjUzIi8+PGVsbGlwc2UgY3g9IjIyMDAuNTU0MSIgY3k9IjkwNS43NDU5IiBmaWxsPSJub25lIiByeD0iNCIgcnk9IjQiIHN0eWxlPSJzdHJva2U6IzE4MTgxODtzdHJva2Utd2lkdGg6MTsiLz48dGV4dCBmaWxsPSIjMDAwMDAwIiBmb250LWZhbWlseT0ic2Fucy1zZXJpZiIgZm9udC1zaXplPSIxMyIgbGVuZ3RoQWRqdXN0PSJzcGFjaW5nIiB0ZXh0TGVuZ3RoPSI1MiIgeD0iMTY2NS41IiB5PSI2ODAuMjg5MSI+cmVxdWVzdHM8L3RleHQ+PC9nPjwhLS1saW5rIGJvb2tpbmcgdG8gcm9vbXMtLT48ZyBjbGFzcz0ibGluayIgZGF0YS1lbnRpdHktMT0iYm9va2luZyIgZGF0YS1lbnRpdHktMj0icm9vbXMiIGRhdGEtc291cmNlLWxpbmU9IjIyNCIgZGF0YS11aWQ9ImxuazQwIiBpZD0ibGlua19ib29raW5nX3Jvb21zIj48cGF0aCBjb2RlTGluZT0iMjI0IiBkPSJNOTY3LjgwNTgsNTExLjM3NzYgQzk0MC4yMDU4LDUzMC4xMDc2IDkyNi4xMSw1MzggODk3LjUsNTUzIEM4NjUuNTgsNTY5Ljc0IDgzOC4yODY3LDU4Mi4wOTY2IDgwMy41NjY3LDU5NS43MjY2IiBmaWxsPSJub25lIiBpZD0iYm9va2luZy1yb29tcyIgc3R5bGU9InN0cm9rZTojMTgxODE4O3N0cm9rZS13aWR0aDoxOyIvPjxsaW5lIHN0eWxlPSJzdHJva2U6IzE4MTgxODtzdHJva2Utd2lkdGg6MTsiIHgxPSI5NzYuMDgwNCIgeDI9Ijk3OS4zMzA4IiB5MT0iNTA1Ljc2MjIiIHkyPSI0OTYuMzA1MyIvPjxsaW5lIHN0eWxlPSJzdHJva2U6IzE4MTgxODtzdHJva2Utd2lkdGg6MTsiIHgxPSI5NzYuMDgwNCIgeDI9Ijk4Ni4wNjkyIiB5MT0iNTA1Ljc2MjIiIHkyPSI1MDYuMjM0NyIvPjxsaW5lIHN0eWxlPSJzdHJva2U6IzE4MTgxODtzdHJva2Utd2lkdGg6MTsiIHgxPSI5NzYuMDgwNCIgeDI9Ijk4Mi43IiB5MT0iNTA1Ljc2MjIiIHkyPSI1MDEuMjciLz48ZWxsaXBzZSBjeD0iOTcxLjExNTYiIGN5PSI1MDkuMTMxNCIgZmlsbD0ibm9uZSIgcng9IjQiIHJ5PSI0IiBzdHlsZT0ic3Ryb2tlOiMxODE4MTg7c3Ryb2tlLXdpZHRoOjE7Ii8+PGxpbmUgc3R5bGU9InN0cm9rZTojMTgxODE4O3N0cm9rZS13aWR0aDoxOyIgeDE9IjgwMS4zMDUxIiB4Mj0iNzk4LjM4MTciIHkxPSI2MDAuOTExNyIgeTI9IjU5My40NjQ5Ii8+PGxpbmUgc3R5bGU9InN0cm9rZTojMTgxODE4O3N0cm9rZS13aWR0aDoxOyIgeDE9IjgwNC4wOTc2IiB4Mj0iODAxLjE3NDIiIHkxPSI1OTkuODE1NCIgeTI9IjU5Mi4zNjg3Ii8+PGxpbmUgc3R5bGU9InN0cm9rZTojMTgxODE4O3N0cm9rZS13aWR0aDoxOyIgeDE9IjgwMy41NjY3IiB4Mj0iNzk2LjEyIiB5MT0iNTk1LjcyNjYiIHkyPSI1OTguNjUiLz48dGV4dCBmaWxsPSIjMDAwMDAwIiBmb250LWZhbWlseT0ic2Fucy1zZXJpZiIgZm9udC1zaXplPSIxMyIgbGVuZ3RoQWRqdXN0PSJzcGFjaW5nIiB0ZXh0TGVuZ3RoPSI1MiIgeD0iOTIwLjUiIHk9IjU1MS4yODkxIj5vY2N1cGllczwvdGV4dD48L2c+PCEtLWxpbmsgYm9va2luZyB0byBjb3Vwb24tLT48ZyBjbGFzcz0ibGluayIgZGF0YS1lbnRpdHktMT0iYm9va2luZyIgZGF0YS1lbnRpdHktMj0iY291cG9uIiBkYXRhLXNvdXJjZS1saW5lPSIyMjUiIGRhdGEtdWlkPSJsbms0MSIgaWQ9ImxpbmtfYm9va2luZ19jb3Vwb24iPjxwYXRoIGNvZGVMaW5lPSIyMjUiIGQ9Ik0xMjI2LjA0MSw1MjIuOTY0OSBDMTIzNy40MjEsNTM5LjA4NDkgMTIzOS42OSw1MzkuNzcgMTI1My41LDU1MyBDMTI3My44OSw1NzIuNTMgMTI4NS4xMSw1NjguNzcgMTMwOS41LDU4MyBDMTMyMS42OCw1OTAuMTEgMTMyNy41MDYyLDU5My41MzgxIDEzNDAuMDA2Miw2MDEuMjI4MSIgZmlsbD0ibm9uZSIgaWQ9ImJvb2tpbmctY291cG9uIiBzdHlsZT0ic3Ryb2tlOiMxODE4MTg7c3Ryb2tlLXdpZHRoOjE7Ii8+PGxpbmUgc3R5bGU9InN0cm9rZTojMTgxODE4O3N0cm9rZS13aWR0aDoxOyIgeDE9IjEyMjAuMjczOCIgeDI9IjEyMTAuNzU4NCIgeTE9IjUxNC43OTU1IiB5Mj0iNTExLjcyMDMiLz48bGluZSBzdHlsZT0ic3Ryb2tlOiMxODE4MTg7c3Ryb2tlLXdpZHRoOjE7IiB4MT0iMTIyMC4yNzM4IiB4Mj0iMTIyMC41NjE2IiB5MT0iNTE0Ljc5NTUiIHkyPSI1MDQuNzk5NyIvPjxsaW5lIHN0eWxlPSJzdHJva2U6IzE4MTgxODtzdHJva2Utd2lkdGg6MTsiIHgxPSIxMjIwLjI3MzgiIHgyPSIxMjE1LjY2IiB5MT0iNTE0Ljc5NTUiIHkyPSI1MDguMjYiLz48ZWxsaXBzZSBjeD0iMTIyMy43MzQxIiBjeT0iNTE5LjY5NzIiIGZpbGw9Im5vbmUiIHJ4PSI0IiByeT0iNCIgc3R5bGU9InN0cm9rZTojMTgxODE4O3N0cm9rZS13aWR0aDoxOyIvPjxsaW5lIHN0eWxlPSJzdHJva2U6IzE4MTgxODtzdHJva2Utd2lkdGg6MTsiIHgxPSIxMzQ1LjUwOSIgeDI9IjEzNDEuMzE3MiIgeTE9IjU5OS45MTcyIiB5Mj0iNjA2LjczMSIvPjxsaW5lIHN0eWxlPSJzdHJva2U6IzE4MTgxODtzdHJva2Utd2lkdGg6MTsiIHgxPSIxMzQyLjk1MzgiIHgyPSIxMzM4Ljc2MiIgeTE9IjU5OC4zNDUyIiB5Mj0iNjA1LjE1OSIvPjxsaW5lIHN0eWxlPSJzdHJva2U6IzE4MTgxODtzdHJva2Utd2lkdGg6MTsiIHgxPSIxMzQwLjAwNjIiIHgyPSIxMzQ2LjgyIiB5MT0iNjAxLjIyODEiIHkyPSI2MDUuNDIiLz48dGV4dCBmaWxsPSIjMDAwMDAwIiBmb250LWZhbWlseT0ic2Fucy1zZXJpZiIgZm9udC1zaXplPSIxMyIgbGVuZ3RoQWRqdXN0PSJzcGFjaW5nIiB0ZXh0TGVuZ3RoPSI0NS41IiB4PSIxMjU0LjUiIHk9IjU1MS4yODkxIj5hcHBsaWVzPC90ZXh0PjwvZz48IS0tbGluayByb29tcyB0byByb29taXRlbS0tPjxnIGNsYXNzPSJsaW5rIiBkYXRhLWVudGl0eS0xPSJyb29tcyIgZGF0YS1lbnRpdHktMj0icm9vbWl0ZW0iIGRhdGEtc291cmNlLWxpbmU9IjIyNyIgZGF0YS11aWQ9ImxuazQyIiBpZD0ibGlua19yb29tc19yb29taXRlbSI+PHBhdGggY29kZUxpbmU9IjIyNyIgZD0iTTQ3Ny41NjQ2LDc3Mi4zNTI2IEM0NTMuOTU0Niw4MDEuNjkyNiA0NDQuMzM2NCw4MTMuNjQ4IDQyMS42ODY0LDg0MS43ODgiIGZpbGw9Im5vbmUiIGlkPSJyb29tcy1yb29taXRlbSIgc3R5bGU9InN0cm9rZTojMTgxODE4O3N0cm9rZS13aWR0aDoxOyIvPjxsaW5lIHN0eWxlPSJzdHJva2U6IzE4MTgxODtzdHJva2Utd2lkdGg6MTsiIHgxPSI0NzYuOTU2IiB4Mj0iNDgzLjE4ODYiIHkxPSI3NjYuNzI4NiIgeTI9Ijc3MS43NDQiLz48bGluZSBzdHlsZT0ic3Ryb2tlOiMxODE4MTg7c3Ryb2tlLXdpZHRoOjE7IiB4MT0iNDc1LjA3NTIiIHgyPSI0ODEuMzA3OCIgeTE9Ijc2OS4wNjU4IiB5Mj0iNzc0LjA4MTMiLz48bGluZSBzdHlsZT0ic3Ryb2tlOiMxODE4MTg7c3Ryb2tlLXdpZHRoOjE7IiB4MT0iNDc3LjU2NDYiIHgyPSI0ODIuNTgiIHkxPSI3NzIuMzUyNiIgeTI9Ijc2Ni4xMiIvPjxsaW5lIHN0eWxlPSJzdHJva2U6IzE4MTgxODtzdHJva2Utd2lkdGg6MTsiIHgxPSI0MTUuNDE2MiIgeDI9IjQxNS4wNzQiIHkxPSI4NDkuNTc4IiB5Mj0iODU5LjU3MjEiLz48bGluZSBzdHlsZT0ic3Ryb2tlOiMxODE4MTg7c3Ryb2tlLXdpZHRoOjE7IiB4MT0iNDE1LjQxNjIiIHgyPSI0MDUuNzI2IiB5MT0iODQ5LjU3OCIgeTI9Ijg1Mi4wNDc5Ii8+PGxpbmUgc3R5bGU9InN0cm9rZTojMTgxODE4O3N0cm9rZS13aWR0aDoxOyIgeDE9IjQxNS40MTYyIiB4Mj0iNDEwLjQiIHkxPSI4NDkuNTc4IiB5Mj0iODU1LjgxIi8+PGVsbGlwc2UgY3g9IjQxOS4xNzgzIiBjeT0iODQ0LjkwNCIgZmlsbD0ibm9uZSIgcng9IjQiIHJ5PSI0IiBzdHlsZT0ic3Ryb2tlOiMxODE4MTg7c3Ryb2tlLXdpZHRoOjE7Ii8+PHRleHQgZmlsbD0iIzAwMDAwMCIgZm9udC1mYW1pbHk9InNhbnMtc2VyaWYiIGZvbnQtc2l6ZT0iMTMiIGxlbmd0aEFkanVzdD0ic3BhY2luZyIgdGV4dExlbmd0aD0iNTIiIHg9IjQ1My41IiB5PSI4MDkuMjg5MSI+Y29udGFpbnM8L3RleHQ+PC9nPjwhLS1saW5rIHJvb21zIHRvIGhvdXNla2VlcGluZ2hpc3RvcnktLT48ZyBjbGFzcz0ibGluayIgZGF0YS1lbnRpdHktMT0icm9vbXMiIGRhdGEtZW50aXR5LTI9ImhvdXNla2VlcGluZ2hpc3RvcnkiIGRhdGEtc291cmNlLWxpbmU9IjIyOCIgZGF0YS11aWQ9ImxuazQzIiBpZD0ibGlua19yb29tc19ob3VzZWtlZXBpbmdoaXN0b3J5Ij48cGF0aCBjb2RlTGluZT0iMjI4IiBkPSJNODAzLjc1NzUsNzQ0Ljc3NDcgQzgzNi43Mzc1LDc1My4wODQ3IDg2Mi40OSw3NTkuMTIgODk0LjUsNzY2IEMxMzU3LjU4LDg2NS41OSAxODk0LjM4NDYsOTA1LjUwODcgMjE5Ni40OTQ2LDkyMS4zMjg3IiBmaWxsPSJub25lIiBpZD0icm9vbXMtaG91c2VrZWVwaW5naGlzdG9yeSIgc3R5bGU9InN0cm9rZTojMTgxODE4O3N0cm9rZS13aWR0aDoxOyIvPjxsaW5lIHN0eWxlPSJzdHJva2U6IzE4MTgxODtzdHJva2Utd2lkdGg6MTsiIHgxPSI3OTguOTAxNCIgeDI9IjgwMC44NTYxIiB5MT0iNzQ3LjY3NjEiIHkyPSI3MzkuOTE4NiIvPjxsaW5lIHN0eWxlPSJzdHJva2U6IzE4MTgxODtzdHJva2Utd2lkdGg6MTsiIHgxPSI4MDEuODEwNSIgeDI9IjgwMy43NjUyIiB5MT0iNzQ4LjQwOTEiIHkyPSI3NDAuNjUxNiIvPjxsaW5lIHN0eWxlPSJzdHJva2U6IzE4MTgxODtzdHJva2Utd2lkdGg6MTsiIHgxPSI4MDMuNzU3NSIgeDI9Ijc5NiIgeTE9Ijc0NC43NzQ3IiB5Mj0iNzQyLjgyIi8+PGxpbmUgc3R5bGU9InN0cm9rZTojMTgxODE4O3N0cm9rZS13aWR0aDoxOyIgeDE9IjIyMDYuNDgwOSIgeDI9IjIyMTQuNzgzOCIgeTE9IjkyMS44NTE3IiB5Mj0iOTE2LjI3ODIiLz48bGluZSBzdHlsZT0ic3Ryb2tlOiMxODE4MTg7c3Ryb2tlLXdpZHRoOjE7IiB4MT0iMjIwNi40ODA5IiB4Mj0iMjIxNC4xNTYyIiB5MT0iOTIxLjg1MTciIHkyPSI5MjguMjYxOCIvPjxsaW5lIHN0eWxlPSJzdHJva2U6IzE4MTgxODtzdHJva2Utd2lkdGg6MTsiIHgxPSIyMjA2LjQ4MDkiIHgyPSIyMjE0LjQ3IiB5MT0iOTIxLjg1MTciIHkyPSI5MjIuMjciLz48ZWxsaXBzZSBjeD0iMjIwMC40ODkyIiBjeT0iOTIxLjUzNzkiIGZpbGw9Im5vbmUiIHJ4PSI0IiByeT0iNCIgc3R5bGU9InN0cm9rZTojMTgxODE4O3N0cm9rZS13aWR0aDoxOyIvPjx0ZXh0IGZpbGw9IiMwMDAwMDAiIGZvbnQtZmFtaWx5PSJzYW5zLXNlcmlmIiBmb250LXNpemU9IjEzIiBsZW5ndGhBZGp1c3Q9InNwYWNpbmciIHRleHRMZW5ndGg9IjUyIiB4PSIxMTAzLjUiIHk9IjgwOS4yODkxIj5zZXJ2aWNlczwvdGV4dD48L2c+PCEtLWxpbmsgY291cG9uIHRvIGNvdXBvbnVzYWdlLS0+PGcgY2xhc3M9ImxpbmsiIGRhdGEtZW50aXR5LTE9ImNvdXBvbiIgZGF0YS1lbnRpdHktMj0iY291cG9udXNhZ2UiIGRhdGEtc291cmNlLWxpbmU9IjIzMCIgZGF0YS11aWQ9ImxuazQ0IiBpZD0ibGlua19jb3Vwb25fY291cG9udXNhZ2UiPjxwYXRoIGNvZGVMaW5lPSIyMzAiIGQ9Ik0xMzQyLjAzMTQsNzQ3LjY0ODMgQzEzMjguOTQxNCw3NTUuNTA4MyAxMzIyLjQ1LDc1OS4wNyAxMzA5LjUsNzY2IEMxMjE3LjI2LDgxNS4zNyAxMTIzLjk4ODgsODU2LjEyNzcgMTA0Ny42NTg4LDg4Ny40OTc3IiBmaWxsPSJub25lIiBpZD0iY291cG9uLWNvdXBvbnVzYWdlIiBzdHlsZT0ic3Ryb2tlOiMxODE4MTg7c3Ryb2tlLXdpZHRoOjE7Ii8+PGxpbmUgc3R5bGU9InN0cm9rZTojMTgxODE4O3N0cm9rZS13aWR0aDoxOyIgeDE9IjEzNDMuNDAxNiIgeDI9IjEzNDcuNTE5OSIgeTE9Ijc0Mi4xNTk5IiB5Mj0iNzQ5LjAxODQiLz48bGluZSBzdHlsZT0ic3Ryb2tlOiMxODE4MTg7c3Ryb2tlLXdpZHRoOjE7IiB4MT0iMTM0MC44Mjk2IiB4Mj0iMTM0NC45NDc5IiB5MT0iNzQzLjcwNDIiIHkyPSI3NTAuNTYyOCIvPjxsaW5lIHN0eWxlPSJzdHJva2U6IzE4MTgxODtzdHJva2Utd2lkdGg6MTsiIHgxPSIxMzQyLjAzMTQiIHgyPSIxMzQ4Ljg5IiB5MT0iNzQ3LjY0ODMiIHkyPSI3NDMuNTMiLz48bGluZSBzdHlsZT0ic3Ryb2tlOiMxODE4MTg7c3Ryb2tlLXdpZHRoOjE7IiB4MT0iMTAzOC40MDk1IiB4Mj0iMTAzMy4yOTA4IiB5MT0iODkxLjI5OSIgeTI9Ijg5OS44ODk2Ii8+PGxpbmUgc3R5bGU9InN0cm9rZTojMTgxODE4O3N0cm9rZS13aWR0aDoxOyIgeDE9IjEwMzguNDA5NSIgeDI9IjEwMjguNzI5MiIgeTE9Ijg5MS4yOTkiIHkyPSI4ODguNzkwNCIvPjxsaW5lIHN0eWxlPSJzdHJva2U6IzE4MTgxODtzdHJva2Utd2lkdGg6MTsiIHgxPSIxMDM4LjQwOTUiIHgyPSIxMDMxLjAxIiB5MT0iODkxLjI5OSIgeTI9Ijg5NC4zNCIvPjxlbGxpcHNlIGN4PSIxMDQzLjk1OTEiIGN5PSI4ODkuMDE4MiIgZmlsbD0ibm9uZSIgcng9IjQiIHJ5PSI0IiBzdHlsZT0ic3Ryb2tlOiMxODE4MTg7c3Ryb2tlLXdpZHRoOjE7Ii8+PHRleHQgZmlsbD0iIzAwMDAwMCIgZm9udC1mYW1pbHk9InNhbnMtc2VyaWYiIGZvbnQtc2l6ZT0iMTMiIGxlbmd0aEFkanVzdD0ic3BhY2luZyIgdGV4dExlbmd0aD0iMzkiIHg9IjEyNTEuNSIgeT0iODA5LjI4OTEiPnRyYWNrczwvdGV4dD48L2c+PCEtLWxpbmsgcmVzdGF1cmFudCB0byByZXN0YXVyYW50aGlzdG9yeS0tPjxnIGNsYXNzPSJsaW5rIiBkYXRhLWVudGl0eS0xPSJyZXN0YXVyYW50IiBkYXRhLWVudGl0eS0yPSJyZXN0YXVyYW50aGlzdG9yeSIgZGF0YS1zb3VyY2UtbGluZT0iMjMyIiBkYXRhLXVpZD0ibG5rNDUiIGlkPSJsaW5rX3Jlc3RhdXJhbnRfcmVzdGF1cmFudGhpc3RvcnkiPjxwYXRoIGNvZGVMaW5lPSIyMzIiIGQ9Ik0xNzM3LjY3OTMsNDQ4LjE2MjYgQzE3NTcuNTQ5Myw0OTQuOTEyNiAxNzczLjc0NTUsNTMyLjk4NTcgMTc5NC4yNjU1LDU4MS4yMzU3IiBmaWxsPSJub25lIiBpZD0icmVzdGF1cmFudC1yZXN0YXVyYW50aGlzdG9yeSIgc3R5bGU9InN0cm9rZTojMTgxODE4O3N0cm9rZS13aWR0aDoxOyIvPjxsaW5lIHN0eWxlPSJzdHJva2U6IzE4MTgxODtzdHJva2Utd2lkdGg6MTsiIHgxPSIxNzMyLjQzMzQiIHgyPSIxNzM5Ljc5NTkiIHkxPSI0NDYuMDQ1OSIgeTI9IjQ0Mi45MTY2Ii8+PGxpbmUgc3R5bGU9InN0cm9rZTojMTgxODE4O3N0cm9rZS13aWR0aDoxOyIgeDE9IjE3MzMuNjA2OCIgeDI9IjE3NDAuOTY5NCIgeTE9IjQ0OC44MDY5IiB5Mj0iNDQ1LjY3NzYiLz48bGluZSBzdHlsZT0ic3Ryb2tlOiMxODE4MTg7c3Ryb2tlLXdpZHRoOjE7IiB4MT0iMTczNy42NzkzIiB4Mj0iMTczNC41NSIgeTE9IjQ0OC4xNjI2IiB5Mj0iNDQwLjgiLz48bGluZSBzdHlsZT0ic3Ryb2tlOiMxODE4MTg7c3Ryb2tlLXdpZHRoOjE7IiB4MT0iMTc5OC4xNzkxIiB4Mj0iMTgwNi44MzE0IiB5MT0iNTkwLjQzODEiIHkyPSI1OTUuNDUxOCIvPjxsaW5lIHN0eWxlPSJzdHJva2U6IzE4MTgxODtzdHJva2Utd2lkdGg6MTsiIHgxPSIxNzk4LjE3OTEiIHgyPSIxNzk1Ljc4ODYiIHkxPSI1OTAuNDM4MSIgeTI9IjYwMC4xNDgyIi8+PGxpbmUgc3R5bGU9InN0cm9rZTojMTgxODE4O3N0cm9rZS13aWR0aDoxOyIgeDE9IjE3OTguMTc5MSIgeDI9IjE4MDEuMzEiIHkxPSI1OTAuNDM4MSIgeTI9IjU5Ny44Ii8+PGVsbGlwc2UgY3g9IjE3OTUuODMwOSIgY3k9IjU4NC45MTY3IiBmaWxsPSJub25lIiByeD0iNCIgcnk9IjQiIHN0eWxlPSJzdHJva2U6IzE4MTgxODtzdHJva2Utd2lkdGg6MTsiLz48dGV4dCBmaWxsPSIjMDAwMDAwIiBmb250LWZhbWlseT0ic2Fucy1zZXJpZiIgZm9udC1zaXplPSIxMyIgbGVuZ3RoQWRqdXN0PSJzcGFjaW5nIiB0ZXh0TGVuZ3RoPSIzOSIgeD0iMTc4Mi41IiB5PSI1NTEuMjg5MSI+c2VydmVzPC90ZXh0PjwvZz48IS0tbGluayBzYWxhcnkgdG8gc2FsYXJ5aGlzdG9yeS0tPjxnIGNsYXNzPSJsaW5rIiBkYXRhLWVudGl0eS0xPSJzYWxhcnkiIGRhdGEtZW50aXR5LTI9InNhbGFyeWhpc3RvcnkiIGRhdGEtc291cmNlLWxpbmU9IjIzNCIgZGF0YS11aWQ9ImxuazQ2IiBpZD0ibGlua19zYWxhcnlfc2FsYXJ5aGlzdG9yeSI+PHBhdGggY29kZUxpbmU9IjIzNCIgZD0iTTI5NTYuNzY0Myw0NDYuMDc2NCBDMjkzMC45NTQzLDQ2OC44NzY0IDI5MDYuOTMsNDg4LjIxIDI4NzcuNSw1MDggQzI4MzcuNjcsNTM0Ljc5IDI4MDguODgzOSw1NTEuOTI1IDI3NjUuNjYzOSw1NzQuNTA1IiBmaWxsPSJub25lIiBpZD0ic2FsYXJ5LXNhbGFyeWhpc3RvcnkiIHN0eWxlPSJzdHJva2U6IzE4MTgxODtzdHJva2Utd2lkdGg6MTsiLz48bGluZSBzdHlsZT0ic3Ryb2tlOiMxODE4MTg7c3Ryb2tlLXdpZHRoOjE7IiB4MT0iMjk1Ny4xMTQiIHgyPSIyOTYyLjQxMDQiIHkxPSI0NDAuNDMwNCIgeTI9IjQ0Ni40MjYiLz48bGluZSBzdHlsZT0ic3Ryb2tlOiMxODE4MTg7c3Ryb2tlLXdpZHRoOjE7IiB4MT0iMjk1NC44NjU2IiB4Mj0iMjk2MC4xNjIiIHkxPSI0NDIuNDE2NiIgeTI9IjQ0OC40MTIyIi8+PGxpbmUgc3R5bGU9InN0cm9rZTojMTgxODE4O3N0cm9rZS13aWR0aDoxOyIgeDE9IjI5NTYuNzY0MyIgeDI9IjI5NjIuNzYiIHkxPSI0NDYuMDc2NCIgeTI9IjQ0MC43OCIvPjxsaW5lIHN0eWxlPSJzdHJva2U6IzE4MTgxODtzdHJva2Utd2lkdGg6MTsiIHgxPSIyNzU2LjgwMDYiIHgyPSIyNzUyLjQ4ODMiIHkxPSI1NzkuMTM1NSIgeTI9IjU4OC4xNTgiLz48bGluZSBzdHlsZT0ic3Ryb2tlOiMxODE4MTg7c3Ryb2tlLXdpZHRoOjE7IiB4MT0iMjc1Ni44MDA2IiB4Mj0iMjc0Ni45MzE3IiB5MT0iNTc5LjEzNTUiIHkyPSI1NzcuNTIyIi8+PGxpbmUgc3R5bGU9InN0cm9rZTojMTgxODE4O3N0cm9rZS13aWR0aDoxOyIgeDE9IjI3NTYuODAwNiIgeDI9IjI3NDkuNzEiIHkxPSI1NzkuMTM1NSIgeTI9IjU4Mi44NCIvPjxlbGxpcHNlIGN4PSIyNzYyLjExODYiIGN5PSI1NzYuMzU3MiIgZmlsbD0ibm9uZSIgcng9IjQiIHJ5PSI0IiBzdHlsZT0ic3Ryb2tlOiMxODE4MTg7c3Ryb2tlLXdpZHRoOjE7Ii8+PHRleHQgZmlsbD0iIzAwMDAwMCIgZm9udC1mYW1pbHk9InNhbnMtc2VyaWYiIGZvbnQtc2l6ZT0iMTMiIGxlbmd0aEFkanVzdD0ic3BhY2luZyIgdGV4dExlbmd0aD0iMjYiIHg9IjI4MjcuNSIgeT0iNTUxLjI4OTEiPmxvZ3M8L3RleHQ+PC9nPjwhLS1TUkM9W25MWEJSeml1NEJ4eExtWXpmNWF1SFJUMEJhUEhHQjZMTGJqN3lMZnNZWnE5akNKT0gySEg5UWJxWlFSX1ZPU0ZvUDlDQUt2Uk8yeTk3b0RvdmZrUFJ1Ty1Tc1J1ZGtKT3lOOTExQzdTR05kWWs0OG1pWWE1dllDaXJfVkVBb3loS2hoNy05TTNrOEZEbkZhLVNmbV9nYmI0NGNWWXY2TXNtU252X3R4bi1TQzdzQnd1VzN5dm9aM2lGSThNeG4xeF9VVlJqLVVtb2NXZ0xwNXl5amdUdFZaMXNCYm4wX1Vaam5teElzX2dCTFItUlUyN2d4N3B2aXFSLUs2bmV0ZHBkN1ZnYzVwVE13clRsWnM3b19Db0pUNGNuS2c1N000dUlmMkdkeWZfaUNHNTRZTWxCdi1rXzNqbHhGWDFEUmVEZWhkZHRkZGRlbi1aNmVDUmJBQ2pwYzJnS0NaZ2dTUlhDMXowMGNVOGYxcWVHQUpDb1RUSVFyaVdwaHpIcmhKZnRVTWJEM0g1TjRHZnRQOFN6V0o5QzVZSDVMcmhVem5uQlBMZTZCRmNjMmFwSVhYZTAtSmVuS3h5NU9GaV9hSDltWjJOcFg3dU56NHJ4bmJsRG9veW5aWlBlRlgxTU5ibDlqaElRWlBXUlZzMUxXRE1KMEpMbUNFSTFSNGtwYWlDQ2V6ODQ5ZWhIVFhYaGRMZkIwb2U0LXptXzQzb0pYWWhMTGdBcGg4LThRQnRxUk80Tk5iemc0ZXdjYUs1OHg2SW5wNzlLMGZFNngtSnE2eWVYS2tzYVNMS2lJX214VnNMNWdXSXZ1anQ1VmVobzlWR2NyLVYzbTFZeGVONThRcEN3R2VkZXVoNmdEQmhfeU9kZmNLMVJZZW1Zc05RN21Ha09SeVJnTzhBYkZPVUxRMnplZWVzNG9zeU9FTzc3eVZFbWJza1Y3U2sxX3hpanhYNkhYY2U0WTctVzJNQ1M2MkFLSnhhY1k1XzZZWUV6cngwSHhzZnd5UG1WMnd1WVdIYTlaZUtBanB3Ry00dnRETU50VU1hNzdBSUhCVzJUa2c2ZHlSRXI1dEVQOWNPLXU0ZDlHTDNFS1ZuOE9peFZEWTJmM2hNdWFqeGYxLUgyZFhDV29EelB2Mm5rUjc1UTJjYmgxZGdDSWZHQkN6aGgxYkI2X21nbVM0eVBnSEdkNkxkdlM2aUlHWE43a3BhSV9MUGZuUlZrVnhTbFBoQjhab1RoWFUtRHZEaldILWlsQzBEZldoaTdPTXVWQzJ1YTRZckZ2ejJzT08tdWVsaGhvMkZla2xSUE1JTTBpLVJYTDdlQlVfeVFSa2tJcEh6V1JDUUswOEpaUWFTM09JUXNoUk5uUlBRci1qV0FoaVBjVDVRYVFLN2NHc0RwZXFWWGcxZk5UeUxQUWE0Uk9PNXVScDQ0U0M1UE1CODFWT2lGaDRiLURJMHpIRlhXaEF6V2dHOXpxd2xRdEhRVmtYN2dPVW85RnlRS2NmdkpfNlZ5SEYwekZWUWFvclc5bUhFMDJJTXowUnFyUWRhbG1hdHk3MVBJRXF2UFQ2bU83ekV6bkJXTEI2aEdieUpoR1JTSWhnakNnVzVPZmhXZW93ZnFQOERyWjY1UllJdngxNnR3YUpDQzdXb1lQM2VVRkY0LUQ5NmhKYnFvR3RCSVpjbDZiME8zYlc3cU1RdmxSU0kzVEZmb01oeC1JQ0Nnc0dXcktvaDMwNUNlRGh5NTRMeUJQNi1laTZfQWd3SkxhRTJIU2RvemZlNGVaYmxqcFZHUXNGTTViMUJUZUItb1ZWM0trOVZHaktKTExqaGZnUjNmWkp2RUxKS0xieWZLU1NzZ183THFkQ19OeGtJOFVSMGlMMlBlTnlBdjBpb1hDVlNQdlh3OE4wOVI1enZUenVJN2ZVZDVKSnEyQ3lRajI2ZnphLUwxNU8wY2Judm1BNzViMWhfVlpuaWVRMWl4R0QyN19ZbzFpOFMtSWt2NEE4SzZLa3Y2ZmVpS0VDMS1yM01RRzJ3N1RSR3l4cEg1Rmlwd1UxbWlMdnZpX0RkNkxoc1VqNWM3eHQ4a0FPdGpMdGpjZ1NkR3hSZ0JoMFBmR2x0ZG5pbFcyMXFQdC1qbXZLVTZwaldTUjVPdGp3dlNuc1AwV0FGN3J3VDZ5Y0c1azFLYndpcmprdE1sbXdTcGpJSVFjOFBMeXpZdlpYTVhyaWhzYmRyMnpDSWYtZ0hvdFVhdUFGdzl3SWRmdWlCLWh0dk95aDRKOHc1RGxLSlB1Vm85Qkw4YzY4dkNSTWdKcTNOZDhjM1lZOGI1Z2N3MlBwZTktSW5YQXFkY2tZTXVySlhnZC1tdDd5ZUNYRWRCMUFoOVNUQzBwSDVxbEhPYWJUSDBseDVLREc3OTBmNk95bnZoeVpYQVhxaHB5a2JUQ2o3OF9LWnF2NE52T1l0elhnenNiUGZzam5pX2RHb0NKQ0c2Sk5OVnoyQll3U2R5b20yMXRERWprMkhLTk1mRVFmLUt5OHo2OWY0WE4xN25XUW1lanFab05QR2JWcHVCN2k0Q0ZuTF9WdkdJdFVxZnQ1UzVXR1Z4VFRITmlObEk3elhZTHdRMHZ5MDAyczFkZFpLbEpZU1Bpd3RNV1NGTlBhRmVxUjE3eTJoU2Y0OWlDNE9FTkQyaUt6MWZUNkVHRmlBV0dNYWQ2NTlCZHA0bVZ1MkNQR3Y2U3JmbDZDS1VXVjFJbG1WXS0tPjwvZz48L3N2Zz4=;" parent="1" vertex="1">
            <mxGeometry x="-2270" y="-160" width="3373" height="1030" as="geometry" />
          </mxCell>
        </UserObject>
      </root>
    </mxGraphModel>
  </diagram>
</mxfile>
